G04 #@! TF.FileFunction,Soldermask,Top*
%FSLAX46Y46*%
G04 Gerber Fmt 4.6, Leading zero omitted, Abs format (unit mm)*
G04 Created by KiCad (PCBNEW 4.0.2-stable) date 26.04.2016 00:44:30*
%MOMM*%
G01*
G04 APERTURE LIST*
%ADD10C,0.100000*%
%ADD11R,1.900000X1.700000*%
%ADD12R,2.432000X2.127200*%
%ADD13O,2.432000X2.127200*%
%ADD14R,2.127200X2.127200*%
%ADD15O,2.127200X2.127200*%
%ADD16R,0.950000X2.000000*%
%ADD17R,2.000000X0.950000*%
%ADD18R,1.598880X1.598880*%
%ADD19R,1.900000X1.650000*%
%ADD20R,2.127200X2.432000*%
%ADD21O,2.127200X2.432000*%
%ADD22R,1.700000X1.900000*%
G04 APERTURE END LIST*
D10*
D11*
X170340000Y-92710000D03*
X167640000Y-92710000D03*
X175420000Y-92710000D03*
X172720000Y-92710000D03*
X175420000Y-88900000D03*
X172720000Y-88900000D03*
X160020000Y-88900000D03*
X157320000Y-88900000D03*
X175500000Y-104140000D03*
X172800000Y-104140000D03*
D12*
X179705000Y-78740000D03*
D13*
X179705000Y-81280000D03*
X179705000Y-83820000D03*
D11*
X170340000Y-88900000D03*
X167640000Y-88900000D03*
X175420000Y-96520000D03*
X172720000Y-96520000D03*
X175420000Y-100330000D03*
X172720000Y-100330000D03*
X170340000Y-96520000D03*
X167640000Y-96520000D03*
X175420000Y-85090000D03*
X172720000Y-85090000D03*
X170340000Y-85090000D03*
X167640000Y-85090000D03*
X170340000Y-100330000D03*
X167640000Y-100330000D03*
X170340000Y-104140000D03*
X167640000Y-104140000D03*
D14*
X158750000Y-81280000D03*
D15*
X158750000Y-83820000D03*
X156210000Y-81280000D03*
X156210000Y-83820000D03*
X153670000Y-81280000D03*
X153670000Y-83820000D03*
D12*
X179705000Y-88900000D03*
D13*
X179705000Y-91440000D03*
X179705000Y-93980000D03*
X179705000Y-96520000D03*
X179705000Y-99060000D03*
X179705000Y-101600000D03*
X179705000Y-104140000D03*
D16*
X160020000Y-94810000D03*
X159220000Y-94810000D03*
X158420000Y-94810000D03*
X157620000Y-94810000D03*
X156820000Y-94810000D03*
X156020000Y-94810000D03*
X155220000Y-94810000D03*
X154420000Y-94810000D03*
D17*
X152970000Y-96260000D03*
X152970000Y-97060000D03*
X152970000Y-97860000D03*
X152970000Y-98660000D03*
X152970000Y-99460000D03*
X152970000Y-100260000D03*
X152970000Y-101060000D03*
X152970000Y-101860000D03*
D16*
X154420000Y-103310000D03*
X155220000Y-103310000D03*
X156020000Y-103310000D03*
X156820000Y-103310000D03*
X157620000Y-103310000D03*
X158420000Y-103310000D03*
X159220000Y-103310000D03*
X160020000Y-103310000D03*
D17*
X161470000Y-101860000D03*
X161470000Y-101060000D03*
X161470000Y-100260000D03*
X161470000Y-99460000D03*
X161470000Y-98660000D03*
X161470000Y-97860000D03*
X161470000Y-97060000D03*
X161470000Y-96260000D03*
D18*
X154940000Y-88900000D03*
X152841960Y-88900000D03*
D19*
X156250000Y-91440000D03*
X158750000Y-91440000D03*
X154920000Y-78105000D03*
X152420000Y-78105000D03*
D20*
X172085000Y-78740000D03*
D21*
X169545000Y-78740000D03*
X167005000Y-78740000D03*
D22*
X163830000Y-83345000D03*
X163830000Y-80645000D03*
D11*
X175340000Y-81915000D03*
X172640000Y-81915000D03*
M02*
