G04 #@! TF.FileFunction,Copper,L2,Bot,Signal*
%FSLAX46Y46*%
G04 Gerber Fmt 4.6, Leading zero omitted, Abs format (unit mm)*
G04 Created by KiCad (PCBNEW 4.0.2-stable) date 26.04.2016 00:44:30*
%MOMM*%
G01*
G04 APERTURE LIST*
%ADD10C,0.100000*%
%ADD11R,2.032000X1.727200*%
%ADD12O,2.032000X1.727200*%
%ADD13R,1.727200X1.727200*%
%ADD14O,1.727200X1.727200*%
%ADD15R,2.100580X5.600700*%
%ADD16R,2.000000X1.300000*%
%ADD17R,1.500000X1.250000*%
%ADD18R,1.727200X2.032000*%
%ADD19O,1.727200X2.032000*%
%ADD20C,0.600000*%
%ADD21C,0.250000*%
%ADD22C,0.254000*%
G04 APERTURE END LIST*
D10*
D11*
X179705000Y-78740000D03*
D12*
X179705000Y-81280000D03*
X179705000Y-83820000D03*
D13*
X158750000Y-81280000D03*
D14*
X158750000Y-83820000D03*
X156210000Y-81280000D03*
X156210000Y-83820000D03*
X153670000Y-81280000D03*
X153670000Y-83820000D03*
D11*
X179705000Y-88900000D03*
D12*
X179705000Y-91440000D03*
X179705000Y-93980000D03*
X179705000Y-96520000D03*
X179705000Y-99060000D03*
X179705000Y-101600000D03*
X179705000Y-104140000D03*
D15*
X156845000Y-103042720D03*
X156845000Y-93345000D03*
D16*
X167005000Y-99695000D03*
X163005000Y-99695000D03*
X163005000Y-97295000D03*
X167005000Y-97295000D03*
D17*
X162560000Y-102870000D03*
X160060000Y-102870000D03*
D18*
X172085000Y-78740000D03*
D19*
X169545000Y-78740000D03*
X167005000Y-78740000D03*
D17*
X163195000Y-93980000D03*
X160695000Y-93980000D03*
D20*
X161884980Y-92075000D03*
X165100000Y-101600000D03*
X165100000Y-104140000D03*
X167045020Y-87199979D03*
X161290000Y-81280000D03*
X170180000Y-81915000D03*
X165735000Y-81915000D03*
X154544980Y-99060000D03*
X153035000Y-93345000D03*
D21*
X165100000Y-97790000D02*
X165100000Y-93980000D01*
X165100000Y-101600000D02*
X165100000Y-97790000D01*
X165100000Y-97790000D02*
X164605000Y-97295000D01*
X164605000Y-97295000D02*
X163005000Y-97295000D01*
X165100000Y-93980000D02*
X165100000Y-92710000D01*
X163195000Y-93980000D02*
X164195000Y-93980000D01*
X164195000Y-93980000D02*
X165100000Y-93980000D01*
X165100000Y-92710000D02*
X164465000Y-92075000D01*
X164465000Y-92075000D02*
X161884980Y-92075000D01*
X165100000Y-101600000D02*
X162955000Y-101600000D01*
X162955000Y-101600000D02*
X162560000Y-101995000D01*
X162560000Y-101995000D02*
X162560000Y-102870000D01*
X153670000Y-83820000D02*
X161884980Y-92034980D01*
X161884980Y-92034980D02*
X161884980Y-92075000D01*
X165100000Y-104140000D02*
X165100000Y-101600000D01*
X179705000Y-104140000D02*
X165100000Y-104140000D01*
X159988601Y-82518601D02*
X162363642Y-82518601D01*
X162363642Y-82518601D02*
X166745021Y-86899980D01*
X166745021Y-86899980D02*
X167045020Y-87199979D01*
X160051399Y-82518601D02*
X161290000Y-81280000D01*
X159988601Y-82518601D02*
X160051399Y-82518601D01*
X153670000Y-81280000D02*
X154908601Y-82518601D01*
X154908601Y-82518601D02*
X159988601Y-82518601D01*
X176530000Y-101600000D02*
X174625000Y-99695000D01*
X179705000Y-101600000D02*
X176530000Y-101600000D01*
X176530000Y-101600000D02*
X158750000Y-83820000D01*
X165735000Y-81915000D02*
X170180000Y-81915000D01*
X163005000Y-99695000D02*
X155179980Y-99695000D01*
X155179980Y-99695000D02*
X154544980Y-99060000D01*
X160060000Y-102870000D02*
X157017720Y-102870000D01*
X157017720Y-102870000D02*
X156845000Y-103042720D01*
X155544710Y-103042720D02*
X154544980Y-102042990D01*
X156845000Y-103042720D02*
X155544710Y-103042720D01*
X154544980Y-102042990D02*
X154544980Y-99060000D01*
X160695000Y-93980000D02*
X157480000Y-93980000D01*
X157480000Y-93980000D02*
X156845000Y-93345000D01*
X156845000Y-93345000D02*
X153035000Y-93345000D01*
D22*
G36*
X180848000Y-77254678D02*
X180721000Y-77228960D01*
X178689000Y-77228960D01*
X178453683Y-77273238D01*
X178237559Y-77412310D01*
X178092569Y-77624510D01*
X178041560Y-77876400D01*
X178041560Y-79603600D01*
X178085838Y-79838917D01*
X178224910Y-80055041D01*
X178437110Y-80200031D01*
X178478439Y-80208400D01*
X178460585Y-80220330D01*
X178135729Y-80706511D01*
X178021655Y-81280000D01*
X178135729Y-81853489D01*
X178460585Y-82339670D01*
X178770069Y-82546461D01*
X178354268Y-82917964D01*
X178100291Y-83445209D01*
X178097642Y-83460974D01*
X178218783Y-83693000D01*
X179578000Y-83693000D01*
X179578000Y-83673000D01*
X179832000Y-83673000D01*
X179832000Y-83693000D01*
X179852000Y-83693000D01*
X179852000Y-83947000D01*
X179832000Y-83947000D01*
X179832000Y-85160924D01*
X180066913Y-85305184D01*
X180619320Y-85111954D01*
X180848000Y-84907637D01*
X180848000Y-87414678D01*
X180721000Y-87388960D01*
X178689000Y-87388960D01*
X178453683Y-87433238D01*
X178237559Y-87572310D01*
X178092569Y-87784510D01*
X178041560Y-88036400D01*
X178041560Y-89763600D01*
X178085838Y-89998917D01*
X178224910Y-90215041D01*
X178437110Y-90360031D01*
X178478439Y-90368400D01*
X178460585Y-90380330D01*
X178135729Y-90866511D01*
X178021655Y-91440000D01*
X178135729Y-92013489D01*
X178460585Y-92499670D01*
X178775366Y-92710000D01*
X178460585Y-92920330D01*
X178135729Y-93406511D01*
X178021655Y-93980000D01*
X178135729Y-94553489D01*
X178460585Y-95039670D01*
X178775366Y-95250000D01*
X178460585Y-95460330D01*
X178135729Y-95946511D01*
X178021655Y-96520000D01*
X178135729Y-97093489D01*
X178460585Y-97579670D01*
X178775366Y-97790000D01*
X178460585Y-98000330D01*
X178135729Y-98486511D01*
X178021655Y-99060000D01*
X178135729Y-99633489D01*
X178460585Y-100119670D01*
X178775366Y-100330000D01*
X178460585Y-100540330D01*
X178260352Y-100840000D01*
X176844802Y-100840000D01*
X160183158Y-84178356D01*
X160248600Y-83849359D01*
X160248600Y-83790641D01*
X160146749Y-83278601D01*
X162048840Y-83278601D01*
X166109898Y-87339659D01*
X166109858Y-87385146D01*
X166251903Y-87728922D01*
X166514693Y-87992171D01*
X166858221Y-88134817D01*
X167230187Y-88135141D01*
X167573963Y-87993096D01*
X167837212Y-87730306D01*
X167979858Y-87386778D01*
X167980182Y-87014812D01*
X167838137Y-86671036D01*
X167575347Y-86407787D01*
X167231819Y-86265141D01*
X167184943Y-86265100D01*
X165098869Y-84179026D01*
X178097642Y-84179026D01*
X178100291Y-84194791D01*
X178354268Y-84722036D01*
X178790680Y-85111954D01*
X179343087Y-85305184D01*
X179578000Y-85160924D01*
X179578000Y-83947000D01*
X178218783Y-83947000D01*
X178097642Y-84179026D01*
X165098869Y-84179026D01*
X163020010Y-82100167D01*
X164799838Y-82100167D01*
X164941883Y-82443943D01*
X165204673Y-82707192D01*
X165548201Y-82849838D01*
X165920167Y-82850162D01*
X166263943Y-82708117D01*
X166297118Y-82675000D01*
X169617537Y-82675000D01*
X169649673Y-82707192D01*
X169993201Y-82849838D01*
X170365167Y-82850162D01*
X170708943Y-82708117D01*
X170972192Y-82445327D01*
X171114838Y-82101799D01*
X171115162Y-81729833D01*
X170973117Y-81386057D01*
X170710327Y-81122808D01*
X170366799Y-80980162D01*
X169994833Y-80979838D01*
X169651057Y-81121883D01*
X169617882Y-81155000D01*
X166297463Y-81155000D01*
X166265327Y-81122808D01*
X165921799Y-80980162D01*
X165549833Y-80979838D01*
X165206057Y-81121883D01*
X164942808Y-81384673D01*
X164800162Y-81728201D01*
X164799838Y-82100167D01*
X163020010Y-82100167D01*
X162901043Y-81981200D01*
X162654481Y-81816453D01*
X162363642Y-81758601D01*
X162103671Y-81758601D01*
X162224838Y-81466799D01*
X162225162Y-81094833D01*
X162083117Y-80751057D01*
X161820327Y-80487808D01*
X161476799Y-80345162D01*
X161104833Y-80344838D01*
X160761057Y-80486883D01*
X160497808Y-80749673D01*
X160355162Y-81093201D01*
X160355121Y-81140077D01*
X160261040Y-81234158D01*
X160261040Y-80416400D01*
X160216762Y-80181083D01*
X160077690Y-79964959D01*
X159865490Y-79819969D01*
X159613600Y-79768960D01*
X157886400Y-79768960D01*
X157651083Y-79813238D01*
X157434959Y-79952310D01*
X157289969Y-80164510D01*
X157281136Y-80208131D01*
X157269670Y-80190971D01*
X156783489Y-79866115D01*
X156210000Y-79752041D01*
X155636511Y-79866115D01*
X155150330Y-80190971D01*
X154940000Y-80505752D01*
X154729670Y-80190971D01*
X154243489Y-79866115D01*
X153670000Y-79752041D01*
X153096511Y-79866115D01*
X152610330Y-80190971D01*
X152285474Y-80677152D01*
X152171400Y-81250641D01*
X152171400Y-81309359D01*
X152285474Y-81882848D01*
X152610330Y-82369029D01*
X152881161Y-82549992D01*
X152463179Y-82931510D01*
X152215032Y-83460973D01*
X152335531Y-83693000D01*
X153543000Y-83693000D01*
X153543000Y-83673000D01*
X153797000Y-83673000D01*
X153797000Y-83693000D01*
X153817000Y-83693000D01*
X153817000Y-83947000D01*
X153797000Y-83947000D01*
X153797000Y-85153817D01*
X154029026Y-85274958D01*
X154444947Y-85102688D01*
X154876821Y-84708490D01*
X154934336Y-84585772D01*
X155150330Y-84909029D01*
X155636511Y-85233885D01*
X156210000Y-85347959D01*
X156783489Y-85233885D01*
X157269670Y-84909029D01*
X157480000Y-84594248D01*
X157690330Y-84909029D01*
X158176511Y-85233885D01*
X158750000Y-85347959D01*
X159127973Y-85272775D01*
X175992599Y-102137401D01*
X176239161Y-102302148D01*
X176530000Y-102360000D01*
X178260352Y-102360000D01*
X178460585Y-102659670D01*
X178770069Y-102866461D01*
X178354268Y-103237964D01*
X178100291Y-103765209D01*
X178097642Y-103780974D01*
X178218783Y-104013000D01*
X179578000Y-104013000D01*
X179578000Y-103993000D01*
X179832000Y-103993000D01*
X179832000Y-104013000D01*
X179852000Y-104013000D01*
X179852000Y-104267000D01*
X179832000Y-104267000D01*
X179832000Y-105480924D01*
X180066913Y-105625184D01*
X180619320Y-105431954D01*
X180848000Y-105227637D01*
X180848000Y-105918000D01*
X158527556Y-105918000D01*
X158542730Y-105843070D01*
X158542730Y-104499026D01*
X178097642Y-104499026D01*
X178100291Y-104514791D01*
X178354268Y-105042036D01*
X178790680Y-105431954D01*
X179343087Y-105625184D01*
X179578000Y-105480924D01*
X179578000Y-104267000D01*
X178218783Y-104267000D01*
X178097642Y-104499026D01*
X158542730Y-104499026D01*
X158542730Y-103630000D01*
X158687962Y-103630000D01*
X158706838Y-103730317D01*
X158845910Y-103946441D01*
X159058110Y-104091431D01*
X159310000Y-104142440D01*
X160810000Y-104142440D01*
X161045317Y-104098162D01*
X161261441Y-103959090D01*
X161307969Y-103890994D01*
X161450302Y-104033327D01*
X161683691Y-104130000D01*
X162274250Y-104130000D01*
X162433000Y-103971250D01*
X162433000Y-102997000D01*
X162687000Y-102997000D01*
X162687000Y-103971250D01*
X162845750Y-104130000D01*
X163436309Y-104130000D01*
X163669698Y-104033327D01*
X163848327Y-103854699D01*
X163945000Y-103621310D01*
X163945000Y-103155750D01*
X163786250Y-102997000D01*
X162687000Y-102997000D01*
X162433000Y-102997000D01*
X162413000Y-102997000D01*
X162413000Y-102743000D01*
X162433000Y-102743000D01*
X162433000Y-101768750D01*
X162687000Y-101768750D01*
X162687000Y-102743000D01*
X163786250Y-102743000D01*
X163945000Y-102584250D01*
X163945000Y-102118690D01*
X163848327Y-101885301D01*
X163669698Y-101706673D01*
X163436309Y-101610000D01*
X162845750Y-101610000D01*
X162687000Y-101768750D01*
X162433000Y-101768750D01*
X162274250Y-101610000D01*
X161683691Y-101610000D01*
X161450302Y-101706673D01*
X161309064Y-101847910D01*
X161274090Y-101793559D01*
X161061890Y-101648569D01*
X160810000Y-101597560D01*
X159310000Y-101597560D01*
X159074683Y-101641838D01*
X158858559Y-101780910D01*
X158713569Y-101993110D01*
X158689898Y-102110000D01*
X158542730Y-102110000D01*
X158542730Y-100455000D01*
X161378258Y-100455000D01*
X161401838Y-100580317D01*
X161540910Y-100796441D01*
X161753110Y-100941431D01*
X162005000Y-100992440D01*
X164005000Y-100992440D01*
X164240317Y-100948162D01*
X164456441Y-100809090D01*
X164601431Y-100596890D01*
X164652440Y-100345000D01*
X164652440Y-99045000D01*
X164608162Y-98809683D01*
X164469090Y-98593559D01*
X164329250Y-98498010D01*
X164364698Y-98483327D01*
X164543327Y-98304699D01*
X164640000Y-98071310D01*
X164640000Y-97580750D01*
X164481250Y-97422000D01*
X163132000Y-97422000D01*
X163132000Y-97442000D01*
X162878000Y-97442000D01*
X162878000Y-97422000D01*
X161528750Y-97422000D01*
X161370000Y-97580750D01*
X161370000Y-98071310D01*
X161466673Y-98304699D01*
X161645302Y-98483327D01*
X161681747Y-98498423D01*
X161553559Y-98580910D01*
X161408569Y-98793110D01*
X161379836Y-98935000D01*
X155494782Y-98935000D01*
X155480102Y-98920320D01*
X155480142Y-98874833D01*
X155338097Y-98531057D01*
X155075307Y-98267808D01*
X154731779Y-98125162D01*
X154359813Y-98124838D01*
X154016037Y-98266883D01*
X153752788Y-98529673D01*
X153610142Y-98873201D01*
X153609818Y-99245167D01*
X153751863Y-99588943D01*
X153784980Y-99622118D01*
X153784980Y-102042990D01*
X153842832Y-102333829D01*
X154007579Y-102580391D01*
X155007309Y-103580121D01*
X155147270Y-103673640D01*
X155147270Y-105843070D01*
X155161369Y-105918000D01*
X149352000Y-105918000D01*
X149352000Y-93530167D01*
X152099838Y-93530167D01*
X152241883Y-93873943D01*
X152504673Y-94137192D01*
X152848201Y-94279838D01*
X153220167Y-94280162D01*
X153563943Y-94138117D01*
X153597118Y-94105000D01*
X155147270Y-94105000D01*
X155147270Y-96145350D01*
X155191548Y-96380667D01*
X155330620Y-96596791D01*
X155542820Y-96741781D01*
X155794710Y-96792790D01*
X157895290Y-96792790D01*
X158130607Y-96748512D01*
X158346731Y-96609440D01*
X158408737Y-96518690D01*
X161370000Y-96518690D01*
X161370000Y-97009250D01*
X161528750Y-97168000D01*
X162878000Y-97168000D01*
X162878000Y-96168750D01*
X163132000Y-96168750D01*
X163132000Y-97168000D01*
X164481250Y-97168000D01*
X164640000Y-97009250D01*
X164640000Y-96645000D01*
X165357560Y-96645000D01*
X165357560Y-97945000D01*
X165401838Y-98180317D01*
X165540910Y-98396441D01*
X165686083Y-98495633D01*
X165553559Y-98580910D01*
X165408569Y-98793110D01*
X165357560Y-99045000D01*
X165357560Y-100345000D01*
X165401838Y-100580317D01*
X165540910Y-100796441D01*
X165753110Y-100941431D01*
X166005000Y-100992440D01*
X168005000Y-100992440D01*
X168240317Y-100948162D01*
X168456441Y-100809090D01*
X168601431Y-100596890D01*
X168652440Y-100345000D01*
X168652440Y-99045000D01*
X168608162Y-98809683D01*
X168469090Y-98593559D01*
X168323917Y-98494367D01*
X168456441Y-98409090D01*
X168601431Y-98196890D01*
X168652440Y-97945000D01*
X168652440Y-96645000D01*
X168608162Y-96409683D01*
X168469090Y-96193559D01*
X168256890Y-96048569D01*
X168005000Y-95997560D01*
X166005000Y-95997560D01*
X165769683Y-96041838D01*
X165553559Y-96180910D01*
X165408569Y-96393110D01*
X165357560Y-96645000D01*
X164640000Y-96645000D01*
X164640000Y-96518690D01*
X164543327Y-96285301D01*
X164364698Y-96106673D01*
X164131309Y-96010000D01*
X163290750Y-96010000D01*
X163132000Y-96168750D01*
X162878000Y-96168750D01*
X162719250Y-96010000D01*
X161878691Y-96010000D01*
X161645302Y-96106673D01*
X161466673Y-96285301D01*
X161370000Y-96518690D01*
X158408737Y-96518690D01*
X158491721Y-96397240D01*
X158542730Y-96145350D01*
X158542730Y-94740000D01*
X159322962Y-94740000D01*
X159341838Y-94840317D01*
X159480910Y-95056441D01*
X159693110Y-95201431D01*
X159945000Y-95252440D01*
X161445000Y-95252440D01*
X161680317Y-95208162D01*
X161896441Y-95069090D01*
X161942969Y-95000994D01*
X162085302Y-95143327D01*
X162318691Y-95240000D01*
X162909250Y-95240000D01*
X163068000Y-95081250D01*
X163068000Y-94107000D01*
X163322000Y-94107000D01*
X163322000Y-95081250D01*
X163480750Y-95240000D01*
X164071309Y-95240000D01*
X164304698Y-95143327D01*
X164483327Y-94964699D01*
X164580000Y-94731310D01*
X164580000Y-94265750D01*
X164421250Y-94107000D01*
X163322000Y-94107000D01*
X163068000Y-94107000D01*
X163048000Y-94107000D01*
X163048000Y-93853000D01*
X163068000Y-93853000D01*
X163068000Y-92878750D01*
X163322000Y-92878750D01*
X163322000Y-93853000D01*
X164421250Y-93853000D01*
X164580000Y-93694250D01*
X164580000Y-93228690D01*
X164483327Y-92995301D01*
X164304698Y-92816673D01*
X164071309Y-92720000D01*
X163480750Y-92720000D01*
X163322000Y-92878750D01*
X163068000Y-92878750D01*
X162909250Y-92720000D01*
X162318691Y-92720000D01*
X162085302Y-92816673D01*
X161944064Y-92957910D01*
X161909090Y-92903559D01*
X161696890Y-92758569D01*
X161445000Y-92707560D01*
X159945000Y-92707560D01*
X159709683Y-92751838D01*
X159493559Y-92890910D01*
X159348569Y-93103110D01*
X159324898Y-93220000D01*
X158542730Y-93220000D01*
X158542730Y-90544650D01*
X158498452Y-90309333D01*
X158359380Y-90093209D01*
X158147180Y-89948219D01*
X157895290Y-89897210D01*
X155794710Y-89897210D01*
X155559393Y-89941488D01*
X155343269Y-90080560D01*
X155198279Y-90292760D01*
X155147270Y-90544650D01*
X155147270Y-92585000D01*
X153597463Y-92585000D01*
X153565327Y-92552808D01*
X153221799Y-92410162D01*
X152849833Y-92409838D01*
X152506057Y-92551883D01*
X152242808Y-92814673D01*
X152100162Y-93158201D01*
X152099838Y-93530167D01*
X149352000Y-93530167D01*
X149352000Y-84179027D01*
X152215032Y-84179027D01*
X152463179Y-84708490D01*
X152895053Y-85102688D01*
X153310974Y-85274958D01*
X153543000Y-85153817D01*
X153543000Y-83947000D01*
X152335531Y-83947000D01*
X152215032Y-84179027D01*
X149352000Y-84179027D01*
X149352000Y-78555255D01*
X165506400Y-78555255D01*
X165506400Y-78924745D01*
X165620474Y-79498234D01*
X165945330Y-79984415D01*
X166431511Y-80309271D01*
X167005000Y-80423345D01*
X167578489Y-80309271D01*
X168064670Y-79984415D01*
X168275000Y-79669634D01*
X168485330Y-79984415D01*
X168971511Y-80309271D01*
X169545000Y-80423345D01*
X170118489Y-80309271D01*
X170604670Y-79984415D01*
X170619500Y-79962220D01*
X170683073Y-80115698D01*
X170861701Y-80294327D01*
X171095090Y-80391000D01*
X171799250Y-80391000D01*
X171958000Y-80232250D01*
X171958000Y-78867000D01*
X172212000Y-78867000D01*
X172212000Y-80232250D01*
X172370750Y-80391000D01*
X173074910Y-80391000D01*
X173308299Y-80294327D01*
X173486927Y-80115698D01*
X173583600Y-79882309D01*
X173583600Y-79025750D01*
X173424850Y-78867000D01*
X172212000Y-78867000D01*
X171958000Y-78867000D01*
X171938000Y-78867000D01*
X171938000Y-78613000D01*
X171958000Y-78613000D01*
X171958000Y-77247750D01*
X172212000Y-77247750D01*
X172212000Y-78613000D01*
X173424850Y-78613000D01*
X173583600Y-78454250D01*
X173583600Y-77597691D01*
X173486927Y-77364302D01*
X173308299Y-77185673D01*
X173074910Y-77089000D01*
X172370750Y-77089000D01*
X172212000Y-77247750D01*
X171958000Y-77247750D01*
X171799250Y-77089000D01*
X171095090Y-77089000D01*
X170861701Y-77185673D01*
X170683073Y-77364302D01*
X170619500Y-77517780D01*
X170604670Y-77495585D01*
X170118489Y-77170729D01*
X169545000Y-77056655D01*
X168971511Y-77170729D01*
X168485330Y-77495585D01*
X168275000Y-77810366D01*
X168064670Y-77495585D01*
X167578489Y-77170729D01*
X167005000Y-77056655D01*
X166431511Y-77170729D01*
X165945330Y-77495585D01*
X165620474Y-77981766D01*
X165506400Y-78555255D01*
X149352000Y-78555255D01*
X149352000Y-76962000D01*
X180848000Y-76962000D01*
X180848000Y-77254678D01*
X180848000Y-77254678D01*
G37*
X180848000Y-77254678D02*
X180721000Y-77228960D01*
X178689000Y-77228960D01*
X178453683Y-77273238D01*
X178237559Y-77412310D01*
X178092569Y-77624510D01*
X178041560Y-77876400D01*
X178041560Y-79603600D01*
X178085838Y-79838917D01*
X178224910Y-80055041D01*
X178437110Y-80200031D01*
X178478439Y-80208400D01*
X178460585Y-80220330D01*
X178135729Y-80706511D01*
X178021655Y-81280000D01*
X178135729Y-81853489D01*
X178460585Y-82339670D01*
X178770069Y-82546461D01*
X178354268Y-82917964D01*
X178100291Y-83445209D01*
X178097642Y-83460974D01*
X178218783Y-83693000D01*
X179578000Y-83693000D01*
X179578000Y-83673000D01*
X179832000Y-83673000D01*
X179832000Y-83693000D01*
X179852000Y-83693000D01*
X179852000Y-83947000D01*
X179832000Y-83947000D01*
X179832000Y-85160924D01*
X180066913Y-85305184D01*
X180619320Y-85111954D01*
X180848000Y-84907637D01*
X180848000Y-87414678D01*
X180721000Y-87388960D01*
X178689000Y-87388960D01*
X178453683Y-87433238D01*
X178237559Y-87572310D01*
X178092569Y-87784510D01*
X178041560Y-88036400D01*
X178041560Y-89763600D01*
X178085838Y-89998917D01*
X178224910Y-90215041D01*
X178437110Y-90360031D01*
X178478439Y-90368400D01*
X178460585Y-90380330D01*
X178135729Y-90866511D01*
X178021655Y-91440000D01*
X178135729Y-92013489D01*
X178460585Y-92499670D01*
X178775366Y-92710000D01*
X178460585Y-92920330D01*
X178135729Y-93406511D01*
X178021655Y-93980000D01*
X178135729Y-94553489D01*
X178460585Y-95039670D01*
X178775366Y-95250000D01*
X178460585Y-95460330D01*
X178135729Y-95946511D01*
X178021655Y-96520000D01*
X178135729Y-97093489D01*
X178460585Y-97579670D01*
X178775366Y-97790000D01*
X178460585Y-98000330D01*
X178135729Y-98486511D01*
X178021655Y-99060000D01*
X178135729Y-99633489D01*
X178460585Y-100119670D01*
X178775366Y-100330000D01*
X178460585Y-100540330D01*
X178260352Y-100840000D01*
X176844802Y-100840000D01*
X160183158Y-84178356D01*
X160248600Y-83849359D01*
X160248600Y-83790641D01*
X160146749Y-83278601D01*
X162048840Y-83278601D01*
X166109898Y-87339659D01*
X166109858Y-87385146D01*
X166251903Y-87728922D01*
X166514693Y-87992171D01*
X166858221Y-88134817D01*
X167230187Y-88135141D01*
X167573963Y-87993096D01*
X167837212Y-87730306D01*
X167979858Y-87386778D01*
X167980182Y-87014812D01*
X167838137Y-86671036D01*
X167575347Y-86407787D01*
X167231819Y-86265141D01*
X167184943Y-86265100D01*
X165098869Y-84179026D01*
X178097642Y-84179026D01*
X178100291Y-84194791D01*
X178354268Y-84722036D01*
X178790680Y-85111954D01*
X179343087Y-85305184D01*
X179578000Y-85160924D01*
X179578000Y-83947000D01*
X178218783Y-83947000D01*
X178097642Y-84179026D01*
X165098869Y-84179026D01*
X163020010Y-82100167D01*
X164799838Y-82100167D01*
X164941883Y-82443943D01*
X165204673Y-82707192D01*
X165548201Y-82849838D01*
X165920167Y-82850162D01*
X166263943Y-82708117D01*
X166297118Y-82675000D01*
X169617537Y-82675000D01*
X169649673Y-82707192D01*
X169993201Y-82849838D01*
X170365167Y-82850162D01*
X170708943Y-82708117D01*
X170972192Y-82445327D01*
X171114838Y-82101799D01*
X171115162Y-81729833D01*
X170973117Y-81386057D01*
X170710327Y-81122808D01*
X170366799Y-80980162D01*
X169994833Y-80979838D01*
X169651057Y-81121883D01*
X169617882Y-81155000D01*
X166297463Y-81155000D01*
X166265327Y-81122808D01*
X165921799Y-80980162D01*
X165549833Y-80979838D01*
X165206057Y-81121883D01*
X164942808Y-81384673D01*
X164800162Y-81728201D01*
X164799838Y-82100167D01*
X163020010Y-82100167D01*
X162901043Y-81981200D01*
X162654481Y-81816453D01*
X162363642Y-81758601D01*
X162103671Y-81758601D01*
X162224838Y-81466799D01*
X162225162Y-81094833D01*
X162083117Y-80751057D01*
X161820327Y-80487808D01*
X161476799Y-80345162D01*
X161104833Y-80344838D01*
X160761057Y-80486883D01*
X160497808Y-80749673D01*
X160355162Y-81093201D01*
X160355121Y-81140077D01*
X160261040Y-81234158D01*
X160261040Y-80416400D01*
X160216762Y-80181083D01*
X160077690Y-79964959D01*
X159865490Y-79819969D01*
X159613600Y-79768960D01*
X157886400Y-79768960D01*
X157651083Y-79813238D01*
X157434959Y-79952310D01*
X157289969Y-80164510D01*
X157281136Y-80208131D01*
X157269670Y-80190971D01*
X156783489Y-79866115D01*
X156210000Y-79752041D01*
X155636511Y-79866115D01*
X155150330Y-80190971D01*
X154940000Y-80505752D01*
X154729670Y-80190971D01*
X154243489Y-79866115D01*
X153670000Y-79752041D01*
X153096511Y-79866115D01*
X152610330Y-80190971D01*
X152285474Y-80677152D01*
X152171400Y-81250641D01*
X152171400Y-81309359D01*
X152285474Y-81882848D01*
X152610330Y-82369029D01*
X152881161Y-82549992D01*
X152463179Y-82931510D01*
X152215032Y-83460973D01*
X152335531Y-83693000D01*
X153543000Y-83693000D01*
X153543000Y-83673000D01*
X153797000Y-83673000D01*
X153797000Y-83693000D01*
X153817000Y-83693000D01*
X153817000Y-83947000D01*
X153797000Y-83947000D01*
X153797000Y-85153817D01*
X154029026Y-85274958D01*
X154444947Y-85102688D01*
X154876821Y-84708490D01*
X154934336Y-84585772D01*
X155150330Y-84909029D01*
X155636511Y-85233885D01*
X156210000Y-85347959D01*
X156783489Y-85233885D01*
X157269670Y-84909029D01*
X157480000Y-84594248D01*
X157690330Y-84909029D01*
X158176511Y-85233885D01*
X158750000Y-85347959D01*
X159127973Y-85272775D01*
X175992599Y-102137401D01*
X176239161Y-102302148D01*
X176530000Y-102360000D01*
X178260352Y-102360000D01*
X178460585Y-102659670D01*
X178770069Y-102866461D01*
X178354268Y-103237964D01*
X178100291Y-103765209D01*
X178097642Y-103780974D01*
X178218783Y-104013000D01*
X179578000Y-104013000D01*
X179578000Y-103993000D01*
X179832000Y-103993000D01*
X179832000Y-104013000D01*
X179852000Y-104013000D01*
X179852000Y-104267000D01*
X179832000Y-104267000D01*
X179832000Y-105480924D01*
X180066913Y-105625184D01*
X180619320Y-105431954D01*
X180848000Y-105227637D01*
X180848000Y-105918000D01*
X158527556Y-105918000D01*
X158542730Y-105843070D01*
X158542730Y-104499026D01*
X178097642Y-104499026D01*
X178100291Y-104514791D01*
X178354268Y-105042036D01*
X178790680Y-105431954D01*
X179343087Y-105625184D01*
X179578000Y-105480924D01*
X179578000Y-104267000D01*
X178218783Y-104267000D01*
X178097642Y-104499026D01*
X158542730Y-104499026D01*
X158542730Y-103630000D01*
X158687962Y-103630000D01*
X158706838Y-103730317D01*
X158845910Y-103946441D01*
X159058110Y-104091431D01*
X159310000Y-104142440D01*
X160810000Y-104142440D01*
X161045317Y-104098162D01*
X161261441Y-103959090D01*
X161307969Y-103890994D01*
X161450302Y-104033327D01*
X161683691Y-104130000D01*
X162274250Y-104130000D01*
X162433000Y-103971250D01*
X162433000Y-102997000D01*
X162687000Y-102997000D01*
X162687000Y-103971250D01*
X162845750Y-104130000D01*
X163436309Y-104130000D01*
X163669698Y-104033327D01*
X163848327Y-103854699D01*
X163945000Y-103621310D01*
X163945000Y-103155750D01*
X163786250Y-102997000D01*
X162687000Y-102997000D01*
X162433000Y-102997000D01*
X162413000Y-102997000D01*
X162413000Y-102743000D01*
X162433000Y-102743000D01*
X162433000Y-101768750D01*
X162687000Y-101768750D01*
X162687000Y-102743000D01*
X163786250Y-102743000D01*
X163945000Y-102584250D01*
X163945000Y-102118690D01*
X163848327Y-101885301D01*
X163669698Y-101706673D01*
X163436309Y-101610000D01*
X162845750Y-101610000D01*
X162687000Y-101768750D01*
X162433000Y-101768750D01*
X162274250Y-101610000D01*
X161683691Y-101610000D01*
X161450302Y-101706673D01*
X161309064Y-101847910D01*
X161274090Y-101793559D01*
X161061890Y-101648569D01*
X160810000Y-101597560D01*
X159310000Y-101597560D01*
X159074683Y-101641838D01*
X158858559Y-101780910D01*
X158713569Y-101993110D01*
X158689898Y-102110000D01*
X158542730Y-102110000D01*
X158542730Y-100455000D01*
X161378258Y-100455000D01*
X161401838Y-100580317D01*
X161540910Y-100796441D01*
X161753110Y-100941431D01*
X162005000Y-100992440D01*
X164005000Y-100992440D01*
X164240317Y-100948162D01*
X164456441Y-100809090D01*
X164601431Y-100596890D01*
X164652440Y-100345000D01*
X164652440Y-99045000D01*
X164608162Y-98809683D01*
X164469090Y-98593559D01*
X164329250Y-98498010D01*
X164364698Y-98483327D01*
X164543327Y-98304699D01*
X164640000Y-98071310D01*
X164640000Y-97580750D01*
X164481250Y-97422000D01*
X163132000Y-97422000D01*
X163132000Y-97442000D01*
X162878000Y-97442000D01*
X162878000Y-97422000D01*
X161528750Y-97422000D01*
X161370000Y-97580750D01*
X161370000Y-98071310D01*
X161466673Y-98304699D01*
X161645302Y-98483327D01*
X161681747Y-98498423D01*
X161553559Y-98580910D01*
X161408569Y-98793110D01*
X161379836Y-98935000D01*
X155494782Y-98935000D01*
X155480102Y-98920320D01*
X155480142Y-98874833D01*
X155338097Y-98531057D01*
X155075307Y-98267808D01*
X154731779Y-98125162D01*
X154359813Y-98124838D01*
X154016037Y-98266883D01*
X153752788Y-98529673D01*
X153610142Y-98873201D01*
X153609818Y-99245167D01*
X153751863Y-99588943D01*
X153784980Y-99622118D01*
X153784980Y-102042990D01*
X153842832Y-102333829D01*
X154007579Y-102580391D01*
X155007309Y-103580121D01*
X155147270Y-103673640D01*
X155147270Y-105843070D01*
X155161369Y-105918000D01*
X149352000Y-105918000D01*
X149352000Y-93530167D01*
X152099838Y-93530167D01*
X152241883Y-93873943D01*
X152504673Y-94137192D01*
X152848201Y-94279838D01*
X153220167Y-94280162D01*
X153563943Y-94138117D01*
X153597118Y-94105000D01*
X155147270Y-94105000D01*
X155147270Y-96145350D01*
X155191548Y-96380667D01*
X155330620Y-96596791D01*
X155542820Y-96741781D01*
X155794710Y-96792790D01*
X157895290Y-96792790D01*
X158130607Y-96748512D01*
X158346731Y-96609440D01*
X158408737Y-96518690D01*
X161370000Y-96518690D01*
X161370000Y-97009250D01*
X161528750Y-97168000D01*
X162878000Y-97168000D01*
X162878000Y-96168750D01*
X163132000Y-96168750D01*
X163132000Y-97168000D01*
X164481250Y-97168000D01*
X164640000Y-97009250D01*
X164640000Y-96645000D01*
X165357560Y-96645000D01*
X165357560Y-97945000D01*
X165401838Y-98180317D01*
X165540910Y-98396441D01*
X165686083Y-98495633D01*
X165553559Y-98580910D01*
X165408569Y-98793110D01*
X165357560Y-99045000D01*
X165357560Y-100345000D01*
X165401838Y-100580317D01*
X165540910Y-100796441D01*
X165753110Y-100941431D01*
X166005000Y-100992440D01*
X168005000Y-100992440D01*
X168240317Y-100948162D01*
X168456441Y-100809090D01*
X168601431Y-100596890D01*
X168652440Y-100345000D01*
X168652440Y-99045000D01*
X168608162Y-98809683D01*
X168469090Y-98593559D01*
X168323917Y-98494367D01*
X168456441Y-98409090D01*
X168601431Y-98196890D01*
X168652440Y-97945000D01*
X168652440Y-96645000D01*
X168608162Y-96409683D01*
X168469090Y-96193559D01*
X168256890Y-96048569D01*
X168005000Y-95997560D01*
X166005000Y-95997560D01*
X165769683Y-96041838D01*
X165553559Y-96180910D01*
X165408569Y-96393110D01*
X165357560Y-96645000D01*
X164640000Y-96645000D01*
X164640000Y-96518690D01*
X164543327Y-96285301D01*
X164364698Y-96106673D01*
X164131309Y-96010000D01*
X163290750Y-96010000D01*
X163132000Y-96168750D01*
X162878000Y-96168750D01*
X162719250Y-96010000D01*
X161878691Y-96010000D01*
X161645302Y-96106673D01*
X161466673Y-96285301D01*
X161370000Y-96518690D01*
X158408737Y-96518690D01*
X158491721Y-96397240D01*
X158542730Y-96145350D01*
X158542730Y-94740000D01*
X159322962Y-94740000D01*
X159341838Y-94840317D01*
X159480910Y-95056441D01*
X159693110Y-95201431D01*
X159945000Y-95252440D01*
X161445000Y-95252440D01*
X161680317Y-95208162D01*
X161896441Y-95069090D01*
X161942969Y-95000994D01*
X162085302Y-95143327D01*
X162318691Y-95240000D01*
X162909250Y-95240000D01*
X163068000Y-95081250D01*
X163068000Y-94107000D01*
X163322000Y-94107000D01*
X163322000Y-95081250D01*
X163480750Y-95240000D01*
X164071309Y-95240000D01*
X164304698Y-95143327D01*
X164483327Y-94964699D01*
X164580000Y-94731310D01*
X164580000Y-94265750D01*
X164421250Y-94107000D01*
X163322000Y-94107000D01*
X163068000Y-94107000D01*
X163048000Y-94107000D01*
X163048000Y-93853000D01*
X163068000Y-93853000D01*
X163068000Y-92878750D01*
X163322000Y-92878750D01*
X163322000Y-93853000D01*
X164421250Y-93853000D01*
X164580000Y-93694250D01*
X164580000Y-93228690D01*
X164483327Y-92995301D01*
X164304698Y-92816673D01*
X164071309Y-92720000D01*
X163480750Y-92720000D01*
X163322000Y-92878750D01*
X163068000Y-92878750D01*
X162909250Y-92720000D01*
X162318691Y-92720000D01*
X162085302Y-92816673D01*
X161944064Y-92957910D01*
X161909090Y-92903559D01*
X161696890Y-92758569D01*
X161445000Y-92707560D01*
X159945000Y-92707560D01*
X159709683Y-92751838D01*
X159493559Y-92890910D01*
X159348569Y-93103110D01*
X159324898Y-93220000D01*
X158542730Y-93220000D01*
X158542730Y-90544650D01*
X158498452Y-90309333D01*
X158359380Y-90093209D01*
X158147180Y-89948219D01*
X157895290Y-89897210D01*
X155794710Y-89897210D01*
X155559393Y-89941488D01*
X155343269Y-90080560D01*
X155198279Y-90292760D01*
X155147270Y-90544650D01*
X155147270Y-92585000D01*
X153597463Y-92585000D01*
X153565327Y-92552808D01*
X153221799Y-92410162D01*
X152849833Y-92409838D01*
X152506057Y-92551883D01*
X152242808Y-92814673D01*
X152100162Y-93158201D01*
X152099838Y-93530167D01*
X149352000Y-93530167D01*
X149352000Y-84179027D01*
X152215032Y-84179027D01*
X152463179Y-84708490D01*
X152895053Y-85102688D01*
X153310974Y-85274958D01*
X153543000Y-85153817D01*
X153543000Y-83947000D01*
X152335531Y-83947000D01*
X152215032Y-84179027D01*
X149352000Y-84179027D01*
X149352000Y-78555255D01*
X165506400Y-78555255D01*
X165506400Y-78924745D01*
X165620474Y-79498234D01*
X165945330Y-79984415D01*
X166431511Y-80309271D01*
X167005000Y-80423345D01*
X167578489Y-80309271D01*
X168064670Y-79984415D01*
X168275000Y-79669634D01*
X168485330Y-79984415D01*
X168971511Y-80309271D01*
X169545000Y-80423345D01*
X170118489Y-80309271D01*
X170604670Y-79984415D01*
X170619500Y-79962220D01*
X170683073Y-80115698D01*
X170861701Y-80294327D01*
X171095090Y-80391000D01*
X171799250Y-80391000D01*
X171958000Y-80232250D01*
X171958000Y-78867000D01*
X172212000Y-78867000D01*
X172212000Y-80232250D01*
X172370750Y-80391000D01*
X173074910Y-80391000D01*
X173308299Y-80294327D01*
X173486927Y-80115698D01*
X173583600Y-79882309D01*
X173583600Y-79025750D01*
X173424850Y-78867000D01*
X172212000Y-78867000D01*
X171958000Y-78867000D01*
X171938000Y-78867000D01*
X171938000Y-78613000D01*
X171958000Y-78613000D01*
X171958000Y-77247750D01*
X172212000Y-77247750D01*
X172212000Y-78613000D01*
X173424850Y-78613000D01*
X173583600Y-78454250D01*
X173583600Y-77597691D01*
X173486927Y-77364302D01*
X173308299Y-77185673D01*
X173074910Y-77089000D01*
X172370750Y-77089000D01*
X172212000Y-77247750D01*
X171958000Y-77247750D01*
X171799250Y-77089000D01*
X171095090Y-77089000D01*
X170861701Y-77185673D01*
X170683073Y-77364302D01*
X170619500Y-77517780D01*
X170604670Y-77495585D01*
X170118489Y-77170729D01*
X169545000Y-77056655D01*
X168971511Y-77170729D01*
X168485330Y-77495585D01*
X168275000Y-77810366D01*
X168064670Y-77495585D01*
X167578489Y-77170729D01*
X167005000Y-77056655D01*
X166431511Y-77170729D01*
X165945330Y-77495585D01*
X165620474Y-77981766D01*
X165506400Y-78555255D01*
X149352000Y-78555255D01*
X149352000Y-76962000D01*
X180848000Y-76962000D01*
X180848000Y-77254678D01*
M02*
