G04 #@! TF.FileFunction,Legend,Top*
%FSLAX46Y46*%
G04 Gerber Fmt 4.6, Leading zero omitted, Abs format (unit mm)*
G04 Created by KiCad (PCBNEW 4.0.2-stable) date 26.04.2016 00:44:30*
%MOMM*%
G01*
G04 APERTURE LIST*
%ADD10C,0.100000*%
%ADD11C,0.150000*%
G04 APERTURE END LIST*
D10*
D11*
X168390000Y-91835000D02*
X169590000Y-91835000D01*
X169590000Y-93585000D02*
X168390000Y-93585000D01*
X173470000Y-91835000D02*
X174670000Y-91835000D01*
X174670000Y-93585000D02*
X173470000Y-93585000D01*
X173470000Y-88025000D02*
X174670000Y-88025000D01*
X174670000Y-89775000D02*
X173470000Y-89775000D01*
X158070000Y-88025000D02*
X159270000Y-88025000D01*
X159270000Y-89775000D02*
X158070000Y-89775000D01*
X173550000Y-103265000D02*
X174750000Y-103265000D01*
X174750000Y-105015000D02*
X173550000Y-105015000D01*
X178405000Y-77190000D02*
X178405000Y-78740000D01*
X179705000Y-77190000D02*
X178405000Y-77190000D01*
X183896000Y-78613000D02*
X189738000Y-78613000D01*
X189738000Y-78613000D02*
X189738000Y-78867000D01*
X189738000Y-78867000D02*
X183896000Y-78867000D01*
X183896000Y-78867000D02*
X183896000Y-78740000D01*
X183896000Y-78740000D02*
X189738000Y-78740000D01*
X181229000Y-78486000D02*
X180848000Y-78486000D01*
X181229000Y-78994000D02*
X180848000Y-78994000D01*
X181229000Y-81026000D02*
X180848000Y-81026000D01*
X181229000Y-81534000D02*
X180848000Y-81534000D01*
X181229000Y-83566000D02*
X180848000Y-83566000D01*
X181229000Y-84074000D02*
X180848000Y-84074000D01*
X183769000Y-80010000D02*
X183769000Y-77470000D01*
X189865000Y-78994000D02*
X183769000Y-78994000D01*
X189865000Y-78486000D02*
X189865000Y-78994000D01*
X183769000Y-78486000D02*
X189865000Y-78486000D01*
X181229000Y-80010000D02*
X183769000Y-80010000D01*
X181229000Y-77470000D02*
X181229000Y-80010000D01*
X181229000Y-77470000D02*
X183769000Y-77470000D01*
X181229000Y-82550000D02*
X183769000Y-82550000D01*
X181229000Y-82550000D02*
X181229000Y-85090000D01*
X183769000Y-83566000D02*
X189865000Y-83566000D01*
X189865000Y-83566000D02*
X189865000Y-84074000D01*
X189865000Y-84074000D02*
X183769000Y-84074000D01*
X183769000Y-85090000D02*
X183769000Y-82550000D01*
X183769000Y-82550000D02*
X183769000Y-80010000D01*
X189865000Y-81534000D02*
X183769000Y-81534000D01*
X189865000Y-81026000D02*
X189865000Y-81534000D01*
X183769000Y-81026000D02*
X189865000Y-81026000D01*
X181229000Y-82550000D02*
X183769000Y-82550000D01*
X181229000Y-80010000D02*
X181229000Y-82550000D01*
X181229000Y-80010000D02*
X183769000Y-80010000D01*
X181229000Y-85090000D02*
X183769000Y-85090000D01*
X168390000Y-88025000D02*
X169590000Y-88025000D01*
X169590000Y-89775000D02*
X168390000Y-89775000D01*
X173470000Y-95645000D02*
X174670000Y-95645000D01*
X174670000Y-97395000D02*
X173470000Y-97395000D01*
X173470000Y-99455000D02*
X174670000Y-99455000D01*
X174670000Y-101205000D02*
X173470000Y-101205000D01*
X168390000Y-95645000D02*
X169590000Y-95645000D01*
X169590000Y-97395000D02*
X168390000Y-97395000D01*
X173470000Y-84215000D02*
X174670000Y-84215000D01*
X174670000Y-85965000D02*
X173470000Y-85965000D01*
X168390000Y-84215000D02*
X169590000Y-84215000D01*
X169590000Y-85965000D02*
X168390000Y-85965000D01*
X168390000Y-99455000D02*
X169590000Y-99455000D01*
X169590000Y-101205000D02*
X168390000Y-101205000D01*
X168390000Y-103265000D02*
X169590000Y-103265000D01*
X169590000Y-105015000D02*
X168390000Y-105015000D01*
X157480000Y-80010000D02*
X152400000Y-80010000D01*
X160300000Y-79730000D02*
X160300000Y-81280000D01*
X160020000Y-82550000D02*
X157480000Y-82550000D01*
X157480000Y-82550000D02*
X157480000Y-80010000D01*
X152400000Y-80010000D02*
X152400000Y-85090000D01*
X152400000Y-85090000D02*
X157480000Y-85090000D01*
X160300000Y-79730000D02*
X158750000Y-79730000D01*
X160020000Y-85090000D02*
X160020000Y-82550000D01*
X157480000Y-85090000D02*
X160020000Y-85090000D01*
X178405000Y-87350000D02*
X178405000Y-88900000D01*
X179705000Y-87350000D02*
X178405000Y-87350000D01*
X183896000Y-88773000D02*
X189738000Y-88773000D01*
X189738000Y-88773000D02*
X189738000Y-89027000D01*
X189738000Y-89027000D02*
X183896000Y-89027000D01*
X183896000Y-89027000D02*
X183896000Y-88900000D01*
X183896000Y-88900000D02*
X189738000Y-88900000D01*
X181229000Y-88646000D02*
X180848000Y-88646000D01*
X181229000Y-89154000D02*
X180848000Y-89154000D01*
X181229000Y-91186000D02*
X180848000Y-91186000D01*
X181229000Y-91694000D02*
X180848000Y-91694000D01*
X181229000Y-93726000D02*
X180848000Y-93726000D01*
X181229000Y-94234000D02*
X180848000Y-94234000D01*
X181229000Y-96266000D02*
X180848000Y-96266000D01*
X181229000Y-96774000D02*
X180848000Y-96774000D01*
X181229000Y-104394000D02*
X180848000Y-104394000D01*
X181229000Y-103886000D02*
X180848000Y-103886000D01*
X181229000Y-101854000D02*
X180848000Y-101854000D01*
X181229000Y-101346000D02*
X180848000Y-101346000D01*
X181229000Y-99314000D02*
X180848000Y-99314000D01*
X181229000Y-98806000D02*
X180848000Y-98806000D01*
X183769000Y-90170000D02*
X183769000Y-87630000D01*
X189865000Y-89154000D02*
X183769000Y-89154000D01*
X189865000Y-88646000D02*
X189865000Y-89154000D01*
X183769000Y-88646000D02*
X189865000Y-88646000D01*
X181229000Y-90170000D02*
X183769000Y-90170000D01*
X181229000Y-87630000D02*
X181229000Y-90170000D01*
X181229000Y-87630000D02*
X183769000Y-87630000D01*
X181229000Y-92710000D02*
X183769000Y-92710000D01*
X181229000Y-92710000D02*
X181229000Y-95250000D01*
X181229000Y-95250000D02*
X183769000Y-95250000D01*
X183769000Y-93726000D02*
X189865000Y-93726000D01*
X189865000Y-93726000D02*
X189865000Y-94234000D01*
X189865000Y-94234000D02*
X183769000Y-94234000D01*
X183769000Y-95250000D02*
X183769000Y-92710000D01*
X183769000Y-92710000D02*
X183769000Y-90170000D01*
X189865000Y-91694000D02*
X183769000Y-91694000D01*
X189865000Y-91186000D02*
X189865000Y-91694000D01*
X183769000Y-91186000D02*
X189865000Y-91186000D01*
X181229000Y-92710000D02*
X183769000Y-92710000D01*
X181229000Y-90170000D02*
X181229000Y-92710000D01*
X181229000Y-90170000D02*
X183769000Y-90170000D01*
X181229000Y-100330000D02*
X183769000Y-100330000D01*
X181229000Y-100330000D02*
X181229000Y-102870000D01*
X181229000Y-102870000D02*
X183769000Y-102870000D01*
X183769000Y-101346000D02*
X189865000Y-101346000D01*
X189865000Y-101346000D02*
X189865000Y-101854000D01*
X189865000Y-101854000D02*
X183769000Y-101854000D01*
X183769000Y-102870000D02*
X183769000Y-100330000D01*
X183769000Y-105410000D02*
X183769000Y-102870000D01*
X189865000Y-104394000D02*
X183769000Y-104394000D01*
X189865000Y-103886000D02*
X189865000Y-104394000D01*
X183769000Y-103886000D02*
X189865000Y-103886000D01*
X181229000Y-105410000D02*
X183769000Y-105410000D01*
X181229000Y-102870000D02*
X181229000Y-105410000D01*
X181229000Y-102870000D02*
X183769000Y-102870000D01*
X181229000Y-97790000D02*
X183769000Y-97790000D01*
X181229000Y-97790000D02*
X181229000Y-100330000D01*
X181229000Y-100330000D02*
X183769000Y-100330000D01*
X183769000Y-98806000D02*
X189865000Y-98806000D01*
X189865000Y-98806000D02*
X189865000Y-99314000D01*
X189865000Y-99314000D02*
X183769000Y-99314000D01*
X183769000Y-100330000D02*
X183769000Y-97790000D01*
X183769000Y-97790000D02*
X183769000Y-95250000D01*
X189865000Y-96774000D02*
X183769000Y-96774000D01*
X189865000Y-96266000D02*
X189865000Y-96774000D01*
X183769000Y-96266000D02*
X189865000Y-96266000D01*
X181229000Y-97790000D02*
X183769000Y-97790000D01*
X181229000Y-95250000D02*
X181229000Y-97790000D01*
X181229000Y-95250000D02*
X183769000Y-95250000D01*
X160845000Y-95435000D02*
X160520000Y-95435000D01*
X160845000Y-102685000D02*
X160520000Y-102685000D01*
X153595000Y-102685000D02*
X153920000Y-102685000D01*
X153595000Y-95435000D02*
X153920000Y-95435000D01*
X160845000Y-95435000D02*
X160845000Y-95760000D01*
X153595000Y-95435000D02*
X153595000Y-95760000D01*
X153595000Y-102685000D02*
X153595000Y-102360000D01*
X160845000Y-102685000D02*
X160845000Y-102360000D01*
X160520000Y-95435000D02*
X160520000Y-94010000D01*
X152290980Y-89650000D02*
X154990980Y-89650000D01*
X152290980Y-88150000D02*
X154990980Y-88150000D01*
X153790980Y-89050000D02*
X153790980Y-88800000D01*
X153790980Y-88800000D02*
X153640980Y-88950000D01*
X153540980Y-88550000D02*
X153540980Y-89250000D01*
X153890980Y-88900000D02*
X154240980Y-88900000D01*
X153540980Y-88900000D02*
X153890980Y-88550000D01*
X153890980Y-88550000D02*
X153890980Y-89250000D01*
X153890980Y-89250000D02*
X153540980Y-88900000D01*
X158000000Y-90590000D02*
X157000000Y-90590000D01*
X157000000Y-92290000D02*
X158000000Y-92290000D01*
X153170000Y-78955000D02*
X154170000Y-78955000D01*
X154170000Y-77255000D02*
X153170000Y-77255000D01*
X170815000Y-77470000D02*
X165735000Y-77470000D01*
X165735000Y-77470000D02*
X165735000Y-80010000D01*
X165735000Y-80010000D02*
X170815000Y-80010000D01*
X173635000Y-80290000D02*
X172085000Y-80290000D01*
X170815000Y-80010000D02*
X170815000Y-77470000D01*
X172085000Y-77190000D02*
X173635000Y-77190000D01*
X173635000Y-77190000D02*
X173635000Y-80290000D01*
X164705000Y-81395000D02*
X164705000Y-82595000D01*
X162955000Y-82595000D02*
X162955000Y-81395000D01*
X173390000Y-81040000D02*
X174590000Y-81040000D01*
X174590000Y-82790000D02*
X173390000Y-82790000D01*
X168823334Y-95262381D02*
X168490000Y-94786190D01*
X168251905Y-95262381D02*
X168251905Y-94262381D01*
X168632858Y-94262381D01*
X168728096Y-94310000D01*
X168775715Y-94357619D01*
X168823334Y-94452857D01*
X168823334Y-94595714D01*
X168775715Y-94690952D01*
X168728096Y-94738571D01*
X168632858Y-94786190D01*
X168251905Y-94786190D01*
X169394762Y-94690952D02*
X169299524Y-94643333D01*
X169251905Y-94595714D01*
X169204286Y-94500476D01*
X169204286Y-94452857D01*
X169251905Y-94357619D01*
X169299524Y-94310000D01*
X169394762Y-94262381D01*
X169585239Y-94262381D01*
X169680477Y-94310000D01*
X169728096Y-94357619D01*
X169775715Y-94452857D01*
X169775715Y-94500476D01*
X169728096Y-94595714D01*
X169680477Y-94643333D01*
X169585239Y-94690952D01*
X169394762Y-94690952D01*
X169299524Y-94738571D01*
X169251905Y-94786190D01*
X169204286Y-94881429D01*
X169204286Y-95071905D01*
X169251905Y-95167143D01*
X169299524Y-95214762D01*
X169394762Y-95262381D01*
X169585239Y-95262381D01*
X169680477Y-95214762D01*
X169728096Y-95167143D01*
X169775715Y-95071905D01*
X169775715Y-94881429D01*
X169728096Y-94786190D01*
X169680477Y-94738571D01*
X169585239Y-94690952D01*
X173903334Y-95262381D02*
X173570000Y-94786190D01*
X173331905Y-95262381D02*
X173331905Y-94262381D01*
X173712858Y-94262381D01*
X173808096Y-94310000D01*
X173855715Y-94357619D01*
X173903334Y-94452857D01*
X173903334Y-94595714D01*
X173855715Y-94690952D01*
X173808096Y-94738571D01*
X173712858Y-94786190D01*
X173331905Y-94786190D01*
X174236667Y-94262381D02*
X174903334Y-94262381D01*
X174474762Y-95262381D01*
X173903334Y-91452381D02*
X173570000Y-90976190D01*
X173331905Y-91452381D02*
X173331905Y-90452381D01*
X173712858Y-90452381D01*
X173808096Y-90500000D01*
X173855715Y-90547619D01*
X173903334Y-90642857D01*
X173903334Y-90785714D01*
X173855715Y-90880952D01*
X173808096Y-90928571D01*
X173712858Y-90976190D01*
X173331905Y-90976190D01*
X174808096Y-90452381D02*
X174331905Y-90452381D01*
X174284286Y-90928571D01*
X174331905Y-90880952D01*
X174427143Y-90833333D01*
X174665239Y-90833333D01*
X174760477Y-90880952D01*
X174808096Y-90928571D01*
X174855715Y-91023810D01*
X174855715Y-91261905D01*
X174808096Y-91357143D01*
X174760477Y-91404762D01*
X174665239Y-91452381D01*
X174427143Y-91452381D01*
X174331905Y-91404762D01*
X174284286Y-91357143D01*
X162393334Y-89352381D02*
X162060000Y-88876190D01*
X161821905Y-89352381D02*
X161821905Y-88352381D01*
X162202858Y-88352381D01*
X162298096Y-88400000D01*
X162345715Y-88447619D01*
X162393334Y-88542857D01*
X162393334Y-88685714D01*
X162345715Y-88780952D01*
X162298096Y-88828571D01*
X162202858Y-88876190D01*
X161821905Y-88876190D01*
X163345715Y-89352381D02*
X162774286Y-89352381D01*
X163060000Y-89352381D02*
X163060000Y-88352381D01*
X162964762Y-88495238D01*
X162869524Y-88590476D01*
X162774286Y-88638095D01*
X173507143Y-106497381D02*
X173173809Y-106021190D01*
X172935714Y-106497381D02*
X172935714Y-105497381D01*
X173316667Y-105497381D01*
X173411905Y-105545000D01*
X173459524Y-105592619D01*
X173507143Y-105687857D01*
X173507143Y-105830714D01*
X173459524Y-105925952D01*
X173411905Y-105973571D01*
X173316667Y-106021190D01*
X172935714Y-106021190D01*
X174459524Y-106497381D02*
X173888095Y-106497381D01*
X174173809Y-106497381D02*
X174173809Y-105497381D01*
X174078571Y-105640238D01*
X173983333Y-105735476D01*
X173888095Y-105783095D01*
X174792857Y-105497381D02*
X175411905Y-105497381D01*
X175078571Y-105878333D01*
X175221429Y-105878333D01*
X175316667Y-105925952D01*
X175364286Y-105973571D01*
X175411905Y-106068810D01*
X175411905Y-106306905D01*
X175364286Y-106402143D01*
X175316667Y-106449762D01*
X175221429Y-106497381D01*
X174935714Y-106497381D01*
X174840476Y-106449762D01*
X174792857Y-106402143D01*
X176426905Y-78557381D02*
X176426905Y-77557381D01*
X176807858Y-77557381D01*
X176903096Y-77605000D01*
X176950715Y-77652619D01*
X176998334Y-77747857D01*
X176998334Y-77890714D01*
X176950715Y-77985952D01*
X176903096Y-78033571D01*
X176807858Y-78081190D01*
X176426905Y-78081190D01*
X177379286Y-77652619D02*
X177426905Y-77605000D01*
X177522143Y-77557381D01*
X177760239Y-77557381D01*
X177855477Y-77605000D01*
X177903096Y-77652619D01*
X177950715Y-77747857D01*
X177950715Y-77843095D01*
X177903096Y-77985952D01*
X177331667Y-78557381D01*
X177950715Y-78557381D01*
X168823334Y-91452381D02*
X168490000Y-90976190D01*
X168251905Y-91452381D02*
X168251905Y-90452381D01*
X168632858Y-90452381D01*
X168728096Y-90500000D01*
X168775715Y-90547619D01*
X168823334Y-90642857D01*
X168823334Y-90785714D01*
X168775715Y-90880952D01*
X168728096Y-90928571D01*
X168632858Y-90976190D01*
X168251905Y-90976190D01*
X169680477Y-90452381D02*
X169490000Y-90452381D01*
X169394762Y-90500000D01*
X169347143Y-90547619D01*
X169251905Y-90690476D01*
X169204286Y-90880952D01*
X169204286Y-91261905D01*
X169251905Y-91357143D01*
X169299524Y-91404762D01*
X169394762Y-91452381D01*
X169585239Y-91452381D01*
X169680477Y-91404762D01*
X169728096Y-91357143D01*
X169775715Y-91261905D01*
X169775715Y-91023810D01*
X169728096Y-90928571D01*
X169680477Y-90880952D01*
X169585239Y-90833333D01*
X169394762Y-90833333D01*
X169299524Y-90880952D01*
X169251905Y-90928571D01*
X169204286Y-91023810D01*
X173903334Y-99072381D02*
X173570000Y-98596190D01*
X173331905Y-99072381D02*
X173331905Y-98072381D01*
X173712858Y-98072381D01*
X173808096Y-98120000D01*
X173855715Y-98167619D01*
X173903334Y-98262857D01*
X173903334Y-98405714D01*
X173855715Y-98500952D01*
X173808096Y-98548571D01*
X173712858Y-98596190D01*
X173331905Y-98596190D01*
X174379524Y-99072381D02*
X174570000Y-99072381D01*
X174665239Y-99024762D01*
X174712858Y-98977143D01*
X174808096Y-98834286D01*
X174855715Y-98643810D01*
X174855715Y-98262857D01*
X174808096Y-98167619D01*
X174760477Y-98120000D01*
X174665239Y-98072381D01*
X174474762Y-98072381D01*
X174379524Y-98120000D01*
X174331905Y-98167619D01*
X174284286Y-98262857D01*
X174284286Y-98500952D01*
X174331905Y-98596190D01*
X174379524Y-98643810D01*
X174474762Y-98691429D01*
X174665239Y-98691429D01*
X174760477Y-98643810D01*
X174808096Y-98596190D01*
X174855715Y-98500952D01*
X173427143Y-102882381D02*
X173093809Y-102406190D01*
X172855714Y-102882381D02*
X172855714Y-101882381D01*
X173236667Y-101882381D01*
X173331905Y-101930000D01*
X173379524Y-101977619D01*
X173427143Y-102072857D01*
X173427143Y-102215714D01*
X173379524Y-102310952D01*
X173331905Y-102358571D01*
X173236667Y-102406190D01*
X172855714Y-102406190D01*
X174379524Y-102882381D02*
X173808095Y-102882381D01*
X174093809Y-102882381D02*
X174093809Y-101882381D01*
X173998571Y-102025238D01*
X173903333Y-102120476D01*
X173808095Y-102168095D01*
X175331905Y-102882381D02*
X174760476Y-102882381D01*
X175046190Y-102882381D02*
X175046190Y-101882381D01*
X174950952Y-102025238D01*
X174855714Y-102120476D01*
X174760476Y-102168095D01*
X168347143Y-99072381D02*
X168013809Y-98596190D01*
X167775714Y-99072381D02*
X167775714Y-98072381D01*
X168156667Y-98072381D01*
X168251905Y-98120000D01*
X168299524Y-98167619D01*
X168347143Y-98262857D01*
X168347143Y-98405714D01*
X168299524Y-98500952D01*
X168251905Y-98548571D01*
X168156667Y-98596190D01*
X167775714Y-98596190D01*
X169299524Y-99072381D02*
X168728095Y-99072381D01*
X169013809Y-99072381D02*
X169013809Y-98072381D01*
X168918571Y-98215238D01*
X168823333Y-98310476D01*
X168728095Y-98358095D01*
X169918571Y-98072381D02*
X170013810Y-98072381D01*
X170109048Y-98120000D01*
X170156667Y-98167619D01*
X170204286Y-98262857D01*
X170251905Y-98453333D01*
X170251905Y-98691429D01*
X170204286Y-98881905D01*
X170156667Y-98977143D01*
X170109048Y-99024762D01*
X170013810Y-99072381D01*
X169918571Y-99072381D01*
X169823333Y-99024762D01*
X169775714Y-98977143D01*
X169728095Y-98881905D01*
X169680476Y-98691429D01*
X169680476Y-98453333D01*
X169728095Y-98262857D01*
X169775714Y-98167619D01*
X169823333Y-98120000D01*
X169918571Y-98072381D01*
X173903334Y-87642381D02*
X173570000Y-87166190D01*
X173331905Y-87642381D02*
X173331905Y-86642381D01*
X173712858Y-86642381D01*
X173808096Y-86690000D01*
X173855715Y-86737619D01*
X173903334Y-86832857D01*
X173903334Y-86975714D01*
X173855715Y-87070952D01*
X173808096Y-87118571D01*
X173712858Y-87166190D01*
X173331905Y-87166190D01*
X174284286Y-86737619D02*
X174331905Y-86690000D01*
X174427143Y-86642381D01*
X174665239Y-86642381D01*
X174760477Y-86690000D01*
X174808096Y-86737619D01*
X174855715Y-86832857D01*
X174855715Y-86928095D01*
X174808096Y-87070952D01*
X174236667Y-87642381D01*
X174855715Y-87642381D01*
X168823334Y-87642381D02*
X168490000Y-87166190D01*
X168251905Y-87642381D02*
X168251905Y-86642381D01*
X168632858Y-86642381D01*
X168728096Y-86690000D01*
X168775715Y-86737619D01*
X168823334Y-86832857D01*
X168823334Y-86975714D01*
X168775715Y-87070952D01*
X168728096Y-87118571D01*
X168632858Y-87166190D01*
X168251905Y-87166190D01*
X169156667Y-86642381D02*
X169775715Y-86642381D01*
X169442381Y-87023333D01*
X169585239Y-87023333D01*
X169680477Y-87070952D01*
X169728096Y-87118571D01*
X169775715Y-87213810D01*
X169775715Y-87451905D01*
X169728096Y-87547143D01*
X169680477Y-87594762D01*
X169585239Y-87642381D01*
X169299524Y-87642381D01*
X169204286Y-87594762D01*
X169156667Y-87547143D01*
X168347143Y-102882381D02*
X168013809Y-102406190D01*
X167775714Y-102882381D02*
X167775714Y-101882381D01*
X168156667Y-101882381D01*
X168251905Y-101930000D01*
X168299524Y-101977619D01*
X168347143Y-102072857D01*
X168347143Y-102215714D01*
X168299524Y-102310952D01*
X168251905Y-102358571D01*
X168156667Y-102406190D01*
X167775714Y-102406190D01*
X169299524Y-102882381D02*
X168728095Y-102882381D01*
X169013809Y-102882381D02*
X169013809Y-101882381D01*
X168918571Y-102025238D01*
X168823333Y-102120476D01*
X168728095Y-102168095D01*
X169680476Y-101977619D02*
X169728095Y-101930000D01*
X169823333Y-101882381D01*
X170061429Y-101882381D01*
X170156667Y-101930000D01*
X170204286Y-101977619D01*
X170251905Y-102072857D01*
X170251905Y-102168095D01*
X170204286Y-102310952D01*
X169632857Y-102882381D01*
X170251905Y-102882381D01*
X168347143Y-106497381D02*
X168013809Y-106021190D01*
X167775714Y-106497381D02*
X167775714Y-105497381D01*
X168156667Y-105497381D01*
X168251905Y-105545000D01*
X168299524Y-105592619D01*
X168347143Y-105687857D01*
X168347143Y-105830714D01*
X168299524Y-105925952D01*
X168251905Y-105973571D01*
X168156667Y-106021190D01*
X167775714Y-106021190D01*
X169299524Y-106497381D02*
X168728095Y-106497381D01*
X169013809Y-106497381D02*
X169013809Y-105497381D01*
X168918571Y-105640238D01*
X168823333Y-105735476D01*
X168728095Y-105783095D01*
X170156667Y-105830714D02*
X170156667Y-106497381D01*
X169918571Y-105449762D02*
X169680476Y-106164048D01*
X170299524Y-106164048D01*
X157376905Y-78557381D02*
X157376905Y-77557381D01*
X157757858Y-77557381D01*
X157853096Y-77605000D01*
X157900715Y-77652619D01*
X157948334Y-77747857D01*
X157948334Y-77890714D01*
X157900715Y-77985952D01*
X157853096Y-78033571D01*
X157757858Y-78081190D01*
X157376905Y-78081190D01*
X158900715Y-78557381D02*
X158329286Y-78557381D01*
X158615000Y-78557381D02*
X158615000Y-77557381D01*
X158519762Y-77700238D01*
X158424524Y-77795476D01*
X158329286Y-77843095D01*
X177061905Y-106497381D02*
X177061905Y-105497381D01*
X177442858Y-105497381D01*
X177538096Y-105545000D01*
X177585715Y-105592619D01*
X177633334Y-105687857D01*
X177633334Y-105830714D01*
X177585715Y-105925952D01*
X177538096Y-105973571D01*
X177442858Y-106021190D01*
X177061905Y-106021190D01*
X177966667Y-105497381D02*
X178585715Y-105497381D01*
X178252381Y-105878333D01*
X178395239Y-105878333D01*
X178490477Y-105925952D01*
X178538096Y-105973571D01*
X178585715Y-106068810D01*
X178585715Y-106306905D01*
X178538096Y-106402143D01*
X178490477Y-106449762D01*
X178395239Y-106497381D01*
X178109524Y-106497381D01*
X178014286Y-106449762D01*
X177966667Y-106402143D01*
X159202381Y-99401190D02*
X158202381Y-99401190D01*
X159107143Y-98353571D02*
X159154762Y-98401190D01*
X159202381Y-98544047D01*
X159202381Y-98639285D01*
X159154762Y-98782143D01*
X159059524Y-98877381D01*
X158964286Y-98925000D01*
X158773810Y-98972619D01*
X158630952Y-98972619D01*
X158440476Y-98925000D01*
X158345238Y-98877381D01*
X158250000Y-98782143D01*
X158202381Y-98639285D01*
X158202381Y-98544047D01*
X158250000Y-98401190D01*
X158297619Y-98353571D01*
X159202381Y-97401190D02*
X159202381Y-97972619D01*
X159202381Y-97686905D02*
X158202381Y-97686905D01*
X158345238Y-97782143D01*
X158440476Y-97877381D01*
X158488095Y-97972619D01*
X153152885Y-87602381D02*
X153152885Y-86602381D01*
X153390980Y-86602381D01*
X153533838Y-86650000D01*
X153629076Y-86745238D01*
X153676695Y-86840476D01*
X153724314Y-87030952D01*
X153724314Y-87173810D01*
X153676695Y-87364286D01*
X153629076Y-87459524D01*
X153533838Y-87554762D01*
X153390980Y-87602381D01*
X153152885Y-87602381D01*
X154676695Y-87602381D02*
X154105266Y-87602381D01*
X154390980Y-87602381D02*
X154390980Y-86602381D01*
X154295742Y-86745238D01*
X154200504Y-86840476D01*
X154105266Y-86888095D01*
X154138334Y-91797143D02*
X154090715Y-91844762D01*
X153947858Y-91892381D01*
X153852620Y-91892381D01*
X153709762Y-91844762D01*
X153614524Y-91749524D01*
X153566905Y-91654286D01*
X153519286Y-91463810D01*
X153519286Y-91320952D01*
X153566905Y-91130476D01*
X153614524Y-91035238D01*
X153709762Y-90940000D01*
X153852620Y-90892381D01*
X153947858Y-90892381D01*
X154090715Y-90940000D01*
X154138334Y-90987619D01*
X155090715Y-91892381D02*
X154519286Y-91892381D01*
X154805000Y-91892381D02*
X154805000Y-90892381D01*
X154709762Y-91035238D01*
X154614524Y-91130476D01*
X154519286Y-91178095D01*
X150308334Y-78462143D02*
X150260715Y-78509762D01*
X150117858Y-78557381D01*
X150022620Y-78557381D01*
X149879762Y-78509762D01*
X149784524Y-78414524D01*
X149736905Y-78319286D01*
X149689286Y-78128810D01*
X149689286Y-77985952D01*
X149736905Y-77795476D01*
X149784524Y-77700238D01*
X149879762Y-77605000D01*
X150022620Y-77557381D01*
X150117858Y-77557381D01*
X150260715Y-77605000D01*
X150308334Y-77652619D01*
X150641667Y-77557381D02*
X151260715Y-77557381D01*
X150927381Y-77938333D01*
X151070239Y-77938333D01*
X151165477Y-77985952D01*
X151213096Y-78033571D01*
X151260715Y-78128810D01*
X151260715Y-78366905D01*
X151213096Y-78462143D01*
X151165477Y-78509762D01*
X151070239Y-78557381D01*
X150784524Y-78557381D01*
X150689286Y-78509762D01*
X150641667Y-78462143D01*
X175712381Y-79478095D02*
X174712381Y-79478095D01*
X174712381Y-79097142D01*
X174760000Y-79001904D01*
X174807619Y-78954285D01*
X174902857Y-78906666D01*
X175045714Y-78906666D01*
X175140952Y-78954285D01*
X175188571Y-79001904D01*
X175236190Y-79097142D01*
X175236190Y-79478095D01*
X175045714Y-78049523D02*
X175712381Y-78049523D01*
X174664762Y-78287619D02*
X175379048Y-78525714D01*
X175379048Y-77906666D01*
X162182381Y-83827857D02*
X161706190Y-84161191D01*
X162182381Y-84399286D02*
X161182381Y-84399286D01*
X161182381Y-84018333D01*
X161230000Y-83923095D01*
X161277619Y-83875476D01*
X161372857Y-83827857D01*
X161515714Y-83827857D01*
X161610952Y-83875476D01*
X161658571Y-83923095D01*
X161706190Y-84018333D01*
X161706190Y-84399286D01*
X162182381Y-82875476D02*
X162182381Y-83446905D01*
X162182381Y-83161191D02*
X161182381Y-83161191D01*
X161325238Y-83256429D01*
X161420476Y-83351667D01*
X161468095Y-83446905D01*
X161182381Y-82018333D02*
X161182381Y-82208810D01*
X161230000Y-82304048D01*
X161277619Y-82351667D01*
X161420476Y-82446905D01*
X161610952Y-82494524D01*
X161991905Y-82494524D01*
X162087143Y-82446905D01*
X162134762Y-82399286D01*
X162182381Y-82304048D01*
X162182381Y-82113571D01*
X162134762Y-82018333D01*
X162087143Y-81970714D01*
X161991905Y-81923095D01*
X161753810Y-81923095D01*
X161658571Y-81970714D01*
X161610952Y-82018333D01*
X161563333Y-82113571D01*
X161563333Y-82304048D01*
X161610952Y-82399286D01*
X161658571Y-82446905D01*
X161753810Y-82494524D01*
X177617381Y-82557857D02*
X177141190Y-82891191D01*
X177617381Y-83129286D02*
X176617381Y-83129286D01*
X176617381Y-82748333D01*
X176665000Y-82653095D01*
X176712619Y-82605476D01*
X176807857Y-82557857D01*
X176950714Y-82557857D01*
X177045952Y-82605476D01*
X177093571Y-82653095D01*
X177141190Y-82748333D01*
X177141190Y-83129286D01*
X177617381Y-81605476D02*
X177617381Y-82176905D01*
X177617381Y-81891191D02*
X176617381Y-81891191D01*
X176760238Y-81986429D01*
X176855476Y-82081667D01*
X176903095Y-82176905D01*
X176617381Y-81272143D02*
X176617381Y-80605476D01*
X177617381Y-81034048D01*
M02*
