M48
;DRILL file {KiCad 4.0.2-stable} date 26.04.2016 00:43:06
;FORMAT={-:-/ absolute / metric / decimal}
FMAT,2
METRIC,TZ
T1C0.400
T2C1.016
%
G90
G05
M71
T1
X153.035Y-93.345
X154.545Y-99.06
X161.29Y-81.28
X161.885Y-92.075
X165.1Y-101.6
X165.1Y-104.14
X165.735Y-81.915
X167.045Y-87.2
X170.18Y-81.915
T2
X153.67Y-81.28
X153.67Y-83.82
X156.21Y-81.28
X156.21Y-83.82
X158.75Y-81.28
X158.75Y-83.82
X167.005Y-78.74
X169.545Y-78.74
X172.085Y-78.74
X179.705Y-78.74
X179.705Y-81.28
X179.705Y-83.82
X179.705Y-88.9
X179.705Y-91.44
X179.705Y-93.98
X179.705Y-96.52
X179.705Y-99.06
X179.705Y-101.6
X179.705Y-104.14
T0
M30
