G04 #@! TF.FileFunction,Legend,Bot*
%FSLAX46Y46*%
G04 Gerber Fmt 4.6, Leading zero omitted, Abs format (unit mm)*
G04 Created by KiCad (PCBNEW 4.0.2-stable) date 26.04.2016 00:44:30*
%MOMM*%
G01*
G04 APERTURE LIST*
%ADD10C,0.100000*%
%ADD11C,0.300000*%
%ADD12C,0.150000*%
G04 APERTURE END LIST*
D10*
D11*
X172198571Y-82463572D02*
X172127143Y-82320714D01*
X171984286Y-82249286D01*
X170698571Y-82249286D01*
X172198571Y-83035000D02*
X171198571Y-83035000D01*
X170698571Y-83035000D02*
X170770000Y-82963571D01*
X170841429Y-83035000D01*
X170770000Y-83106428D01*
X170698571Y-83035000D01*
X170841429Y-83035000D01*
X171198571Y-83749286D02*
X172698571Y-83749286D01*
X171270000Y-83749286D02*
X171198571Y-83892143D01*
X171198571Y-84177857D01*
X171270000Y-84320714D01*
X171341429Y-84392143D01*
X171484286Y-84463572D01*
X171912857Y-84463572D01*
X172055714Y-84392143D01*
X172127143Y-84320714D01*
X172198571Y-84177857D01*
X172198571Y-83892143D01*
X172127143Y-83749286D01*
X172198571Y-85320715D02*
X172127143Y-85177857D01*
X172055714Y-85106429D01*
X171912857Y-85035000D01*
X171484286Y-85035000D01*
X171341429Y-85106429D01*
X171270000Y-85177857D01*
X171198571Y-85320715D01*
X171198571Y-85535000D01*
X171270000Y-85677857D01*
X171341429Y-85749286D01*
X171484286Y-85820715D01*
X171912857Y-85820715D01*
X172055714Y-85749286D01*
X172127143Y-85677857D01*
X172198571Y-85535000D01*
X172198571Y-85320715D01*
X172127143Y-87535000D02*
X172198571Y-87677857D01*
X172198571Y-87963572D01*
X172127143Y-88106429D01*
X171984286Y-88177857D01*
X171912857Y-88177857D01*
X171770000Y-88106429D01*
X171698571Y-87963572D01*
X171698571Y-87749286D01*
X171627143Y-87606429D01*
X171484286Y-87535000D01*
X171412857Y-87535000D01*
X171270000Y-87606429D01*
X171198571Y-87749286D01*
X171198571Y-87963572D01*
X171270000Y-88106429D01*
X172127143Y-89392143D02*
X172198571Y-89249286D01*
X172198571Y-88963572D01*
X172127143Y-88820715D01*
X171984286Y-88749286D01*
X171412857Y-88749286D01*
X171270000Y-88820715D01*
X171198571Y-88963572D01*
X171198571Y-89249286D01*
X171270000Y-89392143D01*
X171412857Y-89463572D01*
X171555714Y-89463572D01*
X171698571Y-88749286D01*
X171198571Y-90106429D02*
X172198571Y-90106429D01*
X171341429Y-90106429D02*
X171270000Y-90177857D01*
X171198571Y-90320715D01*
X171198571Y-90535000D01*
X171270000Y-90677857D01*
X171412857Y-90749286D01*
X172198571Y-90749286D01*
X172127143Y-91392143D02*
X172198571Y-91535000D01*
X172198571Y-91820715D01*
X172127143Y-91963572D01*
X171984286Y-92035000D01*
X171912857Y-92035000D01*
X171770000Y-91963572D01*
X171698571Y-91820715D01*
X171698571Y-91606429D01*
X171627143Y-91463572D01*
X171484286Y-91392143D01*
X171412857Y-91392143D01*
X171270000Y-91463572D01*
X171198571Y-91606429D01*
X171198571Y-91820715D01*
X171270000Y-91963572D01*
X172198571Y-92892144D02*
X172127143Y-92749286D01*
X172055714Y-92677858D01*
X171912857Y-92606429D01*
X171484286Y-92606429D01*
X171341429Y-92677858D01*
X171270000Y-92749286D01*
X171198571Y-92892144D01*
X171198571Y-93106429D01*
X171270000Y-93249286D01*
X171341429Y-93320715D01*
X171484286Y-93392144D01*
X171912857Y-93392144D01*
X172055714Y-93320715D01*
X172127143Y-93249286D01*
X172198571Y-93106429D01*
X172198571Y-92892144D01*
X172198571Y-94035001D02*
X171198571Y-94035001D01*
X171484286Y-94035001D02*
X171341429Y-94106429D01*
X171270000Y-94177858D01*
X171198571Y-94320715D01*
X171198571Y-94463572D01*
X172198571Y-96892143D02*
X172198571Y-96035000D01*
X172198571Y-96463572D02*
X170698571Y-96463572D01*
X170912857Y-96320715D01*
X171055714Y-96177857D01*
X171127143Y-96035000D01*
X173241429Y-82249287D02*
X173170000Y-82320716D01*
X173098571Y-82463573D01*
X173098571Y-82820716D01*
X173170000Y-82963573D01*
X173241429Y-83035002D01*
X173384286Y-83106430D01*
X173527143Y-83106430D01*
X173741429Y-83035002D01*
X174598571Y-82177859D01*
X174598571Y-83106430D01*
X173098571Y-84035001D02*
X173098571Y-84177858D01*
X173170000Y-84320715D01*
X173241429Y-84392144D01*
X173384286Y-84463573D01*
X173670000Y-84535001D01*
X174027143Y-84535001D01*
X174312857Y-84463573D01*
X174455714Y-84392144D01*
X174527143Y-84320715D01*
X174598571Y-84177858D01*
X174598571Y-84035001D01*
X174527143Y-83892144D01*
X174455714Y-83820715D01*
X174312857Y-83749287D01*
X174027143Y-83677858D01*
X173670000Y-83677858D01*
X173384286Y-83749287D01*
X173241429Y-83820715D01*
X173170000Y-83892144D01*
X173098571Y-84035001D01*
X174598571Y-85963572D02*
X174598571Y-85106429D01*
X174598571Y-85535001D02*
X173098571Y-85535001D01*
X173312857Y-85392144D01*
X173455714Y-85249286D01*
X173527143Y-85106429D01*
X173098571Y-87249286D02*
X173098571Y-86963572D01*
X173170000Y-86820715D01*
X173241429Y-86749286D01*
X173455714Y-86606429D01*
X173741429Y-86535000D01*
X174312857Y-86535000D01*
X174455714Y-86606429D01*
X174527143Y-86677857D01*
X174598571Y-86820715D01*
X174598571Y-87106429D01*
X174527143Y-87249286D01*
X174455714Y-87320715D01*
X174312857Y-87392143D01*
X173955714Y-87392143D01*
X173812857Y-87320715D01*
X173741429Y-87249286D01*
X173670000Y-87106429D01*
X173670000Y-86820715D01*
X173741429Y-86677857D01*
X173812857Y-86606429D01*
X173955714Y-86535000D01*
X174027143Y-88035000D02*
X174027143Y-89177857D01*
X173098571Y-90177857D02*
X173098571Y-90320714D01*
X173170000Y-90463571D01*
X173241429Y-90535000D01*
X173384286Y-90606429D01*
X173670000Y-90677857D01*
X174027143Y-90677857D01*
X174312857Y-90606429D01*
X174455714Y-90535000D01*
X174527143Y-90463571D01*
X174598571Y-90320714D01*
X174598571Y-90177857D01*
X174527143Y-90035000D01*
X174455714Y-89963571D01*
X174312857Y-89892143D01*
X174027143Y-89820714D01*
X173670000Y-89820714D01*
X173384286Y-89892143D01*
X173241429Y-89963571D01*
X173170000Y-90035000D01*
X173098571Y-90177857D01*
X173598571Y-91963571D02*
X174598571Y-91963571D01*
X173027143Y-91606428D02*
X174098571Y-91249285D01*
X174098571Y-92177857D01*
X174027143Y-92749285D02*
X174027143Y-93892142D01*
X173241429Y-94534999D02*
X173170000Y-94606428D01*
X173098571Y-94749285D01*
X173098571Y-95106428D01*
X173170000Y-95249285D01*
X173241429Y-95320714D01*
X173384286Y-95392142D01*
X173527143Y-95392142D01*
X173741429Y-95320714D01*
X174598571Y-94463571D01*
X174598571Y-95392142D01*
X173098571Y-96677856D02*
X173098571Y-96392142D01*
X173170000Y-96249285D01*
X173241429Y-96177856D01*
X173455714Y-96034999D01*
X173741429Y-95963570D01*
X174312857Y-95963570D01*
X174455714Y-96034999D01*
X174527143Y-96106427D01*
X174598571Y-96249285D01*
X174598571Y-96534999D01*
X174527143Y-96677856D01*
X174455714Y-96749285D01*
X174312857Y-96820713D01*
X173955714Y-96820713D01*
X173812857Y-96749285D01*
X173741429Y-96677856D01*
X173670000Y-96534999D01*
X173670000Y-96249285D01*
X173741429Y-96106427D01*
X173812857Y-96034999D01*
X173955714Y-95963570D01*
D12*
X154345640Y-104043480D02*
X154345640Y-92344240D01*
X159344360Y-92344240D02*
X159344360Y-104043480D01*
X154345640Y-92344240D02*
X155194000Y-92344240D01*
X159344360Y-92344240D02*
X158496000Y-92344240D01*
X154345640Y-104043480D02*
X155194000Y-104043480D01*
X159344360Y-104043480D02*
X158496000Y-104043480D01*
X167605000Y-98695000D02*
X168305000Y-98695000D01*
X165705000Y-100195000D02*
X165705000Y-100695000D01*
X164302920Y-100195000D02*
X165705000Y-100195000D01*
X165706040Y-96795000D02*
X164303960Y-96795000D01*
X162405000Y-98695000D02*
X162405000Y-98295000D01*
X167605000Y-98695000D02*
X167605000Y-98295000D01*
X160810000Y-102020000D02*
X161810000Y-102020000D01*
X161810000Y-103720000D02*
X160810000Y-103720000D01*
X161445000Y-93130000D02*
X162445000Y-93130000D01*
X162445000Y-94830000D02*
X161445000Y-94830000D01*
X153646190Y-97717669D02*
X154122381Y-97717669D01*
X153122381Y-97384336D02*
X153646190Y-97717669D01*
X153122381Y-98051003D01*
X154122381Y-98908146D02*
X154122381Y-98336717D01*
X154122381Y-98622431D02*
X153122381Y-98622431D01*
X153265238Y-98527193D01*
X153360476Y-98431955D01*
X153408095Y-98336717D01*
X170354524Y-97877381D02*
X169687857Y-98877381D01*
X169687857Y-97877381D02*
X170354524Y-98877381D01*
X168783095Y-98877381D02*
X169354524Y-98877381D01*
X169068810Y-98877381D02*
X169068810Y-97877381D01*
X169164048Y-98020238D01*
X169259286Y-98115476D01*
X169354524Y-98163095D01*
X161456666Y-105132143D02*
X161504285Y-105179762D01*
X161647142Y-105227381D01*
X161742380Y-105227381D01*
X161885238Y-105179762D01*
X161980476Y-105084524D01*
X162028095Y-104989286D01*
X162075714Y-104798810D01*
X162075714Y-104655952D01*
X162028095Y-104465476D01*
X161980476Y-104370238D01*
X161885238Y-104275000D01*
X161742380Y-104227381D01*
X161647142Y-104227381D01*
X161504285Y-104275000D01*
X161456666Y-104322619D01*
X161075714Y-104322619D02*
X161028095Y-104275000D01*
X160932857Y-104227381D01*
X160694761Y-104227381D01*
X160599523Y-104275000D01*
X160551904Y-104322619D01*
X160504285Y-104417857D01*
X160504285Y-104513095D01*
X160551904Y-104655952D01*
X161123333Y-105227381D01*
X160504285Y-105227381D01*
X162111666Y-92237143D02*
X162159285Y-92284762D01*
X162302142Y-92332381D01*
X162397380Y-92332381D01*
X162540238Y-92284762D01*
X162635476Y-92189524D01*
X162683095Y-92094286D01*
X162730714Y-91903810D01*
X162730714Y-91760952D01*
X162683095Y-91570476D01*
X162635476Y-91475238D01*
X162540238Y-91380000D01*
X162397380Y-91332381D01*
X162302142Y-91332381D01*
X162159285Y-91380000D01*
X162111666Y-91427619D01*
X161206904Y-91332381D02*
X161683095Y-91332381D01*
X161730714Y-91808571D01*
X161683095Y-91760952D01*
X161587857Y-91713333D01*
X161349761Y-91713333D01*
X161254523Y-91760952D01*
X161206904Y-91808571D01*
X161159285Y-91903810D01*
X161159285Y-92141905D01*
X161206904Y-92237143D01*
X161254523Y-92284762D01*
X161349761Y-92332381D01*
X161587857Y-92332381D01*
X161683095Y-92284762D01*
X161730714Y-92237143D01*
M02*
