G04 #@! TF.FileFunction,Copper,L1,Top,Signal*
%FSLAX46Y46*%
G04 Gerber Fmt 4.6, Leading zero omitted, Abs format (unit mm)*
G04 Created by KiCad (PCBNEW 4.0.2-stable) date 26.04.2016 00:44:30*
%MOMM*%
G01*
G04 APERTURE LIST*
%ADD10C,0.100000*%
%ADD11R,1.500000X1.300000*%
%ADD12R,2.032000X1.727200*%
%ADD13O,2.032000X1.727200*%
%ADD14R,1.727200X1.727200*%
%ADD15O,1.727200X1.727200*%
%ADD16R,0.550000X1.600000*%
%ADD17R,1.600000X0.550000*%
%ADD18R,1.198880X1.198880*%
%ADD19R,1.500000X1.250000*%
%ADD20R,1.727200X2.032000*%
%ADD21O,1.727200X2.032000*%
%ADD22R,1.300000X1.500000*%
%ADD23C,0.600000*%
%ADD24C,0.250000*%
%ADD25C,0.254000*%
G04 APERTURE END LIST*
D10*
D11*
X170340000Y-92710000D03*
X167640000Y-92710000D03*
X175420000Y-92710000D03*
X172720000Y-92710000D03*
X175420000Y-88900000D03*
X172720000Y-88900000D03*
X160020000Y-88900000D03*
X157320000Y-88900000D03*
X175500000Y-104140000D03*
X172800000Y-104140000D03*
D12*
X179705000Y-78740000D03*
D13*
X179705000Y-81280000D03*
X179705000Y-83820000D03*
D11*
X170340000Y-88900000D03*
X167640000Y-88900000D03*
X175420000Y-96520000D03*
X172720000Y-96520000D03*
X175420000Y-100330000D03*
X172720000Y-100330000D03*
X170340000Y-96520000D03*
X167640000Y-96520000D03*
X175420000Y-85090000D03*
X172720000Y-85090000D03*
X170340000Y-85090000D03*
X167640000Y-85090000D03*
X170340000Y-100330000D03*
X167640000Y-100330000D03*
X170340000Y-104140000D03*
X167640000Y-104140000D03*
D14*
X158750000Y-81280000D03*
D15*
X158750000Y-83820000D03*
X156210000Y-81280000D03*
X156210000Y-83820000D03*
X153670000Y-81280000D03*
X153670000Y-83820000D03*
D12*
X179705000Y-88900000D03*
D13*
X179705000Y-91440000D03*
X179705000Y-93980000D03*
X179705000Y-96520000D03*
X179705000Y-99060000D03*
X179705000Y-101600000D03*
X179705000Y-104140000D03*
D16*
X160020000Y-94810000D03*
X159220000Y-94810000D03*
X158420000Y-94810000D03*
X157620000Y-94810000D03*
X156820000Y-94810000D03*
X156020000Y-94810000D03*
X155220000Y-94810000D03*
X154420000Y-94810000D03*
D17*
X152970000Y-96260000D03*
X152970000Y-97060000D03*
X152970000Y-97860000D03*
X152970000Y-98660000D03*
X152970000Y-99460000D03*
X152970000Y-100260000D03*
X152970000Y-101060000D03*
X152970000Y-101860000D03*
D16*
X154420000Y-103310000D03*
X155220000Y-103310000D03*
X156020000Y-103310000D03*
X156820000Y-103310000D03*
X157620000Y-103310000D03*
X158420000Y-103310000D03*
X159220000Y-103310000D03*
X160020000Y-103310000D03*
D17*
X161470000Y-101860000D03*
X161470000Y-101060000D03*
X161470000Y-100260000D03*
X161470000Y-99460000D03*
X161470000Y-98660000D03*
X161470000Y-97860000D03*
X161470000Y-97060000D03*
X161470000Y-96260000D03*
D18*
X154940000Y-88900000D03*
X152841960Y-88900000D03*
D19*
X156250000Y-91440000D03*
X158750000Y-91440000D03*
X154920000Y-78105000D03*
X152420000Y-78105000D03*
D20*
X172085000Y-78740000D03*
D21*
X169545000Y-78740000D03*
X167005000Y-78740000D03*
D22*
X163830000Y-83345000D03*
X163830000Y-80645000D03*
D11*
X175340000Y-81915000D03*
X172640000Y-81915000D03*
D23*
X161884980Y-92075000D03*
X165100000Y-101600000D03*
X165100000Y-104140000D03*
X167045020Y-87199979D03*
X161290000Y-81280000D03*
X170180000Y-81915000D03*
X165735000Y-81915000D03*
X154544980Y-99060000D03*
X153035000Y-93345000D03*
D24*
X151360033Y-100500033D02*
X151920000Y-101060000D01*
X151294989Y-99442113D02*
X151360033Y-99507157D01*
X151294988Y-95477888D02*
X151294989Y-99442113D01*
X151360033Y-95412843D02*
X151294988Y-95477888D01*
X154809477Y-85058601D02*
X151360033Y-88508045D01*
X151360033Y-88508045D02*
X151360033Y-95412843D01*
X156210000Y-83820000D02*
X154971399Y-85058601D01*
X154971399Y-85058601D02*
X154809477Y-85058601D01*
X151360033Y-99507157D02*
X151360033Y-100500033D01*
X151920000Y-101060000D02*
X152970000Y-101060000D01*
X179705000Y-83820000D02*
X179705000Y-84933600D01*
X179705000Y-84933600D02*
X181096010Y-86324610D01*
X181096010Y-86324610D02*
X181096010Y-90926951D01*
X168010000Y-83820000D02*
X167640000Y-84190000D01*
X167640000Y-84190000D02*
X167640000Y-85090000D01*
X154920000Y-78105000D02*
X155045000Y-78105000D01*
X155045000Y-78105000D02*
X155920000Y-77230000D01*
X155920000Y-77230000D02*
X170727400Y-77230000D01*
X170727400Y-77230000D02*
X172085000Y-78587600D01*
X172085000Y-78587600D02*
X172085000Y-78740000D01*
X172085000Y-78740000D02*
X173198600Y-78740000D01*
X173198600Y-78740000D02*
X174437201Y-77501399D01*
X174437201Y-77501399D02*
X181021001Y-77501399D01*
X181096010Y-82581390D02*
X179857400Y-83820000D01*
X181021001Y-77501399D02*
X181096010Y-77576408D01*
X181096010Y-77576408D02*
X181096010Y-82581390D01*
X179857400Y-83820000D02*
X179705000Y-83820000D01*
X158750000Y-91440000D02*
X161249980Y-91440000D01*
X161249980Y-91440000D02*
X161584981Y-91775001D01*
X161584981Y-91775001D02*
X161884980Y-92075000D01*
X156820000Y-94810000D02*
X156820000Y-95860000D01*
X158294999Y-95985001D02*
X158420000Y-95860000D01*
X158420000Y-95860000D02*
X158420000Y-94810000D01*
X156820000Y-95860000D02*
X156945001Y-95985001D01*
X156945001Y-95985001D02*
X158294999Y-95985001D01*
X158750000Y-91440000D02*
X158750000Y-92315000D01*
X158750000Y-92315000D02*
X158420000Y-92645000D01*
X158420000Y-92645000D02*
X158420000Y-93760000D01*
X158420000Y-93760000D02*
X158420000Y-94810000D01*
X156845000Y-94785000D02*
X156820000Y-94810000D01*
X181096010Y-93466951D02*
X181096010Y-90926951D01*
X180307660Y-90138601D02*
X178403601Y-90138601D01*
X176545001Y-87949999D02*
X176470001Y-87874999D01*
X181096010Y-90926951D02*
X180307660Y-90138601D01*
X178403601Y-90138601D02*
X176545001Y-88280001D01*
X176470001Y-87874999D02*
X168765001Y-87874999D01*
X176545001Y-88280001D02*
X176545001Y-87949999D01*
X168765001Y-87874999D02*
X167740000Y-88900000D01*
X167740000Y-88900000D02*
X167640000Y-88900000D01*
X181096010Y-96006951D02*
X181096010Y-93466951D01*
X168765001Y-91684999D02*
X167740000Y-92710000D01*
X181096010Y-93466951D02*
X180339059Y-92710000D01*
X180339059Y-92710000D02*
X177495002Y-92710000D01*
X177495002Y-92710000D02*
X176470001Y-91684999D01*
X176470001Y-91684999D02*
X168765001Y-91684999D01*
X167740000Y-92710000D02*
X167640000Y-92710000D01*
X179705000Y-104140000D02*
X180971000Y-104140000D01*
X180971000Y-104140000D02*
X181096010Y-104014990D01*
X181096010Y-104014990D02*
X181096010Y-96006951D01*
X181096010Y-96006951D02*
X180370449Y-95281390D01*
X180370449Y-95281390D02*
X168978610Y-95281390D01*
X168978610Y-95281390D02*
X167740000Y-96520000D01*
X167740000Y-96520000D02*
X167640000Y-96520000D01*
X165100000Y-101600000D02*
X167270000Y-101600000D01*
X167270000Y-101600000D02*
X167640000Y-101230000D01*
X167640000Y-101230000D02*
X167640000Y-100330000D01*
X165100000Y-104140000D02*
X167640000Y-104140000D01*
X179705000Y-83820000D02*
X168010000Y-83820000D01*
X158165011Y-105665011D02*
X157620000Y-105120000D01*
X157620000Y-105120000D02*
X157620000Y-103310000D01*
X179705000Y-104140000D02*
X179705000Y-105253600D01*
X179705000Y-105253600D02*
X179293589Y-105665011D01*
X179293589Y-105665011D02*
X158165011Y-105665011D01*
X165514976Y-91961390D02*
X165514976Y-91345782D01*
X165514976Y-91345782D02*
X166014988Y-90845770D01*
X166557897Y-87199979D02*
X166620756Y-87199979D01*
X164330010Y-93146356D02*
X165514976Y-91961390D01*
X166620756Y-87199979D02*
X167045020Y-87199979D01*
X166014988Y-87742888D02*
X166557897Y-87199979D01*
X166014988Y-90845770D02*
X166014988Y-87742888D01*
X161470000Y-98660000D02*
X162520000Y-98660000D01*
X164330010Y-96849990D02*
X164330010Y-93146356D01*
X162520000Y-98660000D02*
X164330010Y-96849990D01*
X161290000Y-81280000D02*
X163115000Y-81280000D01*
X163115000Y-81280000D02*
X163830000Y-80565000D01*
X150360012Y-101000014D02*
X152669998Y-103310000D01*
X150360011Y-99921379D02*
X150360012Y-101000014D01*
X150294969Y-99856337D02*
X150360011Y-99921379D01*
X150294968Y-95063668D02*
X150294969Y-99856337D01*
X150360011Y-82756859D02*
X150360011Y-94998625D01*
X153075471Y-80041399D02*
X150360011Y-82756859D01*
X156210000Y-81280000D02*
X154971399Y-80041399D01*
X154971399Y-80041399D02*
X153075471Y-80041399D01*
X150360011Y-94998625D02*
X150294968Y-95063668D01*
X152669998Y-103310000D02*
X153895000Y-103310000D01*
X153895000Y-103310000D02*
X154420000Y-103310000D01*
X153075471Y-82581399D02*
X150860022Y-84796848D01*
X150860022Y-84796848D02*
X150860022Y-95205732D01*
X150860022Y-100792902D02*
X151927120Y-101860000D01*
X158562201Y-82581399D02*
X153075471Y-82581399D01*
X150794979Y-99649225D02*
X150860022Y-99714268D01*
X158750000Y-82393600D02*
X158562201Y-82581399D01*
X150794978Y-95270778D02*
X150794979Y-99649225D01*
X151927120Y-101860000D02*
X152970000Y-101860000D01*
X158750000Y-81280000D02*
X158750000Y-82393600D01*
X150860022Y-95205732D02*
X150794978Y-95270778D01*
X150860022Y-99714268D02*
X150860022Y-100792902D01*
X179705000Y-81280000D02*
X175975000Y-81280000D01*
X175975000Y-81280000D02*
X175340000Y-81915000D01*
X155220000Y-96660000D02*
X155220000Y-102260000D01*
X156020000Y-94810000D02*
X156020000Y-95860000D01*
X156020000Y-95860000D02*
X155220000Y-96660000D01*
X155220000Y-102260000D02*
X155220000Y-103310000D01*
X158750000Y-83820000D02*
X163275000Y-83820000D01*
X163275000Y-83820000D02*
X163830000Y-83265000D01*
X157620000Y-94810000D02*
X157620000Y-92685000D01*
X157620000Y-92685000D02*
X156375000Y-91440000D01*
X156375000Y-91440000D02*
X156250000Y-91440000D01*
X156250000Y-91440000D02*
X156250000Y-92315000D01*
X156250000Y-92315000D02*
X156020000Y-92545000D01*
X156020000Y-92545000D02*
X156020000Y-93760000D01*
X156020000Y-93760000D02*
X156020000Y-94810000D01*
X160020000Y-88900000D02*
X159920000Y-88900000D01*
X159920000Y-88900000D02*
X158380001Y-90439999D01*
X158380001Y-90439999D02*
X157375001Y-90439999D01*
X157375001Y-90439999D02*
X156375000Y-91440000D01*
X156169999Y-94660001D02*
X156020000Y-94810000D01*
X160020000Y-86360000D02*
X160020000Y-88900000D01*
X158750000Y-85090000D02*
X160020000Y-86360000D01*
X158750000Y-83820000D02*
X158750000Y-85090000D01*
X179705000Y-101600000D02*
X177140000Y-101600000D01*
X177140000Y-101600000D02*
X175500000Y-103240000D01*
X175500000Y-103240000D02*
X175500000Y-104140000D01*
X179705000Y-93980000D02*
X175790000Y-93980000D01*
X175790000Y-93980000D02*
X175420000Y-93610000D01*
X175420000Y-93610000D02*
X175420000Y-92710000D01*
X179705000Y-96520000D02*
X175420000Y-96520000D01*
X179705000Y-99060000D02*
X175790000Y-99060000D01*
X175420000Y-99430000D02*
X175420000Y-100330000D01*
X175790000Y-99060000D02*
X175420000Y-99430000D01*
X152841960Y-89749440D02*
X151860044Y-90731356D01*
X151794999Y-95684999D02*
X151794999Y-99235001D01*
X151860044Y-95619954D02*
X151794999Y-95684999D01*
X152841960Y-88900000D02*
X152841960Y-89749440D01*
X151794999Y-99235001D02*
X152019998Y-99460000D01*
X152019998Y-99460000D02*
X152970000Y-99460000D01*
X151860044Y-90731356D02*
X151860044Y-95619954D01*
X172800000Y-104140000D02*
X170340000Y-104140000D01*
X169214999Y-105165001D02*
X160025001Y-105165001D01*
X160025001Y-105165001D02*
X159220000Y-104360000D01*
X159220000Y-104360000D02*
X159220000Y-103310000D01*
X170340000Y-104140000D02*
X170240000Y-104140000D01*
X170240000Y-104140000D02*
X169214999Y-105165001D01*
X170180000Y-81915000D02*
X172640000Y-81915000D01*
X165735000Y-83505760D02*
X165735000Y-81915000D01*
X160545000Y-94810000D02*
X164014945Y-91340055D01*
X164014945Y-85225820D02*
X165735000Y-83505760D01*
X160020000Y-94810000D02*
X160545000Y-94810000D01*
X164014945Y-91340055D02*
X164014945Y-85225820D01*
X172720000Y-100330000D02*
X170340000Y-100330000D01*
X167594999Y-102975001D02*
X160879999Y-102975001D01*
X160879999Y-102975001D02*
X160545000Y-103310000D01*
X160545000Y-103310000D02*
X160020000Y-103310000D01*
X170340000Y-100330000D02*
X170240000Y-100330000D01*
X170240000Y-100330000D02*
X167594999Y-102975001D01*
X172720000Y-96520000D02*
X170340000Y-96520000D01*
X167455001Y-99304999D02*
X165075001Y-99304999D01*
X165075001Y-99304999D02*
X162520000Y-101860000D01*
X162520000Y-101860000D02*
X161470000Y-101860000D01*
X170340000Y-96520000D02*
X170240000Y-96520000D01*
X170240000Y-96520000D02*
X167455001Y-99304999D01*
X172720000Y-92710000D02*
X170340000Y-92710000D01*
X165959241Y-95494999D02*
X165959241Y-97620759D01*
X165959241Y-97620759D02*
X162520000Y-101060000D01*
X162520000Y-101060000D02*
X161470000Y-101060000D01*
X170340000Y-92710000D02*
X170240000Y-92710000D01*
X170240000Y-92710000D02*
X167455001Y-95494999D01*
X167455001Y-95494999D02*
X165959241Y-95494999D01*
X172720000Y-88900000D02*
X170340000Y-88900000D01*
X166092690Y-92797917D02*
X165459232Y-93431378D01*
X166589999Y-91684999D02*
X166514996Y-91760002D01*
X167455001Y-91684999D02*
X166589999Y-91684999D01*
X162520000Y-100260000D02*
X161470000Y-100260000D01*
X166514995Y-92375612D02*
X166092690Y-92797917D01*
X170340000Y-88900000D02*
X170240000Y-88900000D01*
X170240000Y-88900000D02*
X167455001Y-91684999D01*
X165459231Y-97413649D02*
X162612880Y-100260000D01*
X165459232Y-93431378D02*
X165459231Y-97413649D01*
X166514996Y-91760002D02*
X166514995Y-92375612D01*
X162612880Y-100260000D02*
X162520000Y-100260000D01*
X172720000Y-85090000D02*
X170340000Y-85090000D01*
X164959221Y-93224267D02*
X164959221Y-97020779D01*
X166514999Y-87949999D02*
X166514999Y-91052881D01*
X167455001Y-87874999D02*
X166589999Y-87874999D01*
X162520000Y-99460000D02*
X161470000Y-99460000D01*
X164959221Y-97020779D02*
X162520000Y-99460000D01*
X166589999Y-87874999D02*
X166514999Y-87949999D01*
X166514999Y-91052881D02*
X166014987Y-91552893D01*
X166014987Y-91552893D02*
X166014986Y-92168502D01*
X170240000Y-85090000D02*
X167455001Y-87874999D01*
X166014986Y-92168502D02*
X164959221Y-93224267D01*
X170340000Y-85090000D02*
X170240000Y-85090000D01*
X179705000Y-88900000D02*
X179330000Y-88900000D01*
X179330000Y-88900000D02*
X175520000Y-85090000D01*
X175520000Y-85090000D02*
X175420000Y-85090000D01*
X179705000Y-91440000D02*
X177060000Y-91440000D01*
X175420000Y-89800000D02*
X175420000Y-88900000D01*
X177060000Y-91440000D02*
X175420000Y-89800000D01*
X157320000Y-88900000D02*
X154940000Y-88900000D01*
X155220000Y-95952878D02*
X154544980Y-96627898D01*
X155220000Y-94810000D02*
X155220000Y-95952878D01*
X154544980Y-98635736D02*
X154544980Y-99060000D01*
X154544980Y-96627898D02*
X154544980Y-98635736D01*
X149860000Y-100128490D02*
X149860000Y-101207122D01*
X149860000Y-101207122D02*
X153137879Y-104485001D01*
X153137879Y-104485001D02*
X156694999Y-104485001D01*
X156694999Y-104485001D02*
X156820000Y-104360000D01*
X156820000Y-104360000D02*
X156820000Y-103310000D01*
X152420000Y-78105000D02*
X152420000Y-78980000D01*
X152420000Y-78980000D02*
X149794959Y-81605041D01*
X149794959Y-81605041D02*
X149794959Y-100063449D01*
X149794959Y-100063449D02*
X149860000Y-100128490D01*
X165014965Y-91138671D02*
X165014965Y-91754279D01*
X165514977Y-90638659D02*
X165014965Y-91138671D01*
X163695010Y-96727112D02*
X162562122Y-97860000D01*
X165514977Y-87535777D02*
X165514977Y-90638659D01*
X162562122Y-97860000D02*
X162520000Y-97860000D01*
X169545000Y-78740000D02*
X169545000Y-81109998D01*
X166100021Y-86950733D02*
X165514977Y-87535777D01*
X166100022Y-84554976D02*
X166100021Y-86950733D01*
X162520000Y-97860000D02*
X161470000Y-97860000D01*
X169545000Y-81109998D02*
X166100022Y-84554976D01*
X165014965Y-91754279D02*
X163695011Y-93074233D01*
X163695011Y-93074233D02*
X163695010Y-96727112D01*
X161995000Y-97860000D02*
X161470000Y-97860000D01*
X162520000Y-97060000D02*
X161470000Y-97060000D01*
X167005000Y-82942876D02*
X165600013Y-84347867D01*
X165014967Y-90431549D02*
X164514955Y-90931561D01*
X163195000Y-96385000D02*
X162520000Y-97060000D01*
X163195000Y-92867122D02*
X163195000Y-96385000D01*
X164514955Y-91547167D02*
X163195000Y-92867122D01*
X164514955Y-90931561D02*
X164514955Y-91547167D01*
X165014967Y-87328667D02*
X165014967Y-90431549D01*
X165600012Y-86743622D02*
X165014967Y-87328667D01*
X167005000Y-78740000D02*
X167005000Y-82942876D01*
X165600013Y-84347867D02*
X165600012Y-86743622D01*
X153035000Y-93345000D02*
X153035000Y-93425000D01*
X153035000Y-93425000D02*
X154420000Y-94810000D01*
D25*
G36*
X152600478Y-105022402D02*
X152847040Y-105187149D01*
X153137879Y-105245001D01*
X156694999Y-105245001D01*
X156985838Y-105187149D01*
X157232400Y-105022402D01*
X157357401Y-104897401D01*
X157522148Y-104650839D01*
X157536089Y-104580751D01*
X157546441Y-104574090D01*
X157619884Y-104466603D01*
X157680910Y-104561441D01*
X157811245Y-104650495D01*
X157905750Y-104745000D01*
X158021310Y-104745000D01*
X158041753Y-104736532D01*
X158145000Y-104757440D01*
X158589080Y-104757440D01*
X158682599Y-104897401D01*
X159487600Y-105702402D01*
X159734161Y-105867149D01*
X159989805Y-105918000D01*
X149352000Y-105918000D01*
X149352000Y-101773924D01*
X152600478Y-105022402D01*
X152600478Y-105022402D01*
G37*
X152600478Y-105022402D02*
X152847040Y-105187149D01*
X153137879Y-105245001D01*
X156694999Y-105245001D01*
X156985838Y-105187149D01*
X157232400Y-105022402D01*
X157357401Y-104897401D01*
X157522148Y-104650839D01*
X157536089Y-104580751D01*
X157546441Y-104574090D01*
X157619884Y-104466603D01*
X157680910Y-104561441D01*
X157811245Y-104650495D01*
X157905750Y-104745000D01*
X158021310Y-104745000D01*
X158041753Y-104736532D01*
X158145000Y-104757440D01*
X158589080Y-104757440D01*
X158682599Y-104897401D01*
X159487600Y-105702402D01*
X159734161Y-105867149D01*
X159989805Y-105918000D01*
X149352000Y-105918000D01*
X149352000Y-101773924D01*
X152600478Y-105022402D01*
G36*
X178460585Y-102659670D02*
X178770069Y-102866461D01*
X178354268Y-103237964D01*
X178100291Y-103765209D01*
X178097642Y-103780974D01*
X178218783Y-104013000D01*
X179578000Y-104013000D01*
X179578000Y-103993000D01*
X179832000Y-103993000D01*
X179832000Y-104013000D01*
X179852000Y-104013000D01*
X179852000Y-104267000D01*
X179832000Y-104267000D01*
X179832000Y-105480924D01*
X180066913Y-105625184D01*
X180619320Y-105431954D01*
X180848000Y-105227637D01*
X180848000Y-105918000D01*
X169250195Y-105918000D01*
X169505838Y-105867149D01*
X169752400Y-105702402D01*
X170017362Y-105437440D01*
X171090000Y-105437440D01*
X171325317Y-105393162D01*
X171541441Y-105254090D01*
X171568534Y-105214438D01*
X171585910Y-105241441D01*
X171798110Y-105386431D01*
X172050000Y-105437440D01*
X173550000Y-105437440D01*
X173785317Y-105393162D01*
X174001441Y-105254090D01*
X174146431Y-105041890D01*
X174149081Y-105028803D01*
X174285910Y-105241441D01*
X174498110Y-105386431D01*
X174750000Y-105437440D01*
X176250000Y-105437440D01*
X176485317Y-105393162D01*
X176701441Y-105254090D01*
X176846431Y-105041890D01*
X176897440Y-104790000D01*
X176897440Y-104499026D01*
X178097642Y-104499026D01*
X178100291Y-104514791D01*
X178354268Y-105042036D01*
X178790680Y-105431954D01*
X179343087Y-105625184D01*
X179578000Y-105480924D01*
X179578000Y-104267000D01*
X178218783Y-104267000D01*
X178097642Y-104499026D01*
X176897440Y-104499026D01*
X176897440Y-103490000D01*
X176853162Y-103254683D01*
X176738425Y-103076377D01*
X177454802Y-102360000D01*
X178260352Y-102360000D01*
X178460585Y-102659670D01*
X178460585Y-102659670D01*
G37*
X178460585Y-102659670D02*
X178770069Y-102866461D01*
X178354268Y-103237964D01*
X178100291Y-103765209D01*
X178097642Y-103780974D01*
X178218783Y-104013000D01*
X179578000Y-104013000D01*
X179578000Y-103993000D01*
X179832000Y-103993000D01*
X179832000Y-104013000D01*
X179852000Y-104013000D01*
X179852000Y-104267000D01*
X179832000Y-104267000D01*
X179832000Y-105480924D01*
X180066913Y-105625184D01*
X180619320Y-105431954D01*
X180848000Y-105227637D01*
X180848000Y-105918000D01*
X169250195Y-105918000D01*
X169505838Y-105867149D01*
X169752400Y-105702402D01*
X170017362Y-105437440D01*
X171090000Y-105437440D01*
X171325317Y-105393162D01*
X171541441Y-105254090D01*
X171568534Y-105214438D01*
X171585910Y-105241441D01*
X171798110Y-105386431D01*
X172050000Y-105437440D01*
X173550000Y-105437440D01*
X173785317Y-105393162D01*
X174001441Y-105254090D01*
X174146431Y-105041890D01*
X174149081Y-105028803D01*
X174285910Y-105241441D01*
X174498110Y-105386431D01*
X174750000Y-105437440D01*
X176250000Y-105437440D01*
X176485317Y-105393162D01*
X176701441Y-105254090D01*
X176846431Y-105041890D01*
X176897440Y-104790000D01*
X176897440Y-104499026D01*
X178097642Y-104499026D01*
X178100291Y-104514791D01*
X178354268Y-105042036D01*
X178790680Y-105431954D01*
X179343087Y-105625184D01*
X179578000Y-105480924D01*
X179578000Y-104267000D01*
X178218783Y-104267000D01*
X178097642Y-104499026D01*
X176897440Y-104499026D01*
X176897440Y-103490000D01*
X176853162Y-103254683D01*
X176738425Y-103076377D01*
X177454802Y-102360000D01*
X178260352Y-102360000D01*
X178460585Y-102659670D01*
G36*
X166255000Y-103854250D02*
X166413750Y-104013000D01*
X167513000Y-104013000D01*
X167513000Y-103993000D01*
X167767000Y-103993000D01*
X167767000Y-104013000D01*
X167787000Y-104013000D01*
X167787000Y-104267000D01*
X167767000Y-104267000D01*
X167767000Y-104287000D01*
X167513000Y-104287000D01*
X167513000Y-104267000D01*
X166413750Y-104267000D01*
X166275749Y-104405001D01*
X160861975Y-104405001D01*
X160891431Y-104361890D01*
X160942440Y-104110000D01*
X160942440Y-103940920D01*
X161082401Y-103847401D01*
X161194801Y-103735001D01*
X166255000Y-103735001D01*
X166255000Y-103854250D01*
X166255000Y-103854250D01*
G37*
X166255000Y-103854250D02*
X166413750Y-104013000D01*
X167513000Y-104013000D01*
X167513000Y-103993000D01*
X167767000Y-103993000D01*
X167767000Y-104013000D01*
X167787000Y-104013000D01*
X167787000Y-104267000D01*
X167767000Y-104267000D01*
X167767000Y-104287000D01*
X167513000Y-104287000D01*
X167513000Y-104267000D01*
X166413750Y-104267000D01*
X166275749Y-104405001D01*
X160861975Y-104405001D01*
X160891431Y-104361890D01*
X160942440Y-104110000D01*
X160942440Y-103940920D01*
X161082401Y-103847401D01*
X161194801Y-103735001D01*
X166255000Y-103735001D01*
X166255000Y-103854250D01*
G36*
X166413750Y-100203000D02*
X167513000Y-100203000D01*
X167513000Y-100183000D01*
X167767000Y-100183000D01*
X167767000Y-100203000D01*
X167787000Y-100203000D01*
X167787000Y-100457000D01*
X167767000Y-100457000D01*
X167767000Y-101456250D01*
X167902974Y-101592224D01*
X167280197Y-102215001D01*
X163239801Y-102215001D01*
X164839052Y-100615750D01*
X166255000Y-100615750D01*
X166255000Y-101106310D01*
X166351673Y-101339699D01*
X166530302Y-101518327D01*
X166763691Y-101615000D01*
X167354250Y-101615000D01*
X167513000Y-101456250D01*
X167513000Y-100457000D01*
X166413750Y-100457000D01*
X166255000Y-100615750D01*
X164839052Y-100615750D01*
X165389803Y-100064999D01*
X166275749Y-100064999D01*
X166413750Y-100203000D01*
X166413750Y-100203000D01*
G37*
X166413750Y-100203000D02*
X167513000Y-100203000D01*
X167513000Y-100183000D01*
X167767000Y-100183000D01*
X167767000Y-100203000D01*
X167787000Y-100203000D01*
X167787000Y-100457000D01*
X167767000Y-100457000D01*
X167767000Y-101456250D01*
X167902974Y-101592224D01*
X167280197Y-102215001D01*
X163239801Y-102215001D01*
X164839052Y-100615750D01*
X166255000Y-100615750D01*
X166255000Y-101106310D01*
X166351673Y-101339699D01*
X166530302Y-101518327D01*
X166763691Y-101615000D01*
X167354250Y-101615000D01*
X167513000Y-101456250D01*
X167513000Y-100457000D01*
X166413750Y-100457000D01*
X166255000Y-100615750D01*
X164839052Y-100615750D01*
X165389803Y-100064999D01*
X166275749Y-100064999D01*
X166413750Y-100203000D01*
G36*
X167767000Y-96393000D02*
X167787000Y-96393000D01*
X167787000Y-96647000D01*
X167767000Y-96647000D01*
X167767000Y-97646250D01*
X167902974Y-97782224D01*
X167140199Y-98544999D01*
X166109803Y-98544999D01*
X166496642Y-98158160D01*
X166661389Y-97911599D01*
X166688766Y-97773965D01*
X166763691Y-97805000D01*
X167354250Y-97805000D01*
X167513000Y-97646250D01*
X167513000Y-96647000D01*
X167493000Y-96647000D01*
X167493000Y-96393000D01*
X167513000Y-96393000D01*
X167513000Y-96373000D01*
X167767000Y-96373000D01*
X167767000Y-96393000D01*
X167767000Y-96393000D01*
G37*
X167767000Y-96393000D02*
X167787000Y-96393000D01*
X167787000Y-96647000D01*
X167767000Y-96647000D01*
X167767000Y-97646250D01*
X167902974Y-97782224D01*
X167140199Y-98544999D01*
X166109803Y-98544999D01*
X166496642Y-98158160D01*
X166661389Y-97911599D01*
X166688766Y-97773965D01*
X166763691Y-97805000D01*
X167354250Y-97805000D01*
X167513000Y-97646250D01*
X167513000Y-96647000D01*
X167493000Y-96647000D01*
X167493000Y-96393000D01*
X167513000Y-96393000D01*
X167513000Y-96373000D01*
X167767000Y-96373000D01*
X167767000Y-96393000D01*
G36*
X174205910Y-93811441D02*
X174418110Y-93956431D01*
X174670000Y-94007440D01*
X174789080Y-94007440D01*
X174882599Y-94147401D01*
X175252599Y-94517401D01*
X175499161Y-94682148D01*
X175790000Y-94740000D01*
X178260352Y-94740000D01*
X178460585Y-95039670D01*
X178775366Y-95250000D01*
X178460585Y-95460330D01*
X178260352Y-95760000D01*
X176796742Y-95760000D01*
X176773162Y-95634683D01*
X176634090Y-95418559D01*
X176421890Y-95273569D01*
X176170000Y-95222560D01*
X174670000Y-95222560D01*
X174434683Y-95266838D01*
X174218559Y-95405910D01*
X174073569Y-95618110D01*
X174070919Y-95631197D01*
X173934090Y-95418559D01*
X173721890Y-95273569D01*
X173470000Y-95222560D01*
X171970000Y-95222560D01*
X171734683Y-95266838D01*
X171527323Y-95400270D01*
X171341890Y-95273569D01*
X171090000Y-95222560D01*
X169590000Y-95222560D01*
X169354683Y-95266838D01*
X169138559Y-95405910D01*
X168993569Y-95618110D01*
X168986809Y-95651490D01*
X168928327Y-95510301D01*
X168749698Y-95331673D01*
X168709698Y-95315104D01*
X170017362Y-94007440D01*
X171090000Y-94007440D01*
X171325317Y-93963162D01*
X171532677Y-93829730D01*
X171718110Y-93956431D01*
X171970000Y-94007440D01*
X173470000Y-94007440D01*
X173705317Y-93963162D01*
X173921441Y-93824090D01*
X174066431Y-93611890D01*
X174069081Y-93598803D01*
X174205910Y-93811441D01*
X174205910Y-93811441D01*
G37*
X174205910Y-93811441D02*
X174418110Y-93956431D01*
X174670000Y-94007440D01*
X174789080Y-94007440D01*
X174882599Y-94147401D01*
X175252599Y-94517401D01*
X175499161Y-94682148D01*
X175790000Y-94740000D01*
X178260352Y-94740000D01*
X178460585Y-95039670D01*
X178775366Y-95250000D01*
X178460585Y-95460330D01*
X178260352Y-95760000D01*
X176796742Y-95760000D01*
X176773162Y-95634683D01*
X176634090Y-95418559D01*
X176421890Y-95273569D01*
X176170000Y-95222560D01*
X174670000Y-95222560D01*
X174434683Y-95266838D01*
X174218559Y-95405910D01*
X174073569Y-95618110D01*
X174070919Y-95631197D01*
X173934090Y-95418559D01*
X173721890Y-95273569D01*
X173470000Y-95222560D01*
X171970000Y-95222560D01*
X171734683Y-95266838D01*
X171527323Y-95400270D01*
X171341890Y-95273569D01*
X171090000Y-95222560D01*
X169590000Y-95222560D01*
X169354683Y-95266838D01*
X169138559Y-95405910D01*
X168993569Y-95618110D01*
X168986809Y-95651490D01*
X168928327Y-95510301D01*
X168749698Y-95331673D01*
X168709698Y-95315104D01*
X170017362Y-94007440D01*
X171090000Y-94007440D01*
X171325317Y-93963162D01*
X171532677Y-93829730D01*
X171718110Y-93956431D01*
X171970000Y-94007440D01*
X173470000Y-94007440D01*
X173705317Y-93963162D01*
X173921441Y-93824090D01*
X174066431Y-93611890D01*
X174069081Y-93598803D01*
X174205910Y-93811441D01*
G36*
X167767000Y-92583000D02*
X167787000Y-92583000D01*
X167787000Y-92837000D01*
X167767000Y-92837000D01*
X167767000Y-93836250D01*
X167902974Y-93972224D01*
X167140199Y-94734999D01*
X166219232Y-94734999D01*
X166219232Y-93746179D01*
X166320638Y-93644773D01*
X166351673Y-93719699D01*
X166530302Y-93898327D01*
X166763691Y-93995000D01*
X167354250Y-93995000D01*
X167513000Y-93836250D01*
X167513000Y-92837000D01*
X167493000Y-92837000D01*
X167493000Y-92583000D01*
X167513000Y-92583000D01*
X167513000Y-92563000D01*
X167767000Y-92563000D01*
X167767000Y-92583000D01*
X167767000Y-92583000D01*
G37*
X167767000Y-92583000D02*
X167787000Y-92583000D01*
X167787000Y-92837000D01*
X167767000Y-92837000D01*
X167767000Y-93836250D01*
X167902974Y-93972224D01*
X167140199Y-94734999D01*
X166219232Y-94734999D01*
X166219232Y-93746179D01*
X166320638Y-93644773D01*
X166351673Y-93719699D01*
X166530302Y-93898327D01*
X166763691Y-93995000D01*
X167354250Y-93995000D01*
X167513000Y-93836250D01*
X167513000Y-92837000D01*
X167493000Y-92837000D01*
X167493000Y-92583000D01*
X167513000Y-92583000D01*
X167513000Y-92563000D01*
X167767000Y-92563000D01*
X167767000Y-92583000D01*
G36*
X162928110Y-84691431D02*
X163180000Y-84742440D01*
X163441448Y-84742440D01*
X163312797Y-84934981D01*
X163254945Y-85225820D01*
X163254945Y-91025253D01*
X160736841Y-93543357D01*
X160546890Y-93413569D01*
X160295000Y-93362560D01*
X159745000Y-93362560D01*
X159615411Y-93386944D01*
X159495000Y-93362560D01*
X158945000Y-93362560D01*
X158839295Y-93382450D01*
X158821310Y-93375000D01*
X158705750Y-93375000D01*
X158609349Y-93471401D01*
X158493559Y-93545910D01*
X158420116Y-93653397D01*
X158380000Y-93591054D01*
X158380000Y-92700000D01*
X158464250Y-92700000D01*
X158623000Y-92541250D01*
X158623000Y-91567000D01*
X158877000Y-91567000D01*
X158877000Y-92541250D01*
X159035750Y-92700000D01*
X159626309Y-92700000D01*
X159859698Y-92603327D01*
X160038327Y-92424699D01*
X160135000Y-92191310D01*
X160135000Y-91725750D01*
X159976250Y-91567000D01*
X158877000Y-91567000D01*
X158623000Y-91567000D01*
X158603000Y-91567000D01*
X158603000Y-91313000D01*
X158623000Y-91313000D01*
X158623000Y-91293000D01*
X158877000Y-91293000D01*
X158877000Y-91313000D01*
X159976250Y-91313000D01*
X160135000Y-91154250D01*
X160135000Y-90688690D01*
X160038327Y-90455301D01*
X159859698Y-90276673D01*
X159688883Y-90205919D01*
X159697362Y-90197440D01*
X160770000Y-90197440D01*
X161005317Y-90153162D01*
X161221441Y-90014090D01*
X161366431Y-89801890D01*
X161417440Y-89550000D01*
X161417440Y-88250000D01*
X161373162Y-88014683D01*
X161234090Y-87798559D01*
X161021890Y-87653569D01*
X160780000Y-87604585D01*
X160780000Y-86360000D01*
X160746471Y-86191441D01*
X160722148Y-86069160D01*
X160557401Y-85822599D01*
X159710257Y-84975455D01*
X159809670Y-84909029D01*
X160029520Y-84580000D01*
X162765025Y-84580000D01*
X162928110Y-84691431D01*
X162928110Y-84691431D01*
G37*
X162928110Y-84691431D02*
X163180000Y-84742440D01*
X163441448Y-84742440D01*
X163312797Y-84934981D01*
X163254945Y-85225820D01*
X163254945Y-91025253D01*
X160736841Y-93543357D01*
X160546890Y-93413569D01*
X160295000Y-93362560D01*
X159745000Y-93362560D01*
X159615411Y-93386944D01*
X159495000Y-93362560D01*
X158945000Y-93362560D01*
X158839295Y-93382450D01*
X158821310Y-93375000D01*
X158705750Y-93375000D01*
X158609349Y-93471401D01*
X158493559Y-93545910D01*
X158420116Y-93653397D01*
X158380000Y-93591054D01*
X158380000Y-92700000D01*
X158464250Y-92700000D01*
X158623000Y-92541250D01*
X158623000Y-91567000D01*
X158877000Y-91567000D01*
X158877000Y-92541250D01*
X159035750Y-92700000D01*
X159626309Y-92700000D01*
X159859698Y-92603327D01*
X160038327Y-92424699D01*
X160135000Y-92191310D01*
X160135000Y-91725750D01*
X159976250Y-91567000D01*
X158877000Y-91567000D01*
X158623000Y-91567000D01*
X158603000Y-91567000D01*
X158603000Y-91313000D01*
X158623000Y-91313000D01*
X158623000Y-91293000D01*
X158877000Y-91293000D01*
X158877000Y-91313000D01*
X159976250Y-91313000D01*
X160135000Y-91154250D01*
X160135000Y-90688690D01*
X160038327Y-90455301D01*
X159859698Y-90276673D01*
X159688883Y-90205919D01*
X159697362Y-90197440D01*
X160770000Y-90197440D01*
X161005317Y-90153162D01*
X161221441Y-90014090D01*
X161366431Y-89801890D01*
X161417440Y-89550000D01*
X161417440Y-88250000D01*
X161373162Y-88014683D01*
X161234090Y-87798559D01*
X161021890Y-87653569D01*
X160780000Y-87604585D01*
X160780000Y-86360000D01*
X160746471Y-86191441D01*
X160722148Y-86069160D01*
X160557401Y-85822599D01*
X159710257Y-84975455D01*
X159809670Y-84909029D01*
X160029520Y-84580000D01*
X162765025Y-84580000D01*
X162928110Y-84691431D01*
G36*
X177060000Y-92200000D02*
X178260352Y-92200000D01*
X178460585Y-92499670D01*
X178775366Y-92710000D01*
X178460585Y-92920330D01*
X178260352Y-93220000D01*
X176817440Y-93220000D01*
X176817440Y-92151752D01*
X177060000Y-92200000D01*
X177060000Y-92200000D01*
G37*
X177060000Y-92200000D02*
X178260352Y-92200000D01*
X178460585Y-92499670D01*
X178775366Y-92710000D01*
X178460585Y-92920330D01*
X178260352Y-93220000D01*
X176817440Y-93220000D01*
X176817440Y-92151752D01*
X177060000Y-92200000D01*
G36*
X167767000Y-88773000D02*
X167787000Y-88773000D01*
X167787000Y-89027000D01*
X167767000Y-89027000D01*
X167767000Y-90026250D01*
X167902974Y-90162224D01*
X167274999Y-90790199D01*
X167274999Y-90185000D01*
X167354250Y-90185000D01*
X167513000Y-90026250D01*
X167513000Y-89027000D01*
X167493000Y-89027000D01*
X167493000Y-88773000D01*
X167513000Y-88773000D01*
X167513000Y-88753000D01*
X167767000Y-88753000D01*
X167767000Y-88773000D01*
X167767000Y-88773000D01*
G37*
X167767000Y-88773000D02*
X167787000Y-88773000D01*
X167787000Y-89027000D01*
X167767000Y-89027000D01*
X167767000Y-90026250D01*
X167902974Y-90162224D01*
X167274999Y-90790199D01*
X167274999Y-90185000D01*
X167354250Y-90185000D01*
X167513000Y-90026250D01*
X167513000Y-89027000D01*
X167493000Y-89027000D01*
X167493000Y-88773000D01*
X167513000Y-88773000D01*
X167513000Y-88753000D01*
X167767000Y-88753000D01*
X167767000Y-88773000D01*
G36*
X178460585Y-82339670D02*
X178770069Y-82546461D01*
X178354268Y-82917964D01*
X178100291Y-83445209D01*
X178097642Y-83460974D01*
X178218783Y-83693000D01*
X179578000Y-83693000D01*
X179578000Y-83673000D01*
X179832000Y-83673000D01*
X179832000Y-83693000D01*
X179852000Y-83693000D01*
X179852000Y-83947000D01*
X179832000Y-83947000D01*
X179832000Y-85160924D01*
X180066913Y-85305184D01*
X180619320Y-85111954D01*
X180848000Y-84907637D01*
X180848000Y-87414678D01*
X180721000Y-87388960D01*
X178893762Y-87388960D01*
X176817440Y-85312638D01*
X176817440Y-84440000D01*
X176773162Y-84204683D01*
X176756653Y-84179026D01*
X178097642Y-84179026D01*
X178100291Y-84194791D01*
X178354268Y-84722036D01*
X178790680Y-85111954D01*
X179343087Y-85305184D01*
X179578000Y-85160924D01*
X179578000Y-83947000D01*
X178218783Y-83947000D01*
X178097642Y-84179026D01*
X176756653Y-84179026D01*
X176634090Y-83988559D01*
X176421890Y-83843569D01*
X176170000Y-83792560D01*
X174670000Y-83792560D01*
X174434683Y-83836838D01*
X174218559Y-83975910D01*
X174073569Y-84188110D01*
X174070919Y-84201197D01*
X173934090Y-83988559D01*
X173721890Y-83843569D01*
X173470000Y-83792560D01*
X171970000Y-83792560D01*
X171734683Y-83836838D01*
X171527323Y-83970270D01*
X171341890Y-83843569D01*
X171090000Y-83792560D01*
X169590000Y-83792560D01*
X169354683Y-83836838D01*
X169138559Y-83975910D01*
X168993569Y-84188110D01*
X168986809Y-84221490D01*
X168928327Y-84080301D01*
X168749698Y-83901673D01*
X168516309Y-83805000D01*
X167925750Y-83805000D01*
X167767002Y-83963748D01*
X167767002Y-83962798D01*
X169357345Y-82372455D01*
X169386883Y-82443943D01*
X169649673Y-82707192D01*
X169993201Y-82849838D01*
X170365167Y-82850162D01*
X170708943Y-82708117D01*
X170742118Y-82675000D01*
X171263258Y-82675000D01*
X171286838Y-82800317D01*
X171425910Y-83016441D01*
X171638110Y-83161431D01*
X171890000Y-83212440D01*
X173390000Y-83212440D01*
X173625317Y-83168162D01*
X173841441Y-83029090D01*
X173986431Y-82816890D01*
X173989081Y-82803803D01*
X174125910Y-83016441D01*
X174338110Y-83161431D01*
X174590000Y-83212440D01*
X176090000Y-83212440D01*
X176325317Y-83168162D01*
X176541441Y-83029090D01*
X176686431Y-82816890D01*
X176737440Y-82565000D01*
X176737440Y-82040000D01*
X178260352Y-82040000D01*
X178460585Y-82339670D01*
X178460585Y-82339670D01*
G37*
X178460585Y-82339670D02*
X178770069Y-82546461D01*
X178354268Y-82917964D01*
X178100291Y-83445209D01*
X178097642Y-83460974D01*
X178218783Y-83693000D01*
X179578000Y-83693000D01*
X179578000Y-83673000D01*
X179832000Y-83673000D01*
X179832000Y-83693000D01*
X179852000Y-83693000D01*
X179852000Y-83947000D01*
X179832000Y-83947000D01*
X179832000Y-85160924D01*
X180066913Y-85305184D01*
X180619320Y-85111954D01*
X180848000Y-84907637D01*
X180848000Y-87414678D01*
X180721000Y-87388960D01*
X178893762Y-87388960D01*
X176817440Y-85312638D01*
X176817440Y-84440000D01*
X176773162Y-84204683D01*
X176756653Y-84179026D01*
X178097642Y-84179026D01*
X178100291Y-84194791D01*
X178354268Y-84722036D01*
X178790680Y-85111954D01*
X179343087Y-85305184D01*
X179578000Y-85160924D01*
X179578000Y-83947000D01*
X178218783Y-83947000D01*
X178097642Y-84179026D01*
X176756653Y-84179026D01*
X176634090Y-83988559D01*
X176421890Y-83843569D01*
X176170000Y-83792560D01*
X174670000Y-83792560D01*
X174434683Y-83836838D01*
X174218559Y-83975910D01*
X174073569Y-84188110D01*
X174070919Y-84201197D01*
X173934090Y-83988559D01*
X173721890Y-83843569D01*
X173470000Y-83792560D01*
X171970000Y-83792560D01*
X171734683Y-83836838D01*
X171527323Y-83970270D01*
X171341890Y-83843569D01*
X171090000Y-83792560D01*
X169590000Y-83792560D01*
X169354683Y-83836838D01*
X169138559Y-83975910D01*
X168993569Y-84188110D01*
X168986809Y-84221490D01*
X168928327Y-84080301D01*
X168749698Y-83901673D01*
X168516309Y-83805000D01*
X167925750Y-83805000D01*
X167767002Y-83963748D01*
X167767002Y-83962798D01*
X169357345Y-82372455D01*
X169386883Y-82443943D01*
X169649673Y-82707192D01*
X169993201Y-82849838D01*
X170365167Y-82850162D01*
X170708943Y-82708117D01*
X170742118Y-82675000D01*
X171263258Y-82675000D01*
X171286838Y-82800317D01*
X171425910Y-83016441D01*
X171638110Y-83161431D01*
X171890000Y-83212440D01*
X173390000Y-83212440D01*
X173625317Y-83168162D01*
X173841441Y-83029090D01*
X173986431Y-82816890D01*
X173989081Y-82803803D01*
X174125910Y-83016441D01*
X174338110Y-83161431D01*
X174590000Y-83212440D01*
X176090000Y-83212440D01*
X176325317Y-83168162D01*
X176541441Y-83029090D01*
X176686431Y-82816890D01*
X176737440Y-82565000D01*
X176737440Y-82040000D01*
X178260352Y-82040000D01*
X178460585Y-82339670D01*
G36*
X167767000Y-84963000D02*
X167787000Y-84963000D01*
X167787000Y-85217000D01*
X167767000Y-85217000D01*
X167767000Y-86216250D01*
X167902974Y-86352224D01*
X167711260Y-86543938D01*
X167575347Y-86407787D01*
X167395954Y-86333296D01*
X167513000Y-86216250D01*
X167513000Y-85217000D01*
X167493000Y-85217000D01*
X167493000Y-84963000D01*
X167513000Y-84963000D01*
X167513000Y-84943000D01*
X167767000Y-84943000D01*
X167767000Y-84963000D01*
X167767000Y-84963000D01*
G37*
X167767000Y-84963000D02*
X167787000Y-84963000D01*
X167787000Y-85217000D01*
X167767000Y-85217000D01*
X167767000Y-86216250D01*
X167902974Y-86352224D01*
X167711260Y-86543938D01*
X167575347Y-86407787D01*
X167395954Y-86333296D01*
X167513000Y-86216250D01*
X167513000Y-85217000D01*
X167493000Y-85217000D01*
X167493000Y-84963000D01*
X167513000Y-84963000D01*
X167513000Y-84943000D01*
X167767000Y-84943000D01*
X167767000Y-84963000D01*
G36*
X153797000Y-83693000D02*
X153817000Y-83693000D01*
X153817000Y-83947000D01*
X153797000Y-83947000D01*
X153797000Y-83967000D01*
X153543000Y-83967000D01*
X153543000Y-83947000D01*
X153523000Y-83947000D01*
X153523000Y-83693000D01*
X153543000Y-83693000D01*
X153543000Y-83673000D01*
X153797000Y-83673000D01*
X153797000Y-83693000D01*
X153797000Y-83693000D01*
G37*
X153797000Y-83693000D02*
X153817000Y-83693000D01*
X153817000Y-83947000D01*
X153797000Y-83947000D01*
X153797000Y-83967000D01*
X153543000Y-83967000D01*
X153543000Y-83947000D01*
X153523000Y-83947000D01*
X153523000Y-83693000D01*
X153543000Y-83693000D01*
X153543000Y-83673000D01*
X153797000Y-83673000D01*
X153797000Y-83693000D01*
G36*
X180848000Y-77254678D02*
X180721000Y-77228960D01*
X178689000Y-77228960D01*
X178453683Y-77273238D01*
X178237559Y-77412310D01*
X178092569Y-77624510D01*
X178041560Y-77876400D01*
X178041560Y-79603600D01*
X178085838Y-79838917D01*
X178224910Y-80055041D01*
X178437110Y-80200031D01*
X178478439Y-80208400D01*
X178460585Y-80220330D01*
X178260352Y-80520000D01*
X175975000Y-80520000D01*
X175684161Y-80577852D01*
X175624734Y-80617560D01*
X174590000Y-80617560D01*
X174354683Y-80661838D01*
X174138559Y-80800910D01*
X173993569Y-81013110D01*
X173990919Y-81026197D01*
X173854090Y-80813559D01*
X173641890Y-80668569D01*
X173390000Y-80617560D01*
X171890000Y-80617560D01*
X171654683Y-80661838D01*
X171438559Y-80800910D01*
X171293569Y-81013110D01*
X171264836Y-81155000D01*
X170742463Y-81155000D01*
X170710327Y-81122808D01*
X170366799Y-80980162D01*
X170305000Y-80980108D01*
X170305000Y-80184648D01*
X170604670Y-79984415D01*
X170619500Y-79962220D01*
X170683073Y-80115698D01*
X170861701Y-80294327D01*
X171095090Y-80391000D01*
X171799250Y-80391000D01*
X171958000Y-80232250D01*
X171958000Y-78867000D01*
X172212000Y-78867000D01*
X172212000Y-80232250D01*
X172370750Y-80391000D01*
X173074910Y-80391000D01*
X173308299Y-80294327D01*
X173486927Y-80115698D01*
X173583600Y-79882309D01*
X173583600Y-79025750D01*
X173424850Y-78867000D01*
X172212000Y-78867000D01*
X171958000Y-78867000D01*
X171938000Y-78867000D01*
X171938000Y-78613000D01*
X171958000Y-78613000D01*
X171958000Y-77247750D01*
X172212000Y-77247750D01*
X172212000Y-78613000D01*
X173424850Y-78613000D01*
X173583600Y-78454250D01*
X173583600Y-77597691D01*
X173486927Y-77364302D01*
X173308299Y-77185673D01*
X173074910Y-77089000D01*
X172370750Y-77089000D01*
X172212000Y-77247750D01*
X171958000Y-77247750D01*
X171799250Y-77089000D01*
X171095090Y-77089000D01*
X170861701Y-77185673D01*
X170683073Y-77364302D01*
X170619500Y-77517780D01*
X170604670Y-77495585D01*
X170118489Y-77170729D01*
X169545000Y-77056655D01*
X168971511Y-77170729D01*
X168485330Y-77495585D01*
X168275000Y-77810366D01*
X168064670Y-77495585D01*
X167578489Y-77170729D01*
X167005000Y-77056655D01*
X166431511Y-77170729D01*
X165945330Y-77495585D01*
X165620474Y-77981766D01*
X165506400Y-78555255D01*
X165506400Y-78924745D01*
X165620474Y-79498234D01*
X165945330Y-79984415D01*
X166245000Y-80184648D01*
X166245000Y-81114367D01*
X165921799Y-80980162D01*
X165549833Y-80979838D01*
X165206057Y-81121883D01*
X165127440Y-81200363D01*
X165127440Y-79895000D01*
X165083162Y-79659683D01*
X164944090Y-79443559D01*
X164731890Y-79298569D01*
X164480000Y-79247560D01*
X163180000Y-79247560D01*
X162944683Y-79291838D01*
X162728559Y-79430910D01*
X162583569Y-79643110D01*
X162532560Y-79895000D01*
X162532560Y-80520000D01*
X161852463Y-80520000D01*
X161820327Y-80487808D01*
X161476799Y-80345162D01*
X161104833Y-80344838D01*
X160761057Y-80486883D01*
X160497808Y-80749673D01*
X160355162Y-81093201D01*
X160354838Y-81465167D01*
X160496883Y-81808943D01*
X160759673Y-82072192D01*
X161103201Y-82214838D01*
X161475167Y-82215162D01*
X161818943Y-82073117D01*
X161852118Y-82040000D01*
X162869837Y-82040000D01*
X162728559Y-82130910D01*
X162583569Y-82343110D01*
X162532560Y-82595000D01*
X162532560Y-83060000D01*
X160029520Y-83060000D01*
X159823426Y-82751558D01*
X159848917Y-82746762D01*
X160065041Y-82607690D01*
X160210031Y-82395490D01*
X160261040Y-82143600D01*
X160261040Y-80416400D01*
X160216762Y-80181083D01*
X160077690Y-79964959D01*
X159865490Y-79819969D01*
X159613600Y-79768960D01*
X157886400Y-79768960D01*
X157651083Y-79813238D01*
X157434959Y-79952310D01*
X157289969Y-80164510D01*
X157281136Y-80208131D01*
X157269670Y-80190971D01*
X156783489Y-79866115D01*
X156210000Y-79752041D01*
X155832027Y-79827225D01*
X155508800Y-79503998D01*
X155300774Y-79365000D01*
X155796309Y-79365000D01*
X156029698Y-79268327D01*
X156208327Y-79089699D01*
X156305000Y-78856310D01*
X156305000Y-78390750D01*
X156146250Y-78232000D01*
X155047000Y-78232000D01*
X155047000Y-78252000D01*
X154793000Y-78252000D01*
X154793000Y-78232000D01*
X154773000Y-78232000D01*
X154773000Y-77978000D01*
X154793000Y-77978000D01*
X154793000Y-77958000D01*
X155047000Y-77958000D01*
X155047000Y-77978000D01*
X156146250Y-77978000D01*
X156305000Y-77819250D01*
X156305000Y-77353690D01*
X156208327Y-77120301D01*
X156050025Y-76962000D01*
X180848000Y-76962000D01*
X180848000Y-77254678D01*
X180848000Y-77254678D01*
G37*
X180848000Y-77254678D02*
X180721000Y-77228960D01*
X178689000Y-77228960D01*
X178453683Y-77273238D01*
X178237559Y-77412310D01*
X178092569Y-77624510D01*
X178041560Y-77876400D01*
X178041560Y-79603600D01*
X178085838Y-79838917D01*
X178224910Y-80055041D01*
X178437110Y-80200031D01*
X178478439Y-80208400D01*
X178460585Y-80220330D01*
X178260352Y-80520000D01*
X175975000Y-80520000D01*
X175684161Y-80577852D01*
X175624734Y-80617560D01*
X174590000Y-80617560D01*
X174354683Y-80661838D01*
X174138559Y-80800910D01*
X173993569Y-81013110D01*
X173990919Y-81026197D01*
X173854090Y-80813559D01*
X173641890Y-80668569D01*
X173390000Y-80617560D01*
X171890000Y-80617560D01*
X171654683Y-80661838D01*
X171438559Y-80800910D01*
X171293569Y-81013110D01*
X171264836Y-81155000D01*
X170742463Y-81155000D01*
X170710327Y-81122808D01*
X170366799Y-80980162D01*
X170305000Y-80980108D01*
X170305000Y-80184648D01*
X170604670Y-79984415D01*
X170619500Y-79962220D01*
X170683073Y-80115698D01*
X170861701Y-80294327D01*
X171095090Y-80391000D01*
X171799250Y-80391000D01*
X171958000Y-80232250D01*
X171958000Y-78867000D01*
X172212000Y-78867000D01*
X172212000Y-80232250D01*
X172370750Y-80391000D01*
X173074910Y-80391000D01*
X173308299Y-80294327D01*
X173486927Y-80115698D01*
X173583600Y-79882309D01*
X173583600Y-79025750D01*
X173424850Y-78867000D01*
X172212000Y-78867000D01*
X171958000Y-78867000D01*
X171938000Y-78867000D01*
X171938000Y-78613000D01*
X171958000Y-78613000D01*
X171958000Y-77247750D01*
X172212000Y-77247750D01*
X172212000Y-78613000D01*
X173424850Y-78613000D01*
X173583600Y-78454250D01*
X173583600Y-77597691D01*
X173486927Y-77364302D01*
X173308299Y-77185673D01*
X173074910Y-77089000D01*
X172370750Y-77089000D01*
X172212000Y-77247750D01*
X171958000Y-77247750D01*
X171799250Y-77089000D01*
X171095090Y-77089000D01*
X170861701Y-77185673D01*
X170683073Y-77364302D01*
X170619500Y-77517780D01*
X170604670Y-77495585D01*
X170118489Y-77170729D01*
X169545000Y-77056655D01*
X168971511Y-77170729D01*
X168485330Y-77495585D01*
X168275000Y-77810366D01*
X168064670Y-77495585D01*
X167578489Y-77170729D01*
X167005000Y-77056655D01*
X166431511Y-77170729D01*
X165945330Y-77495585D01*
X165620474Y-77981766D01*
X165506400Y-78555255D01*
X165506400Y-78924745D01*
X165620474Y-79498234D01*
X165945330Y-79984415D01*
X166245000Y-80184648D01*
X166245000Y-81114367D01*
X165921799Y-80980162D01*
X165549833Y-80979838D01*
X165206057Y-81121883D01*
X165127440Y-81200363D01*
X165127440Y-79895000D01*
X165083162Y-79659683D01*
X164944090Y-79443559D01*
X164731890Y-79298569D01*
X164480000Y-79247560D01*
X163180000Y-79247560D01*
X162944683Y-79291838D01*
X162728559Y-79430910D01*
X162583569Y-79643110D01*
X162532560Y-79895000D01*
X162532560Y-80520000D01*
X161852463Y-80520000D01*
X161820327Y-80487808D01*
X161476799Y-80345162D01*
X161104833Y-80344838D01*
X160761057Y-80486883D01*
X160497808Y-80749673D01*
X160355162Y-81093201D01*
X160354838Y-81465167D01*
X160496883Y-81808943D01*
X160759673Y-82072192D01*
X161103201Y-82214838D01*
X161475167Y-82215162D01*
X161818943Y-82073117D01*
X161852118Y-82040000D01*
X162869837Y-82040000D01*
X162728559Y-82130910D01*
X162583569Y-82343110D01*
X162532560Y-82595000D01*
X162532560Y-83060000D01*
X160029520Y-83060000D01*
X159823426Y-82751558D01*
X159848917Y-82746762D01*
X160065041Y-82607690D01*
X160210031Y-82395490D01*
X160261040Y-82143600D01*
X160261040Y-80416400D01*
X160216762Y-80181083D01*
X160077690Y-79964959D01*
X159865490Y-79819969D01*
X159613600Y-79768960D01*
X157886400Y-79768960D01*
X157651083Y-79813238D01*
X157434959Y-79952310D01*
X157289969Y-80164510D01*
X157281136Y-80208131D01*
X157269670Y-80190971D01*
X156783489Y-79866115D01*
X156210000Y-79752041D01*
X155832027Y-79827225D01*
X155508800Y-79503998D01*
X155300774Y-79365000D01*
X155796309Y-79365000D01*
X156029698Y-79268327D01*
X156208327Y-79089699D01*
X156305000Y-78856310D01*
X156305000Y-78390750D01*
X156146250Y-78232000D01*
X155047000Y-78232000D01*
X155047000Y-78252000D01*
X154793000Y-78252000D01*
X154793000Y-78232000D01*
X154773000Y-78232000D01*
X154773000Y-77978000D01*
X154793000Y-77978000D01*
X154793000Y-77958000D01*
X155047000Y-77958000D01*
X155047000Y-77978000D01*
X156146250Y-77978000D01*
X156305000Y-77819250D01*
X156305000Y-77353690D01*
X156208327Y-77120301D01*
X156050025Y-76962000D01*
X180848000Y-76962000D01*
X180848000Y-77254678D01*
M02*
