M48
;DRILL file {KiCad 4.0.2-stable} date 28.06.2016 22:29:28
;FORMAT={-:-/ absolute / metric / decimal}
FMAT,2
METRIC,TZ
T1C0.400
T2C1.016
%
G90
G05
M71
T1
X149.606Y-106.426
X151.13Y-105.41
X153.416Y-111.595
X154.404Y-102.225
X154.432Y-105.41
X156.718Y-101.854
X156.736Y-103.124
X156.972Y-113.284
X158.242Y-112.522
X159.004Y-104.14
X163.921Y-118.008
X165.1Y-109.22
T2
X144.78Y-102.87
X144.78Y-105.41
X144.78Y-107.95
X144.78Y-110.49
X144.78Y-113.03
X144.78Y-115.57
X144.78Y-118.11
X149.606Y-113.03
X149.606Y-115.57
X149.606Y-118.11
X152.146Y-113.03
X152.146Y-115.57
X152.146Y-118.11
X173.355Y-102.87
X173.355Y-105.41
X173.355Y-107.95
X173.355Y-110.49
X173.355Y-113.03
X173.355Y-115.57
X173.355Y-118.11
T0
M30
