G04 #@! TF.FileFunction,Soldermask,Top*
%FSLAX46Y46*%
G04 Gerber Fmt 4.6, Leading zero omitted, Abs format (unit mm)*
G04 Created by KiCad (PCBNEW 4.0.2-stable) date 28.06.2016 22:29:11*
%MOMM*%
G01*
G04 APERTURE LIST*
%ADD10C,0.100000*%
%ADD11R,0.650000X1.060000*%
%ADD12R,1.600000X0.550000*%
%ADD13R,0.550000X1.600000*%
%ADD14R,1.250000X1.000000*%
%ADD15R,1.198880X1.198880*%
%ADD16R,1.727200X1.727200*%
%ADD17O,1.727200X1.727200*%
%ADD18R,2.032000X1.727200*%
%ADD19O,2.032000X1.727200*%
%ADD20R,1.000000X1.250000*%
G04 APERTURE END LIST*
D10*
D11*
X155382000Y-103210000D03*
X154432000Y-103210000D03*
X153482000Y-103210000D03*
X153482000Y-105410000D03*
X155382000Y-105410000D03*
D12*
X155229897Y-107595103D03*
X155229897Y-108395103D03*
X155229897Y-109195103D03*
X155229897Y-109995103D03*
X155229897Y-110795103D03*
X155229897Y-111595103D03*
X155229897Y-112395103D03*
X155229897Y-113195103D03*
D13*
X156679897Y-114645103D03*
X157479897Y-114645103D03*
X158279897Y-114645103D03*
X159079897Y-114645103D03*
X159879897Y-114645103D03*
X160679897Y-114645103D03*
X161479897Y-114645103D03*
X162279897Y-114645103D03*
D12*
X163729897Y-113195103D03*
X163729897Y-112395103D03*
X163729897Y-111595103D03*
X163729897Y-110795103D03*
X163729897Y-109995103D03*
X163729897Y-109195103D03*
X163729897Y-108395103D03*
X163729897Y-107595103D03*
D13*
X162279897Y-106145103D03*
X161479897Y-106145103D03*
X160679897Y-106145103D03*
X159879897Y-106145103D03*
X159079897Y-106145103D03*
X158279897Y-106145103D03*
X157479897Y-106145103D03*
X156679897Y-106145103D03*
D14*
X152400000Y-109966000D03*
X152400000Y-107966000D03*
X165862000Y-110506000D03*
X165862000Y-112506000D03*
D15*
X160274000Y-118110000D03*
X162372040Y-118110000D03*
D16*
X152146000Y-118110000D03*
D17*
X149606000Y-118110000D03*
X152146000Y-115570000D03*
X149606000Y-115570000D03*
X152146000Y-113030000D03*
X149606000Y-113030000D03*
D18*
X173355000Y-102870000D03*
D19*
X173355000Y-105410000D03*
X173355000Y-107950000D03*
X173355000Y-110490000D03*
X173355000Y-113030000D03*
X173355000Y-115570000D03*
X173355000Y-118110000D03*
D18*
X144780000Y-118110000D03*
D19*
X144780000Y-115570000D03*
X144780000Y-113030000D03*
X144780000Y-110490000D03*
X144780000Y-107950000D03*
X144780000Y-105410000D03*
X144780000Y-102870000D03*
D20*
X147590000Y-109982000D03*
X149590000Y-109982000D03*
X155972000Y-118110000D03*
X157972000Y-118110000D03*
X170545000Y-102870000D03*
X168545000Y-102870000D03*
X170545000Y-105410000D03*
X168545000Y-105410000D03*
X170545000Y-107950000D03*
X168545000Y-107950000D03*
X170545000Y-110490000D03*
X168545000Y-110490000D03*
X170545000Y-113030000D03*
X168545000Y-113030000D03*
X170545000Y-115570000D03*
X168545000Y-115570000D03*
X158004000Y-102616000D03*
X160004000Y-102616000D03*
X168545000Y-118110000D03*
X170545000Y-118110000D03*
D11*
X152014000Y-103210000D03*
X151064000Y-103210000D03*
X150114000Y-103210000D03*
X150114000Y-105410000D03*
X152014000Y-105410000D03*
D14*
X147828000Y-103394000D03*
X147828000Y-105394000D03*
D20*
X149590000Y-107696000D03*
X147590000Y-107696000D03*
M02*
