G04 #@! TF.FileFunction,Copper,L1,Top,Signal*
%FSLAX46Y46*%
G04 Gerber Fmt 4.6, Leading zero omitted, Abs format (unit mm)*
G04 Created by KiCad (PCBNEW 4.0.2-stable) date 28.06.2016 22:29:11*
%MOMM*%
G01*
G04 APERTURE LIST*
%ADD10C,0.100000*%
%ADD11R,0.650000X1.060000*%
%ADD12R,1.600000X0.550000*%
%ADD13R,0.550000X1.600000*%
%ADD14R,1.250000X1.000000*%
%ADD15R,1.198880X1.198880*%
%ADD16R,1.727200X1.727200*%
%ADD17O,1.727200X1.727200*%
%ADD18R,2.032000X1.727200*%
%ADD19O,2.032000X1.727200*%
%ADD20R,1.000000X1.250000*%
%ADD21C,0.600000*%
%ADD22C,0.250000*%
%ADD23C,0.254000*%
G04 APERTURE END LIST*
D10*
D11*
X155382000Y-103210000D03*
X154432000Y-103210000D03*
X153482000Y-103210000D03*
X153482000Y-105410000D03*
X155382000Y-105410000D03*
D12*
X155229897Y-107595103D03*
X155229897Y-108395103D03*
X155229897Y-109195103D03*
X155229897Y-109995103D03*
X155229897Y-110795103D03*
X155229897Y-111595103D03*
X155229897Y-112395103D03*
X155229897Y-113195103D03*
D13*
X156679897Y-114645103D03*
X157479897Y-114645103D03*
X158279897Y-114645103D03*
X159079897Y-114645103D03*
X159879897Y-114645103D03*
X160679897Y-114645103D03*
X161479897Y-114645103D03*
X162279897Y-114645103D03*
D12*
X163729897Y-113195103D03*
X163729897Y-112395103D03*
X163729897Y-111595103D03*
X163729897Y-110795103D03*
X163729897Y-109995103D03*
X163729897Y-109195103D03*
X163729897Y-108395103D03*
X163729897Y-107595103D03*
D13*
X162279897Y-106145103D03*
X161479897Y-106145103D03*
X160679897Y-106145103D03*
X159879897Y-106145103D03*
X159079897Y-106145103D03*
X158279897Y-106145103D03*
X157479897Y-106145103D03*
X156679897Y-106145103D03*
D14*
X152400000Y-109966000D03*
X152400000Y-107966000D03*
X165862000Y-110506000D03*
X165862000Y-112506000D03*
D15*
X160274000Y-118110000D03*
X162372040Y-118110000D03*
D16*
X152146000Y-118110000D03*
D17*
X149606000Y-118110000D03*
X152146000Y-115570000D03*
X149606000Y-115570000D03*
X152146000Y-113030000D03*
X149606000Y-113030000D03*
D18*
X173355000Y-102870000D03*
D19*
X173355000Y-105410000D03*
X173355000Y-107950000D03*
X173355000Y-110490000D03*
X173355000Y-113030000D03*
X173355000Y-115570000D03*
X173355000Y-118110000D03*
D18*
X144780000Y-118110000D03*
D19*
X144780000Y-115570000D03*
X144780000Y-113030000D03*
X144780000Y-110490000D03*
X144780000Y-107950000D03*
X144780000Y-105410000D03*
X144780000Y-102870000D03*
D20*
X147590000Y-109982000D03*
X149590000Y-109982000D03*
X155972000Y-118110000D03*
X157972000Y-118110000D03*
X170545000Y-102870000D03*
X168545000Y-102870000D03*
X170545000Y-105410000D03*
X168545000Y-105410000D03*
X170545000Y-107950000D03*
X168545000Y-107950000D03*
X170545000Y-110490000D03*
X168545000Y-110490000D03*
X170545000Y-113030000D03*
X168545000Y-113030000D03*
X170545000Y-115570000D03*
X168545000Y-115570000D03*
X158004000Y-102616000D03*
X160004000Y-102616000D03*
X168545000Y-118110000D03*
X170545000Y-118110000D03*
D11*
X152014000Y-103210000D03*
X151064000Y-103210000D03*
X150114000Y-103210000D03*
X150114000Y-105410000D03*
X152014000Y-105410000D03*
D14*
X147828000Y-103394000D03*
X147828000Y-105394000D03*
D20*
X149590000Y-107696000D03*
X147590000Y-107696000D03*
D21*
X151130000Y-105410000D03*
X156718000Y-101854000D03*
X153416000Y-111595103D03*
X165100000Y-109220000D03*
X158242000Y-112522000D03*
X156972000Y-113284000D03*
X163921483Y-118008365D03*
X159004000Y-104140000D03*
X154432000Y-105410000D03*
X156736002Y-103124000D03*
X154403501Y-102225020D03*
X149606000Y-106426000D03*
D22*
X144780000Y-113030000D02*
X144932400Y-113030000D01*
X144932400Y-113030000D02*
X147590000Y-110372400D01*
X147590000Y-110372400D02*
X147590000Y-109982000D01*
X155229897Y-107595103D02*
X154179897Y-107595103D01*
X154179897Y-107595103D02*
X153725793Y-107140999D01*
X153725793Y-107140999D02*
X151514999Y-107140999D01*
X151514999Y-107140999D02*
X150999988Y-107656010D01*
X150999988Y-107656010D02*
X150999988Y-108447012D01*
X150999988Y-108447012D02*
X149590000Y-109857000D01*
X149590000Y-109857000D02*
X149590000Y-109982000D01*
X152014000Y-105410000D02*
X152014000Y-105615000D01*
X152014000Y-105615000D02*
X153079000Y-106680000D01*
X155382000Y-106492000D02*
X155382000Y-105410000D01*
X153079000Y-106680000D02*
X155194000Y-106680000D01*
X155194000Y-106680000D02*
X155382000Y-106492000D01*
X155229897Y-109995103D02*
X153558103Y-109995103D01*
X153558103Y-109995103D02*
X153529000Y-109966000D01*
X153529000Y-109966000D02*
X152400000Y-109966000D01*
X151130000Y-105410000D02*
X152014000Y-105410000D01*
X149606000Y-118110000D02*
X148417399Y-116921399D01*
X150957399Y-112459471D02*
X151821767Y-111595103D01*
X148417399Y-116921399D02*
X148417399Y-114999471D01*
X151821767Y-111595103D02*
X152991736Y-111595103D01*
X148417399Y-114999471D02*
X149198269Y-114218601D01*
X149198269Y-114218601D02*
X150176529Y-114218601D01*
X150176529Y-114218601D02*
X150957399Y-113437731D01*
X152991736Y-111595103D02*
X153416000Y-111595103D01*
X150957399Y-113437731D02*
X150957399Y-112459471D01*
X158829001Y-101665999D02*
X156906001Y-101665999D01*
X156906001Y-101665999D02*
X156718000Y-101854000D01*
X155229897Y-111595103D02*
X153416000Y-111595103D01*
X168545000Y-118110000D02*
X168545000Y-117235000D01*
X168545000Y-117235000D02*
X169370001Y-116409999D01*
X169370001Y-116409999D02*
X169370001Y-101984999D01*
X169370001Y-101984999D02*
X169051001Y-101665999D01*
X169051001Y-101665999D02*
X158829001Y-101665999D01*
X158829001Y-101665999D02*
X158004000Y-102491000D01*
X158004000Y-102491000D02*
X158004000Y-102616000D01*
X159258000Y-111595103D02*
X156279897Y-111595103D01*
X161879897Y-111595103D02*
X159258000Y-111595103D01*
X163729897Y-112395103D02*
X162679897Y-112395103D01*
X162679897Y-112395103D02*
X161879897Y-111595103D01*
X156279897Y-111595103D02*
X155229897Y-111595103D01*
X168545000Y-117235000D02*
X164854898Y-113544898D01*
X164854898Y-113544898D02*
X164854898Y-112470104D01*
X164854898Y-112470104D02*
X164779897Y-112395103D01*
X164779897Y-112395103D02*
X163729897Y-112395103D01*
X144780000Y-118110000D02*
X149606000Y-118110000D01*
X155229897Y-109995103D02*
X156279897Y-109995103D01*
X156279897Y-109995103D02*
X156354898Y-110070104D01*
X156354898Y-110070104D02*
X156354898Y-111520102D01*
X156354898Y-111520102D02*
X156279897Y-111595103D01*
X155972000Y-118110000D02*
X155222000Y-118110000D01*
X155222000Y-118110000D02*
X154033399Y-119298601D01*
X150469599Y-118973599D02*
X149606000Y-118110000D01*
X154033399Y-119298601D02*
X150794601Y-119298601D01*
X150794601Y-119298601D02*
X150469599Y-118973599D01*
X155229897Y-109195103D02*
X153754103Y-109195103D01*
X153754103Y-109195103D02*
X152525000Y-107966000D01*
X152525000Y-107966000D02*
X152400000Y-107966000D01*
X149606000Y-113030000D02*
X151449999Y-111186001D01*
X151449999Y-111186001D02*
X151449999Y-108041001D01*
X151449999Y-108041001D02*
X151525000Y-107966000D01*
X151525000Y-107966000D02*
X152400000Y-107966000D01*
X153482000Y-102430000D02*
X153482000Y-103210000D01*
X146304000Y-102108000D02*
X150114000Y-102108000D01*
X150114000Y-102108000D02*
X153160000Y-102108000D01*
X150114000Y-103210000D02*
X150114000Y-102430000D01*
X150114000Y-102430000D02*
X150114000Y-102108000D01*
X153160000Y-102108000D02*
X153482000Y-102430000D01*
X146304000Y-103207998D02*
X146304000Y-102108000D01*
X144298042Y-104058610D02*
X145453388Y-104058610D01*
X145453388Y-104058610D02*
X146304000Y-103207998D01*
X143438990Y-104917662D02*
X144298042Y-104058610D01*
X143438990Y-114381390D02*
X143438990Y-104917662D01*
X144780000Y-115570000D02*
X144627600Y-115570000D01*
X144627600Y-115570000D02*
X143438990Y-114381390D01*
X149606000Y-113030000D02*
X147066000Y-115570000D01*
X147066000Y-115570000D02*
X144780000Y-115570000D01*
X165100000Y-109220000D02*
X165100000Y-109675000D01*
X165100000Y-109675000D02*
X164779897Y-109995103D01*
X164779897Y-109995103D02*
X163729897Y-109995103D01*
X158750000Y-109195103D02*
X159258000Y-109195103D01*
X155229897Y-109195103D02*
X158750000Y-109195103D01*
X159258000Y-109195103D02*
X162069895Y-109195103D01*
X165862000Y-110506000D02*
X165351103Y-109995103D01*
X165351103Y-109995103D02*
X163729897Y-109995103D01*
X162069895Y-109195103D02*
X162869895Y-109995103D01*
X162869895Y-109995103D02*
X163729897Y-109995103D01*
X154179897Y-110795103D02*
X155229897Y-110795103D01*
X149606000Y-113030000D02*
X151840897Y-110795103D01*
X151840897Y-110795103D02*
X155229897Y-110795103D01*
X158242000Y-112522000D02*
X155356794Y-112522000D01*
X155356794Y-112522000D02*
X155229897Y-112395103D01*
X165862000Y-112506000D02*
X165737000Y-112506000D01*
X165737000Y-112506000D02*
X164911999Y-111680999D01*
X164911999Y-111680999D02*
X164911999Y-110927205D01*
X164911999Y-110927205D02*
X164779897Y-110795103D01*
X164779897Y-110795103D02*
X163729897Y-110795103D01*
X155229897Y-113195103D02*
X156883103Y-113195103D01*
X156883103Y-113195103D02*
X156972000Y-113284000D01*
X160274000Y-118110000D02*
X157972000Y-118110000D01*
X161821468Y-116709988D02*
X162372040Y-117260560D01*
X160894782Y-116709988D02*
X161821468Y-116709988D01*
X159879897Y-114645103D02*
X159879897Y-115695103D01*
X162372040Y-117260560D02*
X162372040Y-118110000D01*
X159879897Y-115695103D02*
X160894782Y-116709988D01*
X149606000Y-115570000D02*
X150794601Y-114381399D01*
X163231481Y-119034441D02*
X163296481Y-118969441D01*
X154756191Y-114381399D02*
X157534791Y-117159999D01*
X161479897Y-115505105D02*
X161479897Y-114645103D01*
X163296481Y-117321689D02*
X161479897Y-115505105D01*
X161447599Y-117499717D02*
X161447599Y-118969441D01*
X150794601Y-114381399D02*
X154756191Y-114381399D01*
X157534791Y-117159999D02*
X161107881Y-117159999D01*
X161107881Y-117159999D02*
X161447599Y-117499717D01*
X161447599Y-118969441D02*
X161512599Y-119034441D01*
X161512599Y-119034441D02*
X163231481Y-119034441D01*
X163296481Y-118969441D02*
X163296481Y-117321689D01*
X163921483Y-117584101D02*
X163921483Y-118008365D01*
X162279897Y-115170103D02*
X163921483Y-116811689D01*
X162279897Y-114645103D02*
X162279897Y-115170103D01*
X163921483Y-116811689D02*
X163921483Y-117584101D01*
X164546503Y-114536709D02*
X163729897Y-113720103D01*
X163417881Y-119484452D02*
X164546503Y-118355830D01*
X164546503Y-118355830D02*
X164546503Y-114536709D01*
X163729897Y-113720103D02*
X163729897Y-113195103D01*
X157146999Y-117651409D02*
X157146999Y-118995001D01*
X157211999Y-119060001D02*
X160901748Y-119060001D01*
X157146999Y-118995001D02*
X157211999Y-119060001D01*
X160901748Y-119060001D02*
X161326199Y-119484452D01*
X155065590Y-115570000D02*
X157146999Y-117651409D01*
X152146000Y-115570000D02*
X155065590Y-115570000D01*
X161326199Y-119484452D02*
X163417881Y-119484452D01*
X166812001Y-112962001D02*
X166812001Y-109745999D01*
X168545000Y-115570000D02*
X168545000Y-114695000D01*
X168545000Y-114695000D02*
X166812001Y-112962001D01*
X165461105Y-108395103D02*
X164779897Y-108395103D01*
X166812001Y-109745999D02*
X165461105Y-108395103D01*
X164779897Y-108395103D02*
X163729897Y-108395103D01*
X168545000Y-113030000D02*
X168545000Y-112155000D01*
X165477503Y-107945092D02*
X165127514Y-107595103D01*
X165127514Y-107595103D02*
X164779897Y-107595103D01*
X165647505Y-107945092D02*
X165477503Y-107945092D01*
X167582011Y-109879598D02*
X165647505Y-107945092D01*
X168545000Y-112155000D02*
X167582011Y-111192011D01*
X167582011Y-111192011D02*
X167582011Y-109879598D01*
X164779897Y-107595103D02*
X163729897Y-107595103D01*
X165675081Y-107495081D02*
X164325103Y-106145103D01*
X162804897Y-106145103D02*
X162279897Y-106145103D01*
X168545000Y-109615000D02*
X166425081Y-107495081D01*
X164325103Y-106145103D02*
X162804897Y-106145103D01*
X166425081Y-107495081D02*
X165675081Y-107495081D01*
X168545000Y-110490000D02*
X168545000Y-109615000D01*
X165861480Y-107045070D02*
X163836512Y-105020102D01*
X166890070Y-107045070D02*
X165861480Y-107045070D01*
X167795000Y-107950000D02*
X166890070Y-107045070D01*
X168545000Y-107950000D02*
X167795000Y-107950000D01*
X161479897Y-105095103D02*
X161479897Y-106145103D01*
X161554898Y-105020102D02*
X161479897Y-105095103D01*
X163836512Y-105020102D02*
X161554898Y-105020102D01*
X164022912Y-104570091D02*
X161204909Y-104570091D01*
X164862821Y-105410000D02*
X164022912Y-104570091D01*
X168545000Y-105410000D02*
X164862821Y-105410000D01*
X161204909Y-104570091D02*
X160679897Y-105095103D01*
X160679897Y-105095103D02*
X160679897Y-106145103D01*
X168545000Y-102870000D02*
X162105000Y-102870000D01*
X162105000Y-102870000D02*
X159879897Y-105095103D01*
X159879897Y-105095103D02*
X159879897Y-106145103D01*
X159004000Y-104140000D02*
X159004000Y-103616000D01*
X159004000Y-103616000D02*
X160004000Y-102616000D01*
X159004000Y-104140000D02*
X159004000Y-106069206D01*
X159004000Y-106069206D02*
X159079897Y-106145103D01*
X154432000Y-105410000D02*
X153482000Y-105410000D01*
X156736002Y-103124000D02*
X155212002Y-101600000D01*
X158279897Y-104667895D02*
X156736002Y-103124000D01*
X155212002Y-101600000D02*
X144936400Y-101600000D01*
X144936400Y-101600000D02*
X144780000Y-101756400D01*
X158279897Y-106145103D02*
X158279897Y-104667895D01*
X144780000Y-101756400D02*
X144780000Y-102870000D01*
X146812000Y-102699998D02*
X146812000Y-103530400D01*
X146812000Y-103530400D02*
X144932400Y-105410000D01*
X144932400Y-105410000D02*
X144780000Y-105410000D01*
X151064000Y-103990000D02*
X150988999Y-104065001D01*
X146942999Y-102568999D02*
X146812000Y-102699998D01*
X150988999Y-104065001D02*
X149528999Y-104065001D01*
X149528999Y-104065001D02*
X148778001Y-103314003D01*
X148778001Y-103314003D02*
X148778001Y-102757000D01*
X148778001Y-102757000D02*
X148590000Y-102568999D01*
X148590000Y-102568999D02*
X146942999Y-102568999D01*
X151370400Y-104296400D02*
X151064000Y-103990000D01*
X156681194Y-104296400D02*
X151370400Y-104296400D01*
X157479897Y-105095103D02*
X156681194Y-104296400D01*
X157479897Y-106145103D02*
X157479897Y-105095103D01*
X151064000Y-103990000D02*
X151064000Y-103210000D01*
X173355000Y-102870000D02*
X170545000Y-102870000D01*
X173355000Y-105410000D02*
X170545000Y-105410000D01*
X173355000Y-107950000D02*
X170545000Y-107950000D01*
X173355000Y-110490000D02*
X170545000Y-110490000D01*
X173355000Y-113030000D02*
X170545000Y-113030000D01*
X170545000Y-115570000D02*
X170545000Y-118110000D01*
X173355000Y-115570000D02*
X170545000Y-115570000D01*
X147590000Y-107696000D02*
X147590000Y-107832400D01*
X147590000Y-107832400D02*
X144932400Y-110490000D01*
X144932400Y-110490000D02*
X144780000Y-110490000D01*
X147828000Y-105394000D02*
X147488400Y-105394000D01*
X147488400Y-105394000D02*
X144932400Y-107950000D01*
X144932400Y-107950000D02*
X144780000Y-107950000D01*
X145051000Y-107950000D02*
X144780000Y-107950000D01*
X147828000Y-103394000D02*
X147953000Y-103394000D01*
X147953000Y-103394000D02*
X149969000Y-105410000D01*
X149969000Y-105410000D02*
X150114000Y-105410000D01*
X154432000Y-102253519D02*
X154403501Y-102225020D01*
X154432000Y-103210000D02*
X154432000Y-102253519D01*
X149606000Y-106426000D02*
X149606000Y-107680000D01*
X149606000Y-107680000D02*
X149590000Y-107696000D01*
D23*
G36*
X172110585Y-116629670D02*
X172420069Y-116836461D01*
X172004268Y-117207964D01*
X171750291Y-117735209D01*
X171747642Y-117750974D01*
X171868783Y-117983000D01*
X173228000Y-117983000D01*
X173228000Y-117963000D01*
X173482000Y-117963000D01*
X173482000Y-117983000D01*
X173502000Y-117983000D01*
X173502000Y-118237000D01*
X173482000Y-118237000D01*
X173482000Y-118257000D01*
X173228000Y-118257000D01*
X173228000Y-118237000D01*
X171868783Y-118237000D01*
X171747642Y-118469026D01*
X171750291Y-118484791D01*
X172004268Y-119012036D01*
X172218003Y-119203000D01*
X171490365Y-119203000D01*
X171496441Y-119199090D01*
X171641431Y-118986890D01*
X171692440Y-118735000D01*
X171692440Y-117485000D01*
X171648162Y-117249683D01*
X171509090Y-117033559D01*
X171305000Y-116894110D01*
X171305000Y-116782279D01*
X171496441Y-116659090D01*
X171641431Y-116446890D01*
X171665102Y-116330000D01*
X171910352Y-116330000D01*
X172110585Y-116629670D01*
X172110585Y-116629670D01*
G37*
X172110585Y-116629670D02*
X172420069Y-116836461D01*
X172004268Y-117207964D01*
X171750291Y-117735209D01*
X171747642Y-117750974D01*
X171868783Y-117983000D01*
X173228000Y-117983000D01*
X173228000Y-117963000D01*
X173482000Y-117963000D01*
X173482000Y-117983000D01*
X173502000Y-117983000D01*
X173502000Y-118237000D01*
X173482000Y-118237000D01*
X173482000Y-118257000D01*
X173228000Y-118257000D01*
X173228000Y-118237000D01*
X171868783Y-118237000D01*
X171747642Y-118469026D01*
X171750291Y-118484791D01*
X172004268Y-119012036D01*
X172218003Y-119203000D01*
X171490365Y-119203000D01*
X171496441Y-119199090D01*
X171641431Y-118986890D01*
X171692440Y-118735000D01*
X171692440Y-117485000D01*
X171648162Y-117249683D01*
X171509090Y-117033559D01*
X171305000Y-116894110D01*
X171305000Y-116782279D01*
X171496441Y-116659090D01*
X171641431Y-116446890D01*
X171665102Y-116330000D01*
X171910352Y-116330000D01*
X172110585Y-116629670D01*
G36*
X151127560Y-109466000D02*
X151127560Y-110466000D01*
X151171838Y-110701317D01*
X151310910Y-110917441D01*
X151401572Y-110979388D01*
X151284366Y-111057702D01*
X150506133Y-111835935D01*
X150494490Y-111823179D01*
X149965027Y-111575032D01*
X149733000Y-111695531D01*
X149733000Y-112903000D01*
X149753000Y-112903000D01*
X149753000Y-113157000D01*
X149733000Y-113157000D01*
X149733000Y-113177000D01*
X149479000Y-113177000D01*
X149479000Y-113157000D01*
X148272183Y-113157000D01*
X148151042Y-113389026D01*
X148323312Y-113804947D01*
X148425341Y-113916727D01*
X147879998Y-114462070D01*
X147715251Y-114708632D01*
X147657399Y-114999471D01*
X147657399Y-116921399D01*
X147715251Y-117212238D01*
X147807300Y-117350000D01*
X146443440Y-117350000D01*
X146443440Y-117246400D01*
X146399162Y-117011083D01*
X146260090Y-116794959D01*
X146047890Y-116649969D01*
X145953073Y-116630768D01*
X146130732Y-116472036D01*
X146384709Y-115944791D01*
X146387358Y-115929026D01*
X146266217Y-115697000D01*
X144907000Y-115697000D01*
X144907000Y-115717000D01*
X144653000Y-115717000D01*
X144653000Y-115697000D01*
X144633000Y-115697000D01*
X144633000Y-115443000D01*
X144653000Y-115443000D01*
X144653000Y-115423000D01*
X144907000Y-115423000D01*
X144907000Y-115443000D01*
X146266217Y-115443000D01*
X146387358Y-115210974D01*
X146384709Y-115195209D01*
X146130732Y-114667964D01*
X145714931Y-114296461D01*
X146024415Y-114089670D01*
X146349271Y-113603489D01*
X146463345Y-113030000D01*
X146391931Y-112670974D01*
X148151042Y-112670974D01*
X148272183Y-112903000D01*
X149479000Y-112903000D01*
X149479000Y-111695531D01*
X149246973Y-111575032D01*
X148717510Y-111823179D01*
X148323312Y-112255053D01*
X148151042Y-112670974D01*
X146391931Y-112670974D01*
X146387666Y-112649536D01*
X147782762Y-111254440D01*
X148090000Y-111254440D01*
X148325317Y-111210162D01*
X148541441Y-111071090D01*
X148589134Y-111001289D01*
X148625910Y-111058441D01*
X148838110Y-111203431D01*
X149090000Y-111254440D01*
X150090000Y-111254440D01*
X150325317Y-111210162D01*
X150541441Y-111071090D01*
X150686431Y-110858890D01*
X150737440Y-110607000D01*
X150737440Y-109784362D01*
X151145781Y-109376021D01*
X151127560Y-109466000D01*
X151127560Y-109466000D01*
G37*
X151127560Y-109466000D02*
X151127560Y-110466000D01*
X151171838Y-110701317D01*
X151310910Y-110917441D01*
X151401572Y-110979388D01*
X151284366Y-111057702D01*
X150506133Y-111835935D01*
X150494490Y-111823179D01*
X149965027Y-111575032D01*
X149733000Y-111695531D01*
X149733000Y-112903000D01*
X149753000Y-112903000D01*
X149753000Y-113157000D01*
X149733000Y-113157000D01*
X149733000Y-113177000D01*
X149479000Y-113177000D01*
X149479000Y-113157000D01*
X148272183Y-113157000D01*
X148151042Y-113389026D01*
X148323312Y-113804947D01*
X148425341Y-113916727D01*
X147879998Y-114462070D01*
X147715251Y-114708632D01*
X147657399Y-114999471D01*
X147657399Y-116921399D01*
X147715251Y-117212238D01*
X147807300Y-117350000D01*
X146443440Y-117350000D01*
X146443440Y-117246400D01*
X146399162Y-117011083D01*
X146260090Y-116794959D01*
X146047890Y-116649969D01*
X145953073Y-116630768D01*
X146130732Y-116472036D01*
X146384709Y-115944791D01*
X146387358Y-115929026D01*
X146266217Y-115697000D01*
X144907000Y-115697000D01*
X144907000Y-115717000D01*
X144653000Y-115717000D01*
X144653000Y-115697000D01*
X144633000Y-115697000D01*
X144633000Y-115443000D01*
X144653000Y-115443000D01*
X144653000Y-115423000D01*
X144907000Y-115423000D01*
X144907000Y-115443000D01*
X146266217Y-115443000D01*
X146387358Y-115210974D01*
X146384709Y-115195209D01*
X146130732Y-114667964D01*
X145714931Y-114296461D01*
X146024415Y-114089670D01*
X146349271Y-113603489D01*
X146463345Y-113030000D01*
X146391931Y-112670974D01*
X148151042Y-112670974D01*
X148272183Y-112903000D01*
X149479000Y-112903000D01*
X149479000Y-111695531D01*
X149246973Y-111575032D01*
X148717510Y-111823179D01*
X148323312Y-112255053D01*
X148151042Y-112670974D01*
X146391931Y-112670974D01*
X146387666Y-112649536D01*
X147782762Y-111254440D01*
X148090000Y-111254440D01*
X148325317Y-111210162D01*
X148541441Y-111071090D01*
X148589134Y-111001289D01*
X148625910Y-111058441D01*
X148838110Y-111203431D01*
X149090000Y-111254440D01*
X150090000Y-111254440D01*
X150325317Y-111210162D01*
X150541441Y-111071090D01*
X150686431Y-110858890D01*
X150737440Y-110607000D01*
X150737440Y-109784362D01*
X151145781Y-109376021D01*
X151127560Y-109466000D01*
G36*
X162004897Y-107592543D02*
X162282457Y-107592543D01*
X162282457Y-107870103D01*
X162306841Y-107999692D01*
X162282457Y-108120103D01*
X162282457Y-108670103D01*
X162306841Y-108799692D01*
X162282457Y-108920103D01*
X162282457Y-109470103D01*
X162302347Y-109575808D01*
X162294897Y-109593793D01*
X162294897Y-109709353D01*
X162391298Y-109805754D01*
X162465807Y-109921544D01*
X162573294Y-109994987D01*
X162478456Y-110056013D01*
X162389402Y-110186348D01*
X162294897Y-110280853D01*
X162294897Y-110396413D01*
X162303365Y-110416856D01*
X162282457Y-110520103D01*
X162282457Y-110967604D01*
X162170736Y-110892955D01*
X161879897Y-110835103D01*
X157114898Y-110835103D01*
X157114898Y-110070104D01*
X157057046Y-109779265D01*
X157057046Y-109779264D01*
X156892299Y-109532703D01*
X156817298Y-109457702D01*
X156570736Y-109292955D01*
X156500648Y-109279014D01*
X156493987Y-109268662D01*
X156386500Y-109195219D01*
X156481338Y-109134193D01*
X156570392Y-109003858D01*
X156664897Y-108909353D01*
X156664897Y-108793793D01*
X156656429Y-108773350D01*
X156677337Y-108670103D01*
X156677337Y-108120103D01*
X156652953Y-107990514D01*
X156677337Y-107870103D01*
X156677337Y-107592543D01*
X156954897Y-107592543D01*
X157084486Y-107568159D01*
X157204897Y-107592543D01*
X157754897Y-107592543D01*
X157884486Y-107568159D01*
X158004897Y-107592543D01*
X158554897Y-107592543D01*
X158684486Y-107568159D01*
X158804897Y-107592543D01*
X159354897Y-107592543D01*
X159484486Y-107568159D01*
X159604897Y-107592543D01*
X160154897Y-107592543D01*
X160284486Y-107568159D01*
X160404897Y-107592543D01*
X160954897Y-107592543D01*
X161084486Y-107568159D01*
X161204897Y-107592543D01*
X161754897Y-107592543D01*
X161884486Y-107568159D01*
X162004897Y-107592543D01*
X162004897Y-107592543D01*
G37*
X162004897Y-107592543D02*
X162282457Y-107592543D01*
X162282457Y-107870103D01*
X162306841Y-107999692D01*
X162282457Y-108120103D01*
X162282457Y-108670103D01*
X162306841Y-108799692D01*
X162282457Y-108920103D01*
X162282457Y-109470103D01*
X162302347Y-109575808D01*
X162294897Y-109593793D01*
X162294897Y-109709353D01*
X162391298Y-109805754D01*
X162465807Y-109921544D01*
X162573294Y-109994987D01*
X162478456Y-110056013D01*
X162389402Y-110186348D01*
X162294897Y-110280853D01*
X162294897Y-110396413D01*
X162303365Y-110416856D01*
X162282457Y-110520103D01*
X162282457Y-110967604D01*
X162170736Y-110892955D01*
X161879897Y-110835103D01*
X157114898Y-110835103D01*
X157114898Y-110070104D01*
X157057046Y-109779265D01*
X157057046Y-109779264D01*
X156892299Y-109532703D01*
X156817298Y-109457702D01*
X156570736Y-109292955D01*
X156500648Y-109279014D01*
X156493987Y-109268662D01*
X156386500Y-109195219D01*
X156481338Y-109134193D01*
X156570392Y-109003858D01*
X156664897Y-108909353D01*
X156664897Y-108793793D01*
X156656429Y-108773350D01*
X156677337Y-108670103D01*
X156677337Y-108120103D01*
X156652953Y-107990514D01*
X156677337Y-107870103D01*
X156677337Y-107592543D01*
X156954897Y-107592543D01*
X157084486Y-107568159D01*
X157204897Y-107592543D01*
X157754897Y-107592543D01*
X157884486Y-107568159D01*
X158004897Y-107592543D01*
X158554897Y-107592543D01*
X158684486Y-107568159D01*
X158804897Y-107592543D01*
X159354897Y-107592543D01*
X159484486Y-107568159D01*
X159604897Y-107592543D01*
X160154897Y-107592543D01*
X160284486Y-107568159D01*
X160404897Y-107592543D01*
X160954897Y-107592543D01*
X161084486Y-107568159D01*
X161204897Y-107592543D01*
X161754897Y-107592543D01*
X161884486Y-107568159D01*
X162004897Y-107592543D01*
G36*
X165989000Y-110379000D02*
X166009000Y-110379000D01*
X166009000Y-110633000D01*
X165989000Y-110633000D01*
X165989000Y-110653000D01*
X165735000Y-110653000D01*
X165735000Y-110633000D01*
X165715000Y-110633000D01*
X165715000Y-110379000D01*
X165735000Y-110379000D01*
X165735000Y-110359000D01*
X165989000Y-110359000D01*
X165989000Y-110379000D01*
X165989000Y-110379000D01*
G37*
X165989000Y-110379000D02*
X166009000Y-110379000D01*
X166009000Y-110633000D01*
X165989000Y-110633000D01*
X165989000Y-110653000D01*
X165735000Y-110653000D01*
X165735000Y-110633000D01*
X165715000Y-110633000D01*
X165715000Y-110379000D01*
X165735000Y-110379000D01*
X165735000Y-110359000D01*
X165989000Y-110359000D01*
X165989000Y-110379000D01*
G36*
X153642496Y-108132504D02*
X153782457Y-108226023D01*
X153782457Y-108670103D01*
X153802347Y-108775808D01*
X153794897Y-108793793D01*
X153794897Y-108909353D01*
X153891298Y-109005754D01*
X153965807Y-109121544D01*
X154073294Y-109194987D01*
X154010951Y-109235103D01*
X153675309Y-109235103D01*
X153624503Y-109224997D01*
X153489090Y-109014559D01*
X153420994Y-108968031D01*
X153563327Y-108825698D01*
X153660000Y-108592309D01*
X153660000Y-108251750D01*
X153501252Y-108093002D01*
X153602994Y-108093002D01*
X153642496Y-108132504D01*
X153642496Y-108132504D01*
G37*
X153642496Y-108132504D02*
X153782457Y-108226023D01*
X153782457Y-108670103D01*
X153802347Y-108775808D01*
X153794897Y-108793793D01*
X153794897Y-108909353D01*
X153891298Y-109005754D01*
X153965807Y-109121544D01*
X154073294Y-109194987D01*
X154010951Y-109235103D01*
X153675309Y-109235103D01*
X153624503Y-109224997D01*
X153489090Y-109014559D01*
X153420994Y-108968031D01*
X153563327Y-108825698D01*
X153660000Y-108592309D01*
X153660000Y-108251750D01*
X153501252Y-108093002D01*
X153602994Y-108093002D01*
X153642496Y-108132504D01*
G36*
X152547000Y-108093000D02*
X152527000Y-108093000D01*
X152527000Y-108113000D01*
X152273000Y-108113000D01*
X152273000Y-108093000D01*
X152253000Y-108093000D01*
X152253000Y-107900999D01*
X152547000Y-107900999D01*
X152547000Y-108093000D01*
X152547000Y-108093000D01*
G37*
X152547000Y-108093000D02*
X152527000Y-108093000D01*
X152527000Y-108113000D01*
X152273000Y-108113000D01*
X152273000Y-108093000D01*
X152253000Y-108093000D01*
X152253000Y-107900999D01*
X152547000Y-107900999D01*
X152547000Y-108093000D01*
M02*
