G04 #@! TF.FileFunction,Copper,L2,Bot,Signal*
%FSLAX46Y46*%
G04 Gerber Fmt 4.6, Leading zero omitted, Abs format (unit mm)*
G04 Created by KiCad (PCBNEW 4.0.2-stable) date 28.06.2016 22:29:11*
%MOMM*%
G01*
G04 APERTURE LIST*
%ADD10C,0.100000*%
%ADD11R,1.000000X1.250000*%
%ADD12R,1.727200X1.727200*%
%ADD13O,1.727200X1.727200*%
%ADD14R,2.032000X1.727200*%
%ADD15O,2.032000X1.727200*%
%ADD16R,2.000000X1.300000*%
%ADD17R,1.300000X2.000000*%
%ADD18C,0.600000*%
%ADD19C,0.250000*%
%ADD20C,0.254000*%
G04 APERTURE END LIST*
D10*
D11*
X161290000Y-105664000D03*
X159290000Y-105664000D03*
X161290000Y-113792000D03*
X159290000Y-113792000D03*
D12*
X152146000Y-118110000D03*
D13*
X149606000Y-118110000D03*
X152146000Y-115570000D03*
X149606000Y-115570000D03*
X152146000Y-113030000D03*
X149606000Y-113030000D03*
D14*
X173355000Y-102870000D03*
D15*
X173355000Y-105410000D03*
X173355000Y-107950000D03*
X173355000Y-110490000D03*
X173355000Y-113030000D03*
X173355000Y-115570000D03*
X173355000Y-118110000D03*
D14*
X144780000Y-118110000D03*
D15*
X144780000Y-115570000D03*
X144780000Y-113030000D03*
X144780000Y-110490000D03*
X144780000Y-107950000D03*
X144780000Y-105410000D03*
X144780000Y-102870000D03*
D11*
X168545000Y-102870000D03*
X170545000Y-102870000D03*
X168545000Y-105410000D03*
X170545000Y-105410000D03*
X168545000Y-107950000D03*
X170545000Y-107950000D03*
X168545000Y-110490000D03*
X170545000Y-110490000D03*
X168545000Y-113030000D03*
X170545000Y-113030000D03*
X168545000Y-115570000D03*
X170545000Y-115570000D03*
D16*
X156972000Y-108204000D03*
X160972000Y-108204000D03*
X160972000Y-110604000D03*
X156972000Y-110604000D03*
D17*
X166554000Y-106966000D03*
X166554000Y-110966000D03*
X164154000Y-110966000D03*
X164154000Y-106966000D03*
D18*
X151130000Y-105410000D03*
X156718000Y-101854000D03*
X153416000Y-111595103D03*
X165100000Y-109220000D03*
X158242000Y-112522000D03*
X156972000Y-113284000D03*
X163921483Y-118008365D03*
X159004000Y-104140000D03*
X154432000Y-105410000D03*
X156736002Y-103124000D03*
X154403501Y-102225020D03*
X149606000Y-106426000D03*
D19*
X154686000Y-103886000D02*
X152654000Y-103886000D01*
X152654000Y-103886000D02*
X151130000Y-105410000D01*
X156718000Y-101854000D02*
X154686000Y-103886000D01*
X156972000Y-110604000D02*
X156972000Y-108204000D01*
X153416000Y-111595103D02*
X156880897Y-111595103D01*
X156880897Y-111595103D02*
X156972000Y-111504000D01*
X156972000Y-111504000D02*
X156972000Y-110604000D01*
X161290000Y-113792000D02*
X161290000Y-112917000D01*
X161290000Y-112917000D02*
X162338000Y-111869000D01*
X162338000Y-111869000D02*
X162338000Y-109220000D01*
X160972000Y-108204000D02*
X160972000Y-105982000D01*
X160972000Y-105982000D02*
X161290000Y-105664000D01*
X165100000Y-109220000D02*
X170545000Y-109220000D01*
X162814000Y-109220000D02*
X165100000Y-109220000D01*
X162814000Y-109220000D02*
X162338000Y-109220000D01*
X162338000Y-109220000D02*
X161322000Y-108204000D01*
X161322000Y-108204000D02*
X160972000Y-108204000D01*
X170545000Y-110490000D02*
X170545000Y-109220000D01*
X170545000Y-109220000D02*
X170545000Y-107950000D01*
X170545000Y-105410000D02*
X170545000Y-102870000D01*
X170545000Y-107950000D02*
X170545000Y-107075000D01*
X170545000Y-107075000D02*
X170545000Y-105410000D01*
X170545000Y-113030000D02*
X170545000Y-112155000D01*
X170545000Y-112155000D02*
X170545000Y-110490000D01*
X170545000Y-115570000D02*
X170545000Y-113030000D01*
X173355000Y-118110000D02*
X173202600Y-118110000D01*
X173202600Y-118110000D02*
X170662600Y-115570000D01*
X170662600Y-115570000D02*
X170545000Y-115570000D01*
X160435000Y-104394000D02*
X164332000Y-104394000D01*
X164332000Y-104394000D02*
X166554000Y-106616000D01*
X166554000Y-106616000D02*
X166554000Y-106966000D01*
X159290000Y-105664000D02*
X159290000Y-105539000D01*
X159290000Y-105539000D02*
X160435000Y-104394000D01*
X160972000Y-110604000D02*
X160622000Y-110604000D01*
X160622000Y-110604000D02*
X159290000Y-109272000D01*
X159290000Y-109272000D02*
X159290000Y-106539000D01*
X159290000Y-106539000D02*
X159290000Y-105664000D01*
X160622000Y-110604000D02*
X158704000Y-112522000D01*
X158704000Y-112522000D02*
X158242000Y-112522000D01*
X159290000Y-113792000D02*
X159290000Y-113917000D01*
X159290000Y-113917000D02*
X160115001Y-114742001D01*
X160115001Y-114742001D02*
X163149429Y-114742001D01*
X163149429Y-114742001D02*
X164154000Y-113737430D01*
X164154000Y-113737430D02*
X164154000Y-110966000D01*
X159290000Y-113792000D02*
X157480000Y-113792000D01*
X157480000Y-113792000D02*
X156972000Y-113284000D01*
X152146000Y-118110000D02*
X163819848Y-118110000D01*
X163819848Y-118110000D02*
X163921483Y-118008365D01*
X158579736Y-104140000D02*
X152146000Y-110573736D01*
X159004000Y-104140000D02*
X158579736Y-104140000D01*
X152146000Y-110573736D02*
X152146000Y-110998000D01*
X152146000Y-113030000D02*
X152146000Y-110998000D01*
X156736002Y-103124000D02*
X154450002Y-105410000D01*
X154450002Y-105410000D02*
X154432000Y-105410000D01*
X144932400Y-107950000D02*
X144780000Y-107950000D01*
X153979237Y-102225020D02*
X154403501Y-102225020D01*
X153382716Y-102225020D02*
X153979237Y-102225020D01*
X149606000Y-106001736D02*
X153382716Y-102225020D01*
X149606000Y-106426000D02*
X149606000Y-106001736D01*
D20*
G36*
X149068599Y-105464335D02*
X148903852Y-105710897D01*
X148880301Y-105829296D01*
X148813808Y-105895673D01*
X148671162Y-106239201D01*
X148670838Y-106611167D01*
X148812883Y-106954943D01*
X149075673Y-107218192D01*
X149419201Y-107360838D01*
X149791167Y-107361162D01*
X150134943Y-107219117D01*
X150398192Y-106956327D01*
X150540838Y-106612799D01*
X150541162Y-106240833D01*
X150512083Y-106170455D01*
X150540062Y-106142476D01*
X150599673Y-106202192D01*
X150943201Y-106344838D01*
X151315167Y-106345162D01*
X151658943Y-106203117D01*
X151922192Y-105940327D01*
X152064838Y-105596799D01*
X152064879Y-105549923D01*
X152968802Y-104646000D01*
X153873889Y-104646000D01*
X153639808Y-104879673D01*
X153497162Y-105223201D01*
X153496838Y-105595167D01*
X153638883Y-105938943D01*
X153901673Y-106202192D01*
X154245201Y-106344838D01*
X154617167Y-106345162D01*
X154960943Y-106203117D01*
X155224192Y-105940327D01*
X155366838Y-105596799D01*
X155366863Y-105567941D01*
X156875682Y-104059122D01*
X156921169Y-104059162D01*
X157264945Y-103917117D01*
X157528194Y-103654327D01*
X157670840Y-103310799D01*
X157671164Y-102938833D01*
X157529119Y-102595057D01*
X157414307Y-102480045D01*
X157510192Y-102384327D01*
X157652838Y-102040799D01*
X157653068Y-101777000D01*
X163402270Y-101777000D01*
X163402270Y-103634000D01*
X160435000Y-103634000D01*
X160144161Y-103691852D01*
X159898362Y-103856089D01*
X159797117Y-103611057D01*
X159534327Y-103347808D01*
X159190799Y-103205162D01*
X158818833Y-103204838D01*
X158475057Y-103346883D01*
X158407578Y-103414245D01*
X158288897Y-103437852D01*
X158042335Y-103602599D01*
X151608599Y-110036335D01*
X151443852Y-110282897D01*
X151386000Y-110573736D01*
X151386000Y-111750480D01*
X151056971Y-111970330D01*
X150876008Y-112241161D01*
X150494490Y-111823179D01*
X149965027Y-111575032D01*
X149733000Y-111695531D01*
X149733000Y-112903000D01*
X149753000Y-112903000D01*
X149753000Y-113157000D01*
X149733000Y-113157000D01*
X149733000Y-113177000D01*
X149479000Y-113177000D01*
X149479000Y-113157000D01*
X148272183Y-113157000D01*
X148151042Y-113389026D01*
X148323312Y-113804947D01*
X148717510Y-114236821D01*
X148840228Y-114294336D01*
X148516971Y-114510330D01*
X148192115Y-114996511D01*
X148078041Y-115570000D01*
X148192115Y-116143489D01*
X148516971Y-116629670D01*
X148831752Y-116840000D01*
X148516971Y-117050330D01*
X148192115Y-117536511D01*
X148078041Y-118110000D01*
X148192115Y-118683489D01*
X148516971Y-119169670D01*
X148566853Y-119203000D01*
X146396985Y-119203000D01*
X146443440Y-118973600D01*
X146443440Y-117246400D01*
X146399162Y-117011083D01*
X146260090Y-116794959D01*
X146047890Y-116649969D01*
X145953073Y-116630768D01*
X146130732Y-116472036D01*
X146384709Y-115944791D01*
X146387358Y-115929026D01*
X146266217Y-115697000D01*
X144907000Y-115697000D01*
X144907000Y-115717000D01*
X144653000Y-115717000D01*
X144653000Y-115697000D01*
X144633000Y-115697000D01*
X144633000Y-115443000D01*
X144653000Y-115443000D01*
X144653000Y-115423000D01*
X144907000Y-115423000D01*
X144907000Y-115443000D01*
X146266217Y-115443000D01*
X146387358Y-115210974D01*
X146384709Y-115195209D01*
X146130732Y-114667964D01*
X145714931Y-114296461D01*
X146024415Y-114089670D01*
X146349271Y-113603489D01*
X146463345Y-113030000D01*
X146391931Y-112670974D01*
X148151042Y-112670974D01*
X148272183Y-112903000D01*
X149479000Y-112903000D01*
X149479000Y-111695531D01*
X149246973Y-111575032D01*
X148717510Y-111823179D01*
X148323312Y-112255053D01*
X148151042Y-112670974D01*
X146391931Y-112670974D01*
X146349271Y-112456511D01*
X146024415Y-111970330D01*
X145709634Y-111760000D01*
X146024415Y-111549670D01*
X146349271Y-111063489D01*
X146463345Y-110490000D01*
X146349271Y-109916511D01*
X146024415Y-109430330D01*
X145709634Y-109220000D01*
X146024415Y-109009670D01*
X146349271Y-108523489D01*
X146463345Y-107950000D01*
X146349271Y-107376511D01*
X146024415Y-106890330D01*
X145709634Y-106680000D01*
X146024415Y-106469670D01*
X146349271Y-105983489D01*
X146463345Y-105410000D01*
X146349271Y-104836511D01*
X146024415Y-104350330D01*
X145709634Y-104140000D01*
X146024415Y-103929670D01*
X146349271Y-103443489D01*
X146463345Y-102870000D01*
X146349271Y-102296511D01*
X146024415Y-101810330D01*
X145974533Y-101777000D01*
X152755934Y-101777000D01*
X149068599Y-105464335D01*
X149068599Y-105464335D01*
G37*
X149068599Y-105464335D02*
X148903852Y-105710897D01*
X148880301Y-105829296D01*
X148813808Y-105895673D01*
X148671162Y-106239201D01*
X148670838Y-106611167D01*
X148812883Y-106954943D01*
X149075673Y-107218192D01*
X149419201Y-107360838D01*
X149791167Y-107361162D01*
X150134943Y-107219117D01*
X150398192Y-106956327D01*
X150540838Y-106612799D01*
X150541162Y-106240833D01*
X150512083Y-106170455D01*
X150540062Y-106142476D01*
X150599673Y-106202192D01*
X150943201Y-106344838D01*
X151315167Y-106345162D01*
X151658943Y-106203117D01*
X151922192Y-105940327D01*
X152064838Y-105596799D01*
X152064879Y-105549923D01*
X152968802Y-104646000D01*
X153873889Y-104646000D01*
X153639808Y-104879673D01*
X153497162Y-105223201D01*
X153496838Y-105595167D01*
X153638883Y-105938943D01*
X153901673Y-106202192D01*
X154245201Y-106344838D01*
X154617167Y-106345162D01*
X154960943Y-106203117D01*
X155224192Y-105940327D01*
X155366838Y-105596799D01*
X155366863Y-105567941D01*
X156875682Y-104059122D01*
X156921169Y-104059162D01*
X157264945Y-103917117D01*
X157528194Y-103654327D01*
X157670840Y-103310799D01*
X157671164Y-102938833D01*
X157529119Y-102595057D01*
X157414307Y-102480045D01*
X157510192Y-102384327D01*
X157652838Y-102040799D01*
X157653068Y-101777000D01*
X163402270Y-101777000D01*
X163402270Y-103634000D01*
X160435000Y-103634000D01*
X160144161Y-103691852D01*
X159898362Y-103856089D01*
X159797117Y-103611057D01*
X159534327Y-103347808D01*
X159190799Y-103205162D01*
X158818833Y-103204838D01*
X158475057Y-103346883D01*
X158407578Y-103414245D01*
X158288897Y-103437852D01*
X158042335Y-103602599D01*
X151608599Y-110036335D01*
X151443852Y-110282897D01*
X151386000Y-110573736D01*
X151386000Y-111750480D01*
X151056971Y-111970330D01*
X150876008Y-112241161D01*
X150494490Y-111823179D01*
X149965027Y-111575032D01*
X149733000Y-111695531D01*
X149733000Y-112903000D01*
X149753000Y-112903000D01*
X149753000Y-113157000D01*
X149733000Y-113157000D01*
X149733000Y-113177000D01*
X149479000Y-113177000D01*
X149479000Y-113157000D01*
X148272183Y-113157000D01*
X148151042Y-113389026D01*
X148323312Y-113804947D01*
X148717510Y-114236821D01*
X148840228Y-114294336D01*
X148516971Y-114510330D01*
X148192115Y-114996511D01*
X148078041Y-115570000D01*
X148192115Y-116143489D01*
X148516971Y-116629670D01*
X148831752Y-116840000D01*
X148516971Y-117050330D01*
X148192115Y-117536511D01*
X148078041Y-118110000D01*
X148192115Y-118683489D01*
X148516971Y-119169670D01*
X148566853Y-119203000D01*
X146396985Y-119203000D01*
X146443440Y-118973600D01*
X146443440Y-117246400D01*
X146399162Y-117011083D01*
X146260090Y-116794959D01*
X146047890Y-116649969D01*
X145953073Y-116630768D01*
X146130732Y-116472036D01*
X146384709Y-115944791D01*
X146387358Y-115929026D01*
X146266217Y-115697000D01*
X144907000Y-115697000D01*
X144907000Y-115717000D01*
X144653000Y-115717000D01*
X144653000Y-115697000D01*
X144633000Y-115697000D01*
X144633000Y-115443000D01*
X144653000Y-115443000D01*
X144653000Y-115423000D01*
X144907000Y-115423000D01*
X144907000Y-115443000D01*
X146266217Y-115443000D01*
X146387358Y-115210974D01*
X146384709Y-115195209D01*
X146130732Y-114667964D01*
X145714931Y-114296461D01*
X146024415Y-114089670D01*
X146349271Y-113603489D01*
X146463345Y-113030000D01*
X146391931Y-112670974D01*
X148151042Y-112670974D01*
X148272183Y-112903000D01*
X149479000Y-112903000D01*
X149479000Y-111695531D01*
X149246973Y-111575032D01*
X148717510Y-111823179D01*
X148323312Y-112255053D01*
X148151042Y-112670974D01*
X146391931Y-112670974D01*
X146349271Y-112456511D01*
X146024415Y-111970330D01*
X145709634Y-111760000D01*
X146024415Y-111549670D01*
X146349271Y-111063489D01*
X146463345Y-110490000D01*
X146349271Y-109916511D01*
X146024415Y-109430330D01*
X145709634Y-109220000D01*
X146024415Y-109009670D01*
X146349271Y-108523489D01*
X146463345Y-107950000D01*
X146349271Y-107376511D01*
X146024415Y-106890330D01*
X145709634Y-106680000D01*
X146024415Y-106469670D01*
X146349271Y-105983489D01*
X146463345Y-105410000D01*
X146349271Y-104836511D01*
X146024415Y-104350330D01*
X145709634Y-104140000D01*
X146024415Y-103929670D01*
X146349271Y-103443489D01*
X146463345Y-102870000D01*
X146349271Y-102296511D01*
X146024415Y-101810330D01*
X145974533Y-101777000D01*
X152755934Y-101777000D01*
X149068599Y-105464335D01*
G36*
X167593559Y-101780910D02*
X167448569Y-101993110D01*
X167397560Y-102245000D01*
X167397560Y-103495000D01*
X167441838Y-103730317D01*
X167580910Y-103946441D01*
X167793110Y-104091431D01*
X168032509Y-104139910D01*
X167809683Y-104181838D01*
X167593559Y-104320910D01*
X167448569Y-104533110D01*
X167397560Y-104785000D01*
X167397560Y-106035000D01*
X167441838Y-106270317D01*
X167580910Y-106486441D01*
X167793110Y-106631431D01*
X168032509Y-106679910D01*
X167809683Y-106721838D01*
X167593559Y-106860910D01*
X167448569Y-107073110D01*
X167397560Y-107325000D01*
X167397560Y-108575000D01*
X167441838Y-108810317D01*
X167580910Y-109026441D01*
X167793110Y-109171431D01*
X168032509Y-109219910D01*
X167809683Y-109261838D01*
X167593559Y-109400910D01*
X167448569Y-109613110D01*
X167397560Y-109865000D01*
X167397560Y-111115000D01*
X167441838Y-111350317D01*
X167580910Y-111566441D01*
X167793110Y-111711431D01*
X168032509Y-111759910D01*
X167809683Y-111801838D01*
X167593559Y-111940910D01*
X167448569Y-112153110D01*
X167397560Y-112405000D01*
X167397560Y-113655000D01*
X167441838Y-113890317D01*
X167580910Y-114106441D01*
X167793110Y-114251431D01*
X168032509Y-114299910D01*
X167809683Y-114341838D01*
X167593559Y-114480910D01*
X167448569Y-114693110D01*
X167397560Y-114945000D01*
X167397560Y-116195000D01*
X167441838Y-116430317D01*
X167580910Y-116646441D01*
X167793110Y-116791431D01*
X168045000Y-116842440D01*
X169045000Y-116842440D01*
X169280317Y-116798162D01*
X169496441Y-116659090D01*
X169542969Y-116590994D01*
X169685302Y-116733327D01*
X169918691Y-116830000D01*
X170259250Y-116830000D01*
X170418000Y-116671250D01*
X170418000Y-115697000D01*
X170398000Y-115697000D01*
X170398000Y-115443000D01*
X170418000Y-115443000D01*
X170418000Y-114468750D01*
X170259250Y-114310000D01*
X169918691Y-114310000D01*
X169685302Y-114406673D01*
X169544064Y-114547910D01*
X169509090Y-114493559D01*
X169296890Y-114348569D01*
X169057491Y-114300090D01*
X169280317Y-114258162D01*
X169496441Y-114119090D01*
X169542969Y-114050994D01*
X169685302Y-114193327D01*
X169918691Y-114290000D01*
X170259250Y-114290000D01*
X170418000Y-114131250D01*
X170418000Y-113157000D01*
X170398000Y-113157000D01*
X170398000Y-112903000D01*
X170418000Y-112903000D01*
X170418000Y-111928750D01*
X170259250Y-111770000D01*
X169918691Y-111770000D01*
X169685302Y-111866673D01*
X169544064Y-112007910D01*
X169509090Y-111953559D01*
X169296890Y-111808569D01*
X169057491Y-111760090D01*
X169280317Y-111718162D01*
X169496441Y-111579090D01*
X169542969Y-111510994D01*
X169685302Y-111653327D01*
X169918691Y-111750000D01*
X170259250Y-111750000D01*
X170418000Y-111591250D01*
X170418000Y-110617000D01*
X170398000Y-110617000D01*
X170398000Y-110363000D01*
X170418000Y-110363000D01*
X170418000Y-109388750D01*
X170259250Y-109230000D01*
X169918691Y-109230000D01*
X169685302Y-109326673D01*
X169544064Y-109467910D01*
X169509090Y-109413559D01*
X169296890Y-109268569D01*
X169057491Y-109220090D01*
X169280317Y-109178162D01*
X169496441Y-109039090D01*
X169542969Y-108970994D01*
X169685302Y-109113327D01*
X169918691Y-109210000D01*
X170259250Y-109210000D01*
X170418000Y-109051250D01*
X170418000Y-108077000D01*
X170398000Y-108077000D01*
X170398000Y-107823000D01*
X170418000Y-107823000D01*
X170418000Y-106848750D01*
X170259250Y-106690000D01*
X169918691Y-106690000D01*
X169685302Y-106786673D01*
X169544064Y-106927910D01*
X169509090Y-106873559D01*
X169296890Y-106728569D01*
X169057491Y-106680090D01*
X169280317Y-106638162D01*
X169496441Y-106499090D01*
X169542969Y-106430994D01*
X169685302Y-106573327D01*
X169918691Y-106670000D01*
X170259250Y-106670000D01*
X170418000Y-106511250D01*
X170418000Y-105537000D01*
X170398000Y-105537000D01*
X170398000Y-105283000D01*
X170418000Y-105283000D01*
X170418000Y-104308750D01*
X170259250Y-104150000D01*
X169918691Y-104150000D01*
X169685302Y-104246673D01*
X169544064Y-104387910D01*
X169509090Y-104333559D01*
X169296890Y-104188569D01*
X169057491Y-104140090D01*
X169280317Y-104098162D01*
X169496441Y-103959090D01*
X169542969Y-103890994D01*
X169685302Y-104033327D01*
X169918691Y-104130000D01*
X170259250Y-104130000D01*
X170418000Y-103971250D01*
X170418000Y-102997000D01*
X170672000Y-102997000D01*
X170672000Y-103971250D01*
X170830750Y-104130000D01*
X171171309Y-104130000D01*
X171404698Y-104033327D01*
X171583327Y-103854699D01*
X171680000Y-103621310D01*
X171680000Y-103155750D01*
X171521250Y-102997000D01*
X170672000Y-102997000D01*
X170418000Y-102997000D01*
X170398000Y-102997000D01*
X170398000Y-102743000D01*
X170418000Y-102743000D01*
X170418000Y-102723000D01*
X170672000Y-102723000D01*
X170672000Y-102743000D01*
X171521250Y-102743000D01*
X171680000Y-102584250D01*
X171680000Y-102118690D01*
X171583327Y-101885301D01*
X171475025Y-101777000D01*
X171738015Y-101777000D01*
X171691560Y-102006400D01*
X171691560Y-103733600D01*
X171735838Y-103968917D01*
X171874910Y-104185041D01*
X172087110Y-104330031D01*
X172128439Y-104338400D01*
X172110585Y-104350330D01*
X171785729Y-104836511D01*
X171680000Y-105368047D01*
X171680000Y-105282998D01*
X171521252Y-105282998D01*
X171680000Y-105124250D01*
X171680000Y-104658690D01*
X171583327Y-104425301D01*
X171404698Y-104246673D01*
X171171309Y-104150000D01*
X170830750Y-104150000D01*
X170672000Y-104308750D01*
X170672000Y-105283000D01*
X170692000Y-105283000D01*
X170692000Y-105537000D01*
X170672000Y-105537000D01*
X170672000Y-106511250D01*
X170830750Y-106670000D01*
X171171309Y-106670000D01*
X171404698Y-106573327D01*
X171583327Y-106394699D01*
X171680000Y-106161310D01*
X171680000Y-105695750D01*
X171521252Y-105537002D01*
X171680000Y-105537002D01*
X171680000Y-105451953D01*
X171785729Y-105983489D01*
X172110585Y-106469670D01*
X172425366Y-106680000D01*
X172110585Y-106890330D01*
X171785729Y-107376511D01*
X171680000Y-107908047D01*
X171680000Y-107822998D01*
X171521252Y-107822998D01*
X171680000Y-107664250D01*
X171680000Y-107198690D01*
X171583327Y-106965301D01*
X171404698Y-106786673D01*
X171171309Y-106690000D01*
X170830750Y-106690000D01*
X170672000Y-106848750D01*
X170672000Y-107823000D01*
X170692000Y-107823000D01*
X170692000Y-108077000D01*
X170672000Y-108077000D01*
X170672000Y-109051250D01*
X170830750Y-109210000D01*
X171171309Y-109210000D01*
X171404698Y-109113327D01*
X171583327Y-108934699D01*
X171680000Y-108701310D01*
X171680000Y-108235750D01*
X171521252Y-108077002D01*
X171680000Y-108077002D01*
X171680000Y-107991953D01*
X171785729Y-108523489D01*
X172110585Y-109009670D01*
X172425366Y-109220000D01*
X172110585Y-109430330D01*
X171785729Y-109916511D01*
X171680000Y-110448047D01*
X171680000Y-110362998D01*
X171521252Y-110362998D01*
X171680000Y-110204250D01*
X171680000Y-109738690D01*
X171583327Y-109505301D01*
X171404698Y-109326673D01*
X171171309Y-109230000D01*
X170830750Y-109230000D01*
X170672000Y-109388750D01*
X170672000Y-110363000D01*
X170692000Y-110363000D01*
X170692000Y-110617000D01*
X170672000Y-110617000D01*
X170672000Y-111591250D01*
X170830750Y-111750000D01*
X171171309Y-111750000D01*
X171404698Y-111653327D01*
X171583327Y-111474699D01*
X171680000Y-111241310D01*
X171680000Y-110775750D01*
X171521252Y-110617002D01*
X171680000Y-110617002D01*
X171680000Y-110531953D01*
X171785729Y-111063489D01*
X172110585Y-111549670D01*
X172425366Y-111760000D01*
X172110585Y-111970330D01*
X171785729Y-112456511D01*
X171680000Y-112988047D01*
X171680000Y-112902998D01*
X171521252Y-112902998D01*
X171680000Y-112744250D01*
X171680000Y-112278690D01*
X171583327Y-112045301D01*
X171404698Y-111866673D01*
X171171309Y-111770000D01*
X170830750Y-111770000D01*
X170672000Y-111928750D01*
X170672000Y-112903000D01*
X170692000Y-112903000D01*
X170692000Y-113157000D01*
X170672000Y-113157000D01*
X170672000Y-114131250D01*
X170830750Y-114290000D01*
X171171309Y-114290000D01*
X171404698Y-114193327D01*
X171583327Y-114014699D01*
X171680000Y-113781310D01*
X171680000Y-113315750D01*
X171521252Y-113157002D01*
X171680000Y-113157002D01*
X171680000Y-113071953D01*
X171785729Y-113603489D01*
X172110585Y-114089670D01*
X172425366Y-114300000D01*
X172110585Y-114510330D01*
X171785729Y-114996511D01*
X171680000Y-115528047D01*
X171680000Y-115442998D01*
X171521252Y-115442998D01*
X171680000Y-115284250D01*
X171680000Y-114818690D01*
X171583327Y-114585301D01*
X171404698Y-114406673D01*
X171171309Y-114310000D01*
X170830750Y-114310000D01*
X170672000Y-114468750D01*
X170672000Y-115443000D01*
X170692000Y-115443000D01*
X170692000Y-115697000D01*
X170672000Y-115697000D01*
X170672000Y-116671250D01*
X170830750Y-116830000D01*
X171171309Y-116830000D01*
X171404698Y-116733327D01*
X171583327Y-116554699D01*
X171680000Y-116321310D01*
X171680000Y-115855750D01*
X171521252Y-115697002D01*
X171680000Y-115697002D01*
X171680000Y-115611953D01*
X171785729Y-116143489D01*
X172110585Y-116629670D01*
X172420069Y-116836461D01*
X172004268Y-117207964D01*
X171750291Y-117735209D01*
X171747642Y-117750974D01*
X171868783Y-117983000D01*
X173228000Y-117983000D01*
X173228000Y-117963000D01*
X173482000Y-117963000D01*
X173482000Y-117983000D01*
X173502000Y-117983000D01*
X173502000Y-118237000D01*
X173482000Y-118237000D01*
X173482000Y-118257000D01*
X173228000Y-118257000D01*
X173228000Y-118237000D01*
X171868783Y-118237000D01*
X171747642Y-118469026D01*
X171750291Y-118484791D01*
X172004268Y-119012036D01*
X172218003Y-119203000D01*
X153610585Y-119203000D01*
X153657040Y-118973600D01*
X153657040Y-118870000D01*
X163558392Y-118870000D01*
X163734684Y-118943203D01*
X164106650Y-118943527D01*
X164450426Y-118801482D01*
X164713675Y-118538692D01*
X164856321Y-118195164D01*
X164856645Y-117823198D01*
X164739428Y-117539510D01*
X166150290Y-117539510D01*
X166385607Y-117495232D01*
X166601731Y-117356160D01*
X166746721Y-117143960D01*
X166797730Y-116892070D01*
X166797730Y-111291370D01*
X166753452Y-111056053D01*
X166614380Y-110839929D01*
X166402180Y-110694939D01*
X166150290Y-110643930D01*
X164049710Y-110643930D01*
X163814393Y-110688208D01*
X163598269Y-110827280D01*
X163453279Y-111039480D01*
X163402270Y-111291370D01*
X163402270Y-113460800D01*
X163262309Y-113554319D01*
X162834627Y-113982001D01*
X162329251Y-113982001D01*
X162266250Y-113919000D01*
X161417000Y-113919000D01*
X161417000Y-113939000D01*
X161163000Y-113939000D01*
X161163000Y-113919000D01*
X161143000Y-113919000D01*
X161143000Y-113665000D01*
X161163000Y-113665000D01*
X161163000Y-112690750D01*
X161417000Y-112690750D01*
X161417000Y-113665000D01*
X162266250Y-113665000D01*
X162425000Y-113506250D01*
X162425000Y-113040690D01*
X162328327Y-112807301D01*
X162149698Y-112628673D01*
X161916309Y-112532000D01*
X161575750Y-112532000D01*
X161417000Y-112690750D01*
X161163000Y-112690750D01*
X161004250Y-112532000D01*
X160663691Y-112532000D01*
X160430302Y-112628673D01*
X160289064Y-112769910D01*
X160254090Y-112715559D01*
X160041890Y-112570569D01*
X159790000Y-112519560D01*
X159781242Y-112519560D01*
X160399362Y-111901440D01*
X161972000Y-111901440D01*
X162207317Y-111857162D01*
X162423441Y-111718090D01*
X162568431Y-111505890D01*
X162619440Y-111254000D01*
X162619440Y-109954000D01*
X162575162Y-109718683D01*
X162436090Y-109502559D01*
X162296250Y-109407010D01*
X162331698Y-109392327D01*
X162510327Y-109213699D01*
X162607000Y-108980310D01*
X162607000Y-108489750D01*
X162448250Y-108331000D01*
X161099000Y-108331000D01*
X161099000Y-108351000D01*
X160845000Y-108351000D01*
X160845000Y-108331000D01*
X160825000Y-108331000D01*
X160825000Y-108077000D01*
X160845000Y-108077000D01*
X160845000Y-108057000D01*
X161099000Y-108057000D01*
X161099000Y-108077000D01*
X162448250Y-108077000D01*
X162607000Y-107918250D01*
X162607000Y-107427690D01*
X162510327Y-107194301D01*
X162331698Y-107015673D01*
X162098309Y-106919000D01*
X161928380Y-106919000D01*
X162149698Y-106827327D01*
X162328327Y-106648699D01*
X162425000Y-106415310D01*
X162425000Y-105949750D01*
X162266250Y-105791000D01*
X161417000Y-105791000D01*
X161417000Y-105811000D01*
X161163000Y-105811000D01*
X161163000Y-105791000D01*
X161143000Y-105791000D01*
X161143000Y-105537000D01*
X161163000Y-105537000D01*
X161163000Y-105517000D01*
X161417000Y-105517000D01*
X161417000Y-105537000D01*
X162266250Y-105537000D01*
X162425000Y-105378250D01*
X162425000Y-105154000D01*
X163402270Y-105154000D01*
X163402270Y-107194350D01*
X163446548Y-107429667D01*
X163585620Y-107645791D01*
X163797820Y-107790781D01*
X164049710Y-107841790D01*
X166150290Y-107841790D01*
X166385607Y-107797512D01*
X166601731Y-107658440D01*
X166746721Y-107446240D01*
X166797730Y-107194350D01*
X166797730Y-101777000D01*
X167599635Y-101777000D01*
X167593559Y-101780910D01*
X167593559Y-101780910D01*
G37*
X167593559Y-101780910D02*
X167448569Y-101993110D01*
X167397560Y-102245000D01*
X167397560Y-103495000D01*
X167441838Y-103730317D01*
X167580910Y-103946441D01*
X167793110Y-104091431D01*
X168032509Y-104139910D01*
X167809683Y-104181838D01*
X167593559Y-104320910D01*
X167448569Y-104533110D01*
X167397560Y-104785000D01*
X167397560Y-106035000D01*
X167441838Y-106270317D01*
X167580910Y-106486441D01*
X167793110Y-106631431D01*
X168032509Y-106679910D01*
X167809683Y-106721838D01*
X167593559Y-106860910D01*
X167448569Y-107073110D01*
X167397560Y-107325000D01*
X167397560Y-108575000D01*
X167441838Y-108810317D01*
X167580910Y-109026441D01*
X167793110Y-109171431D01*
X168032509Y-109219910D01*
X167809683Y-109261838D01*
X167593559Y-109400910D01*
X167448569Y-109613110D01*
X167397560Y-109865000D01*
X167397560Y-111115000D01*
X167441838Y-111350317D01*
X167580910Y-111566441D01*
X167793110Y-111711431D01*
X168032509Y-111759910D01*
X167809683Y-111801838D01*
X167593559Y-111940910D01*
X167448569Y-112153110D01*
X167397560Y-112405000D01*
X167397560Y-113655000D01*
X167441838Y-113890317D01*
X167580910Y-114106441D01*
X167793110Y-114251431D01*
X168032509Y-114299910D01*
X167809683Y-114341838D01*
X167593559Y-114480910D01*
X167448569Y-114693110D01*
X167397560Y-114945000D01*
X167397560Y-116195000D01*
X167441838Y-116430317D01*
X167580910Y-116646441D01*
X167793110Y-116791431D01*
X168045000Y-116842440D01*
X169045000Y-116842440D01*
X169280317Y-116798162D01*
X169496441Y-116659090D01*
X169542969Y-116590994D01*
X169685302Y-116733327D01*
X169918691Y-116830000D01*
X170259250Y-116830000D01*
X170418000Y-116671250D01*
X170418000Y-115697000D01*
X170398000Y-115697000D01*
X170398000Y-115443000D01*
X170418000Y-115443000D01*
X170418000Y-114468750D01*
X170259250Y-114310000D01*
X169918691Y-114310000D01*
X169685302Y-114406673D01*
X169544064Y-114547910D01*
X169509090Y-114493559D01*
X169296890Y-114348569D01*
X169057491Y-114300090D01*
X169280317Y-114258162D01*
X169496441Y-114119090D01*
X169542969Y-114050994D01*
X169685302Y-114193327D01*
X169918691Y-114290000D01*
X170259250Y-114290000D01*
X170418000Y-114131250D01*
X170418000Y-113157000D01*
X170398000Y-113157000D01*
X170398000Y-112903000D01*
X170418000Y-112903000D01*
X170418000Y-111928750D01*
X170259250Y-111770000D01*
X169918691Y-111770000D01*
X169685302Y-111866673D01*
X169544064Y-112007910D01*
X169509090Y-111953559D01*
X169296890Y-111808569D01*
X169057491Y-111760090D01*
X169280317Y-111718162D01*
X169496441Y-111579090D01*
X169542969Y-111510994D01*
X169685302Y-111653327D01*
X169918691Y-111750000D01*
X170259250Y-111750000D01*
X170418000Y-111591250D01*
X170418000Y-110617000D01*
X170398000Y-110617000D01*
X170398000Y-110363000D01*
X170418000Y-110363000D01*
X170418000Y-109388750D01*
X170259250Y-109230000D01*
X169918691Y-109230000D01*
X169685302Y-109326673D01*
X169544064Y-109467910D01*
X169509090Y-109413559D01*
X169296890Y-109268569D01*
X169057491Y-109220090D01*
X169280317Y-109178162D01*
X169496441Y-109039090D01*
X169542969Y-108970994D01*
X169685302Y-109113327D01*
X169918691Y-109210000D01*
X170259250Y-109210000D01*
X170418000Y-109051250D01*
X170418000Y-108077000D01*
X170398000Y-108077000D01*
X170398000Y-107823000D01*
X170418000Y-107823000D01*
X170418000Y-106848750D01*
X170259250Y-106690000D01*
X169918691Y-106690000D01*
X169685302Y-106786673D01*
X169544064Y-106927910D01*
X169509090Y-106873559D01*
X169296890Y-106728569D01*
X169057491Y-106680090D01*
X169280317Y-106638162D01*
X169496441Y-106499090D01*
X169542969Y-106430994D01*
X169685302Y-106573327D01*
X169918691Y-106670000D01*
X170259250Y-106670000D01*
X170418000Y-106511250D01*
X170418000Y-105537000D01*
X170398000Y-105537000D01*
X170398000Y-105283000D01*
X170418000Y-105283000D01*
X170418000Y-104308750D01*
X170259250Y-104150000D01*
X169918691Y-104150000D01*
X169685302Y-104246673D01*
X169544064Y-104387910D01*
X169509090Y-104333559D01*
X169296890Y-104188569D01*
X169057491Y-104140090D01*
X169280317Y-104098162D01*
X169496441Y-103959090D01*
X169542969Y-103890994D01*
X169685302Y-104033327D01*
X169918691Y-104130000D01*
X170259250Y-104130000D01*
X170418000Y-103971250D01*
X170418000Y-102997000D01*
X170672000Y-102997000D01*
X170672000Y-103971250D01*
X170830750Y-104130000D01*
X171171309Y-104130000D01*
X171404698Y-104033327D01*
X171583327Y-103854699D01*
X171680000Y-103621310D01*
X171680000Y-103155750D01*
X171521250Y-102997000D01*
X170672000Y-102997000D01*
X170418000Y-102997000D01*
X170398000Y-102997000D01*
X170398000Y-102743000D01*
X170418000Y-102743000D01*
X170418000Y-102723000D01*
X170672000Y-102723000D01*
X170672000Y-102743000D01*
X171521250Y-102743000D01*
X171680000Y-102584250D01*
X171680000Y-102118690D01*
X171583327Y-101885301D01*
X171475025Y-101777000D01*
X171738015Y-101777000D01*
X171691560Y-102006400D01*
X171691560Y-103733600D01*
X171735838Y-103968917D01*
X171874910Y-104185041D01*
X172087110Y-104330031D01*
X172128439Y-104338400D01*
X172110585Y-104350330D01*
X171785729Y-104836511D01*
X171680000Y-105368047D01*
X171680000Y-105282998D01*
X171521252Y-105282998D01*
X171680000Y-105124250D01*
X171680000Y-104658690D01*
X171583327Y-104425301D01*
X171404698Y-104246673D01*
X171171309Y-104150000D01*
X170830750Y-104150000D01*
X170672000Y-104308750D01*
X170672000Y-105283000D01*
X170692000Y-105283000D01*
X170692000Y-105537000D01*
X170672000Y-105537000D01*
X170672000Y-106511250D01*
X170830750Y-106670000D01*
X171171309Y-106670000D01*
X171404698Y-106573327D01*
X171583327Y-106394699D01*
X171680000Y-106161310D01*
X171680000Y-105695750D01*
X171521252Y-105537002D01*
X171680000Y-105537002D01*
X171680000Y-105451953D01*
X171785729Y-105983489D01*
X172110585Y-106469670D01*
X172425366Y-106680000D01*
X172110585Y-106890330D01*
X171785729Y-107376511D01*
X171680000Y-107908047D01*
X171680000Y-107822998D01*
X171521252Y-107822998D01*
X171680000Y-107664250D01*
X171680000Y-107198690D01*
X171583327Y-106965301D01*
X171404698Y-106786673D01*
X171171309Y-106690000D01*
X170830750Y-106690000D01*
X170672000Y-106848750D01*
X170672000Y-107823000D01*
X170692000Y-107823000D01*
X170692000Y-108077000D01*
X170672000Y-108077000D01*
X170672000Y-109051250D01*
X170830750Y-109210000D01*
X171171309Y-109210000D01*
X171404698Y-109113327D01*
X171583327Y-108934699D01*
X171680000Y-108701310D01*
X171680000Y-108235750D01*
X171521252Y-108077002D01*
X171680000Y-108077002D01*
X171680000Y-107991953D01*
X171785729Y-108523489D01*
X172110585Y-109009670D01*
X172425366Y-109220000D01*
X172110585Y-109430330D01*
X171785729Y-109916511D01*
X171680000Y-110448047D01*
X171680000Y-110362998D01*
X171521252Y-110362998D01*
X171680000Y-110204250D01*
X171680000Y-109738690D01*
X171583327Y-109505301D01*
X171404698Y-109326673D01*
X171171309Y-109230000D01*
X170830750Y-109230000D01*
X170672000Y-109388750D01*
X170672000Y-110363000D01*
X170692000Y-110363000D01*
X170692000Y-110617000D01*
X170672000Y-110617000D01*
X170672000Y-111591250D01*
X170830750Y-111750000D01*
X171171309Y-111750000D01*
X171404698Y-111653327D01*
X171583327Y-111474699D01*
X171680000Y-111241310D01*
X171680000Y-110775750D01*
X171521252Y-110617002D01*
X171680000Y-110617002D01*
X171680000Y-110531953D01*
X171785729Y-111063489D01*
X172110585Y-111549670D01*
X172425366Y-111760000D01*
X172110585Y-111970330D01*
X171785729Y-112456511D01*
X171680000Y-112988047D01*
X171680000Y-112902998D01*
X171521252Y-112902998D01*
X171680000Y-112744250D01*
X171680000Y-112278690D01*
X171583327Y-112045301D01*
X171404698Y-111866673D01*
X171171309Y-111770000D01*
X170830750Y-111770000D01*
X170672000Y-111928750D01*
X170672000Y-112903000D01*
X170692000Y-112903000D01*
X170692000Y-113157000D01*
X170672000Y-113157000D01*
X170672000Y-114131250D01*
X170830750Y-114290000D01*
X171171309Y-114290000D01*
X171404698Y-114193327D01*
X171583327Y-114014699D01*
X171680000Y-113781310D01*
X171680000Y-113315750D01*
X171521252Y-113157002D01*
X171680000Y-113157002D01*
X171680000Y-113071953D01*
X171785729Y-113603489D01*
X172110585Y-114089670D01*
X172425366Y-114300000D01*
X172110585Y-114510330D01*
X171785729Y-114996511D01*
X171680000Y-115528047D01*
X171680000Y-115442998D01*
X171521252Y-115442998D01*
X171680000Y-115284250D01*
X171680000Y-114818690D01*
X171583327Y-114585301D01*
X171404698Y-114406673D01*
X171171309Y-114310000D01*
X170830750Y-114310000D01*
X170672000Y-114468750D01*
X170672000Y-115443000D01*
X170692000Y-115443000D01*
X170692000Y-115697000D01*
X170672000Y-115697000D01*
X170672000Y-116671250D01*
X170830750Y-116830000D01*
X171171309Y-116830000D01*
X171404698Y-116733327D01*
X171583327Y-116554699D01*
X171680000Y-116321310D01*
X171680000Y-115855750D01*
X171521252Y-115697002D01*
X171680000Y-115697002D01*
X171680000Y-115611953D01*
X171785729Y-116143489D01*
X172110585Y-116629670D01*
X172420069Y-116836461D01*
X172004268Y-117207964D01*
X171750291Y-117735209D01*
X171747642Y-117750974D01*
X171868783Y-117983000D01*
X173228000Y-117983000D01*
X173228000Y-117963000D01*
X173482000Y-117963000D01*
X173482000Y-117983000D01*
X173502000Y-117983000D01*
X173502000Y-118237000D01*
X173482000Y-118237000D01*
X173482000Y-118257000D01*
X173228000Y-118257000D01*
X173228000Y-118237000D01*
X171868783Y-118237000D01*
X171747642Y-118469026D01*
X171750291Y-118484791D01*
X172004268Y-119012036D01*
X172218003Y-119203000D01*
X153610585Y-119203000D01*
X153657040Y-118973600D01*
X153657040Y-118870000D01*
X163558392Y-118870000D01*
X163734684Y-118943203D01*
X164106650Y-118943527D01*
X164450426Y-118801482D01*
X164713675Y-118538692D01*
X164856321Y-118195164D01*
X164856645Y-117823198D01*
X164739428Y-117539510D01*
X166150290Y-117539510D01*
X166385607Y-117495232D01*
X166601731Y-117356160D01*
X166746721Y-117143960D01*
X166797730Y-116892070D01*
X166797730Y-111291370D01*
X166753452Y-111056053D01*
X166614380Y-110839929D01*
X166402180Y-110694939D01*
X166150290Y-110643930D01*
X164049710Y-110643930D01*
X163814393Y-110688208D01*
X163598269Y-110827280D01*
X163453279Y-111039480D01*
X163402270Y-111291370D01*
X163402270Y-113460800D01*
X163262309Y-113554319D01*
X162834627Y-113982001D01*
X162329251Y-113982001D01*
X162266250Y-113919000D01*
X161417000Y-113919000D01*
X161417000Y-113939000D01*
X161163000Y-113939000D01*
X161163000Y-113919000D01*
X161143000Y-113919000D01*
X161143000Y-113665000D01*
X161163000Y-113665000D01*
X161163000Y-112690750D01*
X161417000Y-112690750D01*
X161417000Y-113665000D01*
X162266250Y-113665000D01*
X162425000Y-113506250D01*
X162425000Y-113040690D01*
X162328327Y-112807301D01*
X162149698Y-112628673D01*
X161916309Y-112532000D01*
X161575750Y-112532000D01*
X161417000Y-112690750D01*
X161163000Y-112690750D01*
X161004250Y-112532000D01*
X160663691Y-112532000D01*
X160430302Y-112628673D01*
X160289064Y-112769910D01*
X160254090Y-112715559D01*
X160041890Y-112570569D01*
X159790000Y-112519560D01*
X159781242Y-112519560D01*
X160399362Y-111901440D01*
X161972000Y-111901440D01*
X162207317Y-111857162D01*
X162423441Y-111718090D01*
X162568431Y-111505890D01*
X162619440Y-111254000D01*
X162619440Y-109954000D01*
X162575162Y-109718683D01*
X162436090Y-109502559D01*
X162296250Y-109407010D01*
X162331698Y-109392327D01*
X162510327Y-109213699D01*
X162607000Y-108980310D01*
X162607000Y-108489750D01*
X162448250Y-108331000D01*
X161099000Y-108331000D01*
X161099000Y-108351000D01*
X160845000Y-108351000D01*
X160845000Y-108331000D01*
X160825000Y-108331000D01*
X160825000Y-108077000D01*
X160845000Y-108077000D01*
X160845000Y-108057000D01*
X161099000Y-108057000D01*
X161099000Y-108077000D01*
X162448250Y-108077000D01*
X162607000Y-107918250D01*
X162607000Y-107427690D01*
X162510327Y-107194301D01*
X162331698Y-107015673D01*
X162098309Y-106919000D01*
X161928380Y-106919000D01*
X162149698Y-106827327D01*
X162328327Y-106648699D01*
X162425000Y-106415310D01*
X162425000Y-105949750D01*
X162266250Y-105791000D01*
X161417000Y-105791000D01*
X161417000Y-105811000D01*
X161163000Y-105811000D01*
X161163000Y-105791000D01*
X161143000Y-105791000D01*
X161143000Y-105537000D01*
X161163000Y-105537000D01*
X161163000Y-105517000D01*
X161417000Y-105517000D01*
X161417000Y-105537000D01*
X162266250Y-105537000D01*
X162425000Y-105378250D01*
X162425000Y-105154000D01*
X163402270Y-105154000D01*
X163402270Y-107194350D01*
X163446548Y-107429667D01*
X163585620Y-107645791D01*
X163797820Y-107790781D01*
X164049710Y-107841790D01*
X166150290Y-107841790D01*
X166385607Y-107797512D01*
X166601731Y-107658440D01*
X166746721Y-107446240D01*
X166797730Y-107194350D01*
X166797730Y-101777000D01*
X167599635Y-101777000D01*
X167593559Y-101780910D01*
M02*
