G04 #@! TF.FileFunction,Legend,Top*
%FSLAX46Y46*%
G04 Gerber Fmt 4.6, Leading zero omitted, Abs format (unit mm)*
G04 Created by KiCad (PCBNEW 4.0.2-stable) date 28.06.2016 22:29:11*
%MOMM*%
G01*
G04 APERTURE LIST*
%ADD10C,0.100000*%
%ADD11C,0.150000*%
G04 APERTURE END LIST*
D10*
D11*
X156232000Y-104010000D02*
G75*
G03X156232000Y-104010000I-100000J0D01*
G01*
X155882000Y-104560000D02*
X155882000Y-104060000D01*
X152982000Y-104560000D02*
X155882000Y-104560000D01*
X152982000Y-104060000D02*
X152982000Y-104560000D01*
X155882000Y-104060000D02*
X152982000Y-104060000D01*
X155854897Y-106770103D02*
X155854897Y-107095103D01*
X163104897Y-106770103D02*
X163104897Y-107095103D01*
X163104897Y-114020103D02*
X163104897Y-113695103D01*
X155854897Y-114020103D02*
X155854897Y-113695103D01*
X155854897Y-106770103D02*
X156179897Y-106770103D01*
X155854897Y-114020103D02*
X156179897Y-114020103D01*
X163104897Y-114020103D02*
X162779897Y-114020103D01*
X163104897Y-106770103D02*
X162779897Y-106770103D01*
X155854897Y-107095103D02*
X154429897Y-107095103D01*
X151550000Y-108466000D02*
X151550000Y-109466000D01*
X153250000Y-109466000D02*
X153250000Y-108466000D01*
X166712000Y-112006000D02*
X166712000Y-111006000D01*
X165012000Y-111006000D02*
X165012000Y-112006000D01*
X162923020Y-117360000D02*
X160223020Y-117360000D01*
X162923020Y-118860000D02*
X160223020Y-118860000D01*
X161423020Y-117960000D02*
X161423020Y-118210000D01*
X161423020Y-118210000D02*
X161573020Y-118060000D01*
X161673020Y-118460000D02*
X161673020Y-117760000D01*
X161323020Y-118110000D02*
X160973020Y-118110000D01*
X161673020Y-118110000D02*
X161323020Y-118460000D01*
X161323020Y-118460000D02*
X161323020Y-117760000D01*
X161323020Y-117760000D02*
X161673020Y-118110000D01*
X153416000Y-116840000D02*
X153416000Y-111760000D01*
X153696000Y-119660000D02*
X152146000Y-119660000D01*
X150876000Y-119380000D02*
X150876000Y-116840000D01*
X150876000Y-116840000D02*
X153416000Y-116840000D01*
X153416000Y-111760000D02*
X148336000Y-111760000D01*
X148336000Y-111760000D02*
X148336000Y-116840000D01*
X153696000Y-119660000D02*
X153696000Y-118110000D01*
X148336000Y-119380000D02*
X150876000Y-119380000D01*
X148336000Y-116840000D02*
X148336000Y-119380000D01*
X172055000Y-101320000D02*
X172055000Y-102870000D01*
X173355000Y-101320000D02*
X172055000Y-101320000D01*
X177546000Y-102743000D02*
X183388000Y-102743000D01*
X183388000Y-102743000D02*
X183388000Y-102997000D01*
X183388000Y-102997000D02*
X177546000Y-102997000D01*
X177546000Y-102997000D02*
X177546000Y-102870000D01*
X177546000Y-102870000D02*
X183388000Y-102870000D01*
X174879000Y-102616000D02*
X174498000Y-102616000D01*
X174879000Y-103124000D02*
X174498000Y-103124000D01*
X174879000Y-105156000D02*
X174498000Y-105156000D01*
X174879000Y-105664000D02*
X174498000Y-105664000D01*
X174879000Y-107696000D02*
X174498000Y-107696000D01*
X174879000Y-108204000D02*
X174498000Y-108204000D01*
X174879000Y-110236000D02*
X174498000Y-110236000D01*
X174879000Y-110744000D02*
X174498000Y-110744000D01*
X174879000Y-118364000D02*
X174498000Y-118364000D01*
X174879000Y-117856000D02*
X174498000Y-117856000D01*
X174879000Y-115824000D02*
X174498000Y-115824000D01*
X174879000Y-115316000D02*
X174498000Y-115316000D01*
X174879000Y-113284000D02*
X174498000Y-113284000D01*
X174879000Y-112776000D02*
X174498000Y-112776000D01*
X177419000Y-104140000D02*
X177419000Y-101600000D01*
X183515000Y-103124000D02*
X177419000Y-103124000D01*
X183515000Y-102616000D02*
X183515000Y-103124000D01*
X177419000Y-102616000D02*
X183515000Y-102616000D01*
X174879000Y-104140000D02*
X177419000Y-104140000D01*
X174879000Y-101600000D02*
X174879000Y-104140000D01*
X174879000Y-101600000D02*
X177419000Y-101600000D01*
X174879000Y-106680000D02*
X177419000Y-106680000D01*
X174879000Y-106680000D02*
X174879000Y-109220000D01*
X174879000Y-109220000D02*
X177419000Y-109220000D01*
X177419000Y-107696000D02*
X183515000Y-107696000D01*
X183515000Y-107696000D02*
X183515000Y-108204000D01*
X183515000Y-108204000D02*
X177419000Y-108204000D01*
X177419000Y-109220000D02*
X177419000Y-106680000D01*
X177419000Y-106680000D02*
X177419000Y-104140000D01*
X183515000Y-105664000D02*
X177419000Y-105664000D01*
X183515000Y-105156000D02*
X183515000Y-105664000D01*
X177419000Y-105156000D02*
X183515000Y-105156000D01*
X174879000Y-106680000D02*
X177419000Y-106680000D01*
X174879000Y-104140000D02*
X174879000Y-106680000D01*
X174879000Y-104140000D02*
X177419000Y-104140000D01*
X174879000Y-114300000D02*
X177419000Y-114300000D01*
X174879000Y-114300000D02*
X174879000Y-116840000D01*
X174879000Y-116840000D02*
X177419000Y-116840000D01*
X177419000Y-115316000D02*
X183515000Y-115316000D01*
X183515000Y-115316000D02*
X183515000Y-115824000D01*
X183515000Y-115824000D02*
X177419000Y-115824000D01*
X177419000Y-116840000D02*
X177419000Y-114300000D01*
X177419000Y-119380000D02*
X177419000Y-116840000D01*
X183515000Y-118364000D02*
X177419000Y-118364000D01*
X183515000Y-117856000D02*
X183515000Y-118364000D01*
X177419000Y-117856000D02*
X183515000Y-117856000D01*
X174879000Y-119380000D02*
X177419000Y-119380000D01*
X174879000Y-116840000D02*
X174879000Y-119380000D01*
X174879000Y-116840000D02*
X177419000Y-116840000D01*
X174879000Y-111760000D02*
X177419000Y-111760000D01*
X174879000Y-111760000D02*
X174879000Y-114300000D01*
X174879000Y-114300000D02*
X177419000Y-114300000D01*
X177419000Y-112776000D02*
X183515000Y-112776000D01*
X183515000Y-112776000D02*
X183515000Y-113284000D01*
X183515000Y-113284000D02*
X177419000Y-113284000D01*
X177419000Y-114300000D02*
X177419000Y-111760000D01*
X177419000Y-111760000D02*
X177419000Y-109220000D01*
X183515000Y-110744000D02*
X177419000Y-110744000D01*
X183515000Y-110236000D02*
X183515000Y-110744000D01*
X177419000Y-110236000D02*
X183515000Y-110236000D01*
X174879000Y-111760000D02*
X177419000Y-111760000D01*
X174879000Y-109220000D02*
X174879000Y-111760000D01*
X174879000Y-109220000D02*
X177419000Y-109220000D01*
X146080000Y-119660000D02*
X146080000Y-118110000D01*
X144780000Y-119660000D02*
X146080000Y-119660000D01*
X140589000Y-118237000D02*
X134747000Y-118237000D01*
X134747000Y-118237000D02*
X134747000Y-117983000D01*
X134747000Y-117983000D02*
X140589000Y-117983000D01*
X140589000Y-117983000D02*
X140589000Y-118110000D01*
X140589000Y-118110000D02*
X134747000Y-118110000D01*
X143256000Y-118364000D02*
X143637000Y-118364000D01*
X143256000Y-117856000D02*
X143637000Y-117856000D01*
X143256000Y-115824000D02*
X143637000Y-115824000D01*
X143256000Y-115316000D02*
X143637000Y-115316000D01*
X143256000Y-113284000D02*
X143637000Y-113284000D01*
X143256000Y-112776000D02*
X143637000Y-112776000D01*
X143256000Y-110744000D02*
X143637000Y-110744000D01*
X143256000Y-110236000D02*
X143637000Y-110236000D01*
X143256000Y-102616000D02*
X143637000Y-102616000D01*
X143256000Y-103124000D02*
X143637000Y-103124000D01*
X143256000Y-105156000D02*
X143637000Y-105156000D01*
X143256000Y-105664000D02*
X143637000Y-105664000D01*
X143256000Y-107696000D02*
X143637000Y-107696000D01*
X143256000Y-108204000D02*
X143637000Y-108204000D01*
X140716000Y-116840000D02*
X140716000Y-119380000D01*
X134620000Y-117856000D02*
X140716000Y-117856000D01*
X134620000Y-118364000D02*
X134620000Y-117856000D01*
X140716000Y-118364000D02*
X134620000Y-118364000D01*
X143256000Y-116840000D02*
X140716000Y-116840000D01*
X143256000Y-119380000D02*
X143256000Y-116840000D01*
X143256000Y-119380000D02*
X140716000Y-119380000D01*
X143256000Y-114300000D02*
X140716000Y-114300000D01*
X143256000Y-114300000D02*
X143256000Y-111760000D01*
X143256000Y-111760000D02*
X140716000Y-111760000D01*
X140716000Y-113284000D02*
X134620000Y-113284000D01*
X134620000Y-113284000D02*
X134620000Y-112776000D01*
X134620000Y-112776000D02*
X140716000Y-112776000D01*
X140716000Y-111760000D02*
X140716000Y-114300000D01*
X140716000Y-114300000D02*
X140716000Y-116840000D01*
X134620000Y-115316000D02*
X140716000Y-115316000D01*
X134620000Y-115824000D02*
X134620000Y-115316000D01*
X140716000Y-115824000D02*
X134620000Y-115824000D01*
X143256000Y-114300000D02*
X140716000Y-114300000D01*
X143256000Y-116840000D02*
X143256000Y-114300000D01*
X143256000Y-116840000D02*
X140716000Y-116840000D01*
X143256000Y-106680000D02*
X140716000Y-106680000D01*
X143256000Y-106680000D02*
X143256000Y-104140000D01*
X143256000Y-104140000D02*
X140716000Y-104140000D01*
X140716000Y-105664000D02*
X134620000Y-105664000D01*
X134620000Y-105664000D02*
X134620000Y-105156000D01*
X134620000Y-105156000D02*
X140716000Y-105156000D01*
X140716000Y-104140000D02*
X140716000Y-106680000D01*
X140716000Y-101600000D02*
X140716000Y-104140000D01*
X134620000Y-102616000D02*
X140716000Y-102616000D01*
X134620000Y-103124000D02*
X134620000Y-102616000D01*
X140716000Y-103124000D02*
X134620000Y-103124000D01*
X143256000Y-101600000D02*
X140716000Y-101600000D01*
X143256000Y-104140000D02*
X143256000Y-101600000D01*
X143256000Y-104140000D02*
X140716000Y-104140000D01*
X143256000Y-109220000D02*
X140716000Y-109220000D01*
X143256000Y-109220000D02*
X143256000Y-106680000D01*
X143256000Y-106680000D02*
X140716000Y-106680000D01*
X140716000Y-108204000D02*
X134620000Y-108204000D01*
X134620000Y-108204000D02*
X134620000Y-107696000D01*
X134620000Y-107696000D02*
X140716000Y-107696000D01*
X140716000Y-106680000D02*
X140716000Y-109220000D01*
X140716000Y-109220000D02*
X140716000Y-111760000D01*
X134620000Y-110236000D02*
X140716000Y-110236000D01*
X134620000Y-110744000D02*
X134620000Y-110236000D01*
X140716000Y-110744000D02*
X134620000Y-110744000D01*
X143256000Y-109220000D02*
X140716000Y-109220000D01*
X143256000Y-111760000D02*
X143256000Y-109220000D01*
X143256000Y-111760000D02*
X140716000Y-111760000D01*
X149090000Y-109132000D02*
X148090000Y-109132000D01*
X148090000Y-110832000D02*
X149090000Y-110832000D01*
X157472000Y-117260000D02*
X156472000Y-117260000D01*
X156472000Y-118960000D02*
X157472000Y-118960000D01*
X169045000Y-103720000D02*
X170045000Y-103720000D01*
X170045000Y-102020000D02*
X169045000Y-102020000D01*
X169045000Y-106260000D02*
X170045000Y-106260000D01*
X170045000Y-104560000D02*
X169045000Y-104560000D01*
X169045000Y-108800000D02*
X170045000Y-108800000D01*
X170045000Y-107100000D02*
X169045000Y-107100000D01*
X169045000Y-111340000D02*
X170045000Y-111340000D01*
X170045000Y-109640000D02*
X169045000Y-109640000D01*
X169045000Y-113880000D02*
X170045000Y-113880000D01*
X170045000Y-112180000D02*
X169045000Y-112180000D01*
X169045000Y-116420000D02*
X170045000Y-116420000D01*
X170045000Y-114720000D02*
X169045000Y-114720000D01*
X159504000Y-101766000D02*
X158504000Y-101766000D01*
X158504000Y-103466000D02*
X159504000Y-103466000D01*
X170045000Y-117260000D02*
X169045000Y-117260000D01*
X169045000Y-118960000D02*
X170045000Y-118960000D01*
X152864000Y-104010000D02*
G75*
G03X152864000Y-104010000I-100000J0D01*
G01*
X152514000Y-104560000D02*
X152514000Y-104060000D01*
X149614000Y-104560000D02*
X152514000Y-104560000D01*
X149614000Y-104060000D02*
X149614000Y-104560000D01*
X152514000Y-104060000D02*
X149614000Y-104060000D01*
X148678000Y-104894000D02*
X148678000Y-103894000D01*
X146978000Y-103894000D02*
X146978000Y-104894000D01*
X148090000Y-108546000D02*
X149090000Y-108546000D01*
X149090000Y-106846000D02*
X148090000Y-106846000D01*
M02*
