G04 #@! TF.FileFunction,Legend,Bot*
%FSLAX46Y46*%
G04 Gerber Fmt 4.6, Leading zero omitted, Abs format (unit mm)*
G04 Created by KiCad (PCBNEW 4.0.2-stable) date 28.06.2016 22:29:11*
%MOMM*%
G01*
G04 APERTURE LIST*
%ADD10C,0.100000*%
%ADD11C,0.200000*%
%ADD12C,0.150000*%
G04 APERTURE END LIST*
D10*
D11*
X156098287Y-103030381D02*
X156193525Y-102982762D01*
X156241144Y-102887524D01*
X156241144Y-102030381D01*
X155717334Y-103030381D02*
X155717334Y-102363714D01*
X155717334Y-102030381D02*
X155764953Y-102078000D01*
X155717334Y-102125619D01*
X155669715Y-102078000D01*
X155717334Y-102030381D01*
X155717334Y-102125619D01*
X155241144Y-102363714D02*
X155241144Y-103363714D01*
X155241144Y-102411333D02*
X155145906Y-102363714D01*
X154955429Y-102363714D01*
X154860191Y-102411333D01*
X154812572Y-102458952D01*
X154764953Y-102554190D01*
X154764953Y-102839905D01*
X154812572Y-102935143D01*
X154860191Y-102982762D01*
X154955429Y-103030381D01*
X155145906Y-103030381D01*
X155241144Y-102982762D01*
X154193525Y-103030381D02*
X154288763Y-102982762D01*
X154336382Y-102935143D01*
X154384001Y-102839905D01*
X154384001Y-102554190D01*
X154336382Y-102458952D01*
X154288763Y-102411333D01*
X154193525Y-102363714D01*
X154050667Y-102363714D01*
X153955429Y-102411333D01*
X153907810Y-102458952D01*
X153860191Y-102554190D01*
X153860191Y-102839905D01*
X153907810Y-102935143D01*
X153955429Y-102982762D01*
X154050667Y-103030381D01*
X154193525Y-103030381D01*
X152717334Y-102982762D02*
X152622096Y-103030381D01*
X152431620Y-103030381D01*
X152336381Y-102982762D01*
X152288762Y-102887524D01*
X152288762Y-102839905D01*
X152336381Y-102744667D01*
X152431620Y-102697048D01*
X152574477Y-102697048D01*
X152669715Y-102649429D01*
X152717334Y-102554190D01*
X152717334Y-102506571D01*
X152669715Y-102411333D01*
X152574477Y-102363714D01*
X152431620Y-102363714D01*
X152336381Y-102411333D01*
X151479238Y-102982762D02*
X151574476Y-103030381D01*
X151764953Y-103030381D01*
X151860191Y-102982762D01*
X151907810Y-102887524D01*
X151907810Y-102506571D01*
X151860191Y-102411333D01*
X151764953Y-102363714D01*
X151574476Y-102363714D01*
X151479238Y-102411333D01*
X151431619Y-102506571D01*
X151431619Y-102601810D01*
X151907810Y-102697048D01*
X151003048Y-102363714D02*
X151003048Y-103030381D01*
X151003048Y-102458952D02*
X150955429Y-102411333D01*
X150860191Y-102363714D01*
X150717333Y-102363714D01*
X150622095Y-102411333D01*
X150574476Y-102506571D01*
X150574476Y-103030381D01*
X150145905Y-102982762D02*
X150050667Y-103030381D01*
X149860191Y-103030381D01*
X149764952Y-102982762D01*
X149717333Y-102887524D01*
X149717333Y-102839905D01*
X149764952Y-102744667D01*
X149860191Y-102697048D01*
X150003048Y-102697048D01*
X150098286Y-102649429D01*
X150145905Y-102554190D01*
X150145905Y-102506571D01*
X150098286Y-102411333D01*
X150003048Y-102363714D01*
X149860191Y-102363714D01*
X149764952Y-102411333D01*
X149145905Y-103030381D02*
X149241143Y-102982762D01*
X149288762Y-102935143D01*
X149336381Y-102839905D01*
X149336381Y-102554190D01*
X149288762Y-102458952D01*
X149241143Y-102411333D01*
X149145905Y-102363714D01*
X149003047Y-102363714D01*
X148907809Y-102411333D01*
X148860190Y-102458952D01*
X148812571Y-102554190D01*
X148812571Y-102839905D01*
X148860190Y-102935143D01*
X148907809Y-102982762D01*
X149003047Y-103030381D01*
X149145905Y-103030381D01*
X148384000Y-103030381D02*
X148384000Y-102363714D01*
X148384000Y-102554190D02*
X148336381Y-102458952D01*
X148288762Y-102411333D01*
X148193524Y-102363714D01*
X148098285Y-102363714D01*
X147050666Y-102125619D02*
X147003047Y-102078000D01*
X146907809Y-102030381D01*
X146669713Y-102030381D01*
X146574475Y-102078000D01*
X146526856Y-102125619D01*
X146479237Y-102220857D01*
X146479237Y-102316095D01*
X146526856Y-102458952D01*
X147098285Y-103030381D01*
X146479237Y-103030381D01*
X156241143Y-103725619D02*
X156193524Y-103678000D01*
X156098286Y-103630381D01*
X155860190Y-103630381D01*
X155764952Y-103678000D01*
X155717333Y-103725619D01*
X155669714Y-103820857D01*
X155669714Y-103916095D01*
X155717333Y-104058952D01*
X156288762Y-104630381D01*
X155669714Y-104630381D01*
X155050667Y-103630381D02*
X154955428Y-103630381D01*
X154860190Y-103678000D01*
X154812571Y-103725619D01*
X154764952Y-103820857D01*
X154717333Y-104011333D01*
X154717333Y-104249429D01*
X154764952Y-104439905D01*
X154812571Y-104535143D01*
X154860190Y-104582762D01*
X154955428Y-104630381D01*
X155050667Y-104630381D01*
X155145905Y-104582762D01*
X155193524Y-104535143D01*
X155241143Y-104439905D01*
X155288762Y-104249429D01*
X155288762Y-104011333D01*
X155241143Y-103820857D01*
X155193524Y-103725619D01*
X155145905Y-103678000D01*
X155050667Y-103630381D01*
X153764952Y-104630381D02*
X154336381Y-104630381D01*
X154050667Y-104630381D02*
X154050667Y-103630381D01*
X154145905Y-103773238D01*
X154241143Y-103868476D01*
X154336381Y-103916095D01*
X152907809Y-103630381D02*
X153098286Y-103630381D01*
X153193524Y-103678000D01*
X153241143Y-103725619D01*
X153336381Y-103868476D01*
X153384000Y-104058952D01*
X153384000Y-104439905D01*
X153336381Y-104535143D01*
X153288762Y-104582762D01*
X153193524Y-104630381D01*
X153003047Y-104630381D01*
X152907809Y-104582762D01*
X152860190Y-104535143D01*
X152812571Y-104439905D01*
X152812571Y-104201810D01*
X152860190Y-104106571D01*
X152907809Y-104058952D01*
X153003047Y-104011333D01*
X153193524Y-104011333D01*
X153288762Y-104058952D01*
X153336381Y-104106571D01*
X153384000Y-104201810D01*
X152384000Y-104249429D02*
X151622095Y-104249429D01*
X150955429Y-103630381D02*
X150860190Y-103630381D01*
X150764952Y-103678000D01*
X150717333Y-103725619D01*
X150669714Y-103820857D01*
X150622095Y-104011333D01*
X150622095Y-104249429D01*
X150669714Y-104439905D01*
X150717333Y-104535143D01*
X150764952Y-104582762D01*
X150860190Y-104630381D01*
X150955429Y-104630381D01*
X151050667Y-104582762D01*
X151098286Y-104535143D01*
X151145905Y-104439905D01*
X151193524Y-104249429D01*
X151193524Y-104011333D01*
X151145905Y-103820857D01*
X151098286Y-103725619D01*
X151050667Y-103678000D01*
X150955429Y-103630381D01*
X149764952Y-103630381D02*
X149955429Y-103630381D01*
X150050667Y-103678000D01*
X150098286Y-103725619D01*
X150193524Y-103868476D01*
X150241143Y-104058952D01*
X150241143Y-104439905D01*
X150193524Y-104535143D01*
X150145905Y-104582762D01*
X150050667Y-104630381D01*
X149860190Y-104630381D01*
X149764952Y-104582762D01*
X149717333Y-104535143D01*
X149669714Y-104439905D01*
X149669714Y-104201810D01*
X149717333Y-104106571D01*
X149764952Y-104058952D01*
X149860190Y-104011333D01*
X150050667Y-104011333D01*
X150145905Y-104058952D01*
X150193524Y-104106571D01*
X150241143Y-104201810D01*
X149241143Y-104249429D02*
X148479238Y-104249429D01*
X148050667Y-103725619D02*
X148003048Y-103678000D01*
X147907810Y-103630381D01*
X147669714Y-103630381D01*
X147574476Y-103678000D01*
X147526857Y-103725619D01*
X147479238Y-103820857D01*
X147479238Y-103916095D01*
X147526857Y-104058952D01*
X148098286Y-104630381D01*
X147479238Y-104630381D01*
X146907810Y-104058952D02*
X147003048Y-104011333D01*
X147050667Y-103963714D01*
X147098286Y-103868476D01*
X147098286Y-103820857D01*
X147050667Y-103725619D01*
X147003048Y-103678000D01*
X146907810Y-103630381D01*
X146717333Y-103630381D01*
X146622095Y-103678000D01*
X146574476Y-103725619D01*
X146526857Y-103820857D01*
X146526857Y-103868476D01*
X146574476Y-103963714D01*
X146622095Y-104011333D01*
X146717333Y-104058952D01*
X146907810Y-104058952D01*
X147003048Y-104106571D01*
X147050667Y-104154190D01*
X147098286Y-104249429D01*
X147098286Y-104439905D01*
X147050667Y-104535143D01*
X147003048Y-104582762D01*
X146907810Y-104630381D01*
X146717333Y-104630381D01*
X146622095Y-104582762D01*
X146574476Y-104535143D01*
X146526857Y-104439905D01*
X146526857Y-104249429D01*
X146574476Y-104154190D01*
X146622095Y-104106571D01*
X146717333Y-104058952D01*
D12*
X159790000Y-104814000D02*
X160790000Y-104814000D01*
X160790000Y-106514000D02*
X159790000Y-106514000D01*
X159790000Y-112942000D02*
X160790000Y-112942000D01*
X160790000Y-114642000D02*
X159790000Y-114642000D01*
X170045000Y-103720000D02*
X169045000Y-103720000D01*
X169045000Y-102020000D02*
X170045000Y-102020000D01*
X170045000Y-106260000D02*
X169045000Y-106260000D01*
X169045000Y-104560000D02*
X170045000Y-104560000D01*
X170045000Y-108800000D02*
X169045000Y-108800000D01*
X169045000Y-107100000D02*
X170045000Y-107100000D01*
X170045000Y-111340000D02*
X169045000Y-111340000D01*
X169045000Y-109640000D02*
X170045000Y-109640000D01*
X170045000Y-113880000D02*
X169045000Y-113880000D01*
X169045000Y-112180000D02*
X170045000Y-112180000D01*
X170045000Y-116420000D02*
X169045000Y-116420000D01*
X169045000Y-114720000D02*
X170045000Y-114720000D01*
X156372000Y-109204000D02*
X155672000Y-109204000D01*
X158272000Y-107704000D02*
X158272000Y-107204000D01*
X159674080Y-107704000D02*
X158272000Y-107704000D01*
X158270960Y-111104000D02*
X159673040Y-111104000D01*
X161572000Y-109204000D02*
X161572000Y-109604000D01*
X156372000Y-109204000D02*
X156372000Y-109604000D01*
X165554000Y-106366000D02*
X165554000Y-105666000D01*
X167054000Y-108266000D02*
X167554000Y-108266000D01*
X167054000Y-109668080D02*
X167054000Y-108266000D01*
X163654000Y-108264960D02*
X163654000Y-109667040D01*
X165554000Y-111566000D02*
X165154000Y-111566000D01*
X165554000Y-106366000D02*
X165154000Y-106366000D01*
M02*
